<?xml version="1.0" standalone="no"?>
<!DOCTYPE svg PUBLIC "-//W3C//DTD SVG 1.1//EN" "http://www.w3.org/Graphics/SVG/1.1/DTD/svg11.dtd" >
<svg xmlns="http://www.w3.org/2000/svg" xmlns:xlink="http://www.w3.org/1999/xlink" version="1.1">
<metadata>
Created by FontForge 20170731 at Mon May 23 15:10:59 2016
 By Aleksey,,,
(URW)++,Copyright 2015 by (URW)++ Design &#38; Development
</metadata>
<defs>
<font id="HusqvarnaGothic-Light" horiz-adv-x="942" >
  <font-face 
    font-family="Husqvarna Gothic Light"
    font-weight="300"
    font-stretch="normal"
    units-per-em="2048"
    panose-1="0 0 8 0 0 0 0 0 0 0"
    ascent="1638"
    descent="-410"
    x-height="1024"
    cap-height="1434"
    bbox="-51 -431 7721 1829"
    underline-thickness="102"
    underline-position="-307"
    unicode-range="U+0020-FB02"
  />
<missing-glyph horiz-adv-x="410" 
d="M41 0v1434h328v-1434h-328zM328 41v1352h-246v-1352h246z" />
    <glyph glyph-name="onehalf" unicode="&#x31;&#x2f;&#x32;" horiz-adv-x="1536" 
d="M1161 834q123 0 188 -67q60 -63 60 -177q0 -90 -81.5 -201t-289.5 -307h375v-82h-512v61q261 238 333 327q89 109 89 202q0 76 -43 119t-119 43q-67 0 -109.5 -35.5t-72.5 -116.5l-78 23q38 105 96 154q65 57 164 57zM1112 1454l-787 -1483h-94l787 1483h94zM281 621v704
l-2 3l-109 -78l-47 65l162 119h84v-813h-88z" />
    <glyph glyph-name="fi" unicode="fi" horiz-adv-x="860" 
d="M61 938v86h123v146q0 136 47 196q52 68 174 68h66v-86h-64q-68 0 -96.5 -41.5t-28.5 -139.5v-143h168v-86h-168v-938h-98v938h-123zM735 1024v-1024h-98v1024h98zM739 1368v-143h-106v143h106z" />
    <glyph glyph-name="fl" unicode="fl" horiz-adv-x="860" 
d="M61 938v86h123v146q0 136 47 196q52 68 174 68h66v-86h-64q-68 0 -96.5 -41.5t-28.5 -139.5v-143h168v-86h-168v-938h-98v938h-123zM735 1434v-1434h-98v1434h98z" />
    <glyph glyph-name=".notdef" horiz-adv-x="410" 
d="M41 0v1434h328v-1434h-328zM328 41v1352h-246v-1352h246z" />
    <glyph glyph-name="glyph1" horiz-adv-x="0" 
 />
    <glyph glyph-name="glyph2" horiz-adv-x="410" 
 />
    <glyph glyph-name="space" unicode=" " horiz-adv-x="410" 
 />
    <glyph glyph-name="exclam" unicode="!" horiz-adv-x="471" 
d="M286 1434v-1086h-102v1086h102zM288 143v-143h-106v143h106z" />
    <glyph glyph-name="quotedbl" unicode="&#x22;" horiz-adv-x="600" 
d="M377 1434h100v-475h-100v475zM123 1434h100v-475h-100v475z" />
    <glyph glyph-name="numbersign" unicode="#" horiz-adv-x="1311" 
d="M348 1434h80v-410h455v410h80v-410h266v-78h-266v-458h266v-78h-266v-410h-80v410h-455v-410h-80v410h-266v78h266v458h-266v78h266v410zM428 946v-458h455v458h-455z" />
    <glyph glyph-name="dollar" unicode="$" horiz-adv-x="1065" 
d="M942 1140l-96 -24q-33 106 -113 173q-70 59 -157 71v-596q125 -51 180 -80.5t98 -69.5q109 -100 109 -268q0 -179 -125 -277q-101 -79 -262 -88v-133h-82v133q-288 17 -412 334l96 25q103 -250 316 -269v615q-180 73 -254 152q-96 103 -96 268q0 156 116 254
q95 80 234 92v133h82v-133q133 -13 232 -103q89 -80 134 -209zM861 346q0 107 -63.5 175t-221.5 132v-584q133 13 211 89q74 73 74 188zM246 1106q0 -109 57 -180.5t191 -129.5v564q-112 -12 -182 -86q-66 -69 -66 -168z" />
    <glyph glyph-name="percent" unicode="%" horiz-adv-x="1331" 
d="M1098 1454l-787 -1483h-94l787 1483h94zM967 -20q-118 0 -186 104q-60 91 -60 232q0 166 77 256q66 77 169 77q116 0 182 -100q59 -89 59 -233q0 -162 -77 -256q-65 -80 -164 -80zM967 571q-71 0 -113.5 -70t-42.5 -185q0 -131 51 -201q42 -57 105 -57q69 0 110 70
t41 188q0 128 -50 198q-41 57 -101 57zM368 785q-117 0 -185 104q-60 91 -60 232q0 166 77 256q66 77 168 77q117 0 183 -100q59 -89 59 -233q0 -162 -77 -256q-65 -80 -165 -80zM368 1376q-70 0 -112.5 -70t-42.5 -185q0 -131 51 -201q42 -57 104 -57q70 0 111 70t41 188
q0 128 -50 198q-41 57 -102 57z" />
    <glyph glyph-name="ampersand" unicode="&#x26;" horiz-adv-x="1290" 
d="M1094 -20l-152 200q-132 -108 -230.5 -154t-199.5 -46q-173 0 -289 132q-100 114 -100 267q0 111 82.5 227t236.5 224q-104 128 -139 184q-57 92 -57 160q0 136 82 212q74 68 198 68q133 0 216 -88q73 -78 73 -192q0 -78 -57 -161.5t-186 -197.5l387 -504l153 129l55 -69
l-155 -129l155 -207zM887 252l-387 504q-279 -201 -279 -377q0 -134 93 -225q83 -80 198 -80q88 0 169.5 38.5t205.5 139.5zM344 1174q0 -51 35.5 -110t134.5 -175q116 96 159.5 157t43.5 128q0 92 -66 146q-54 44 -125 44q-87 0 -137 -57q-45 -52 -45 -133z" />
    <glyph glyph-name="quotesingle" unicode="'" horiz-adv-x="387" 
d="M123 1434h100v-475h-100v475z" />
    <glyph glyph-name="parenleft" unicode="(" horiz-adv-x="614" 
d="M123 610q0 630 311 1020l58 -45q-250 -403 -250 -975q0 -560 250 -966l-58 -45q-311 389 -311 1011z" />
    <glyph glyph-name="parenright" unicode=")" horiz-adv-x="614" 
d="M492 610q0 -622 -312 -1011l-57 45q250 406 250 966q0 572 -250 975l57 45q312 -390 312 -1020z" />
    <glyph glyph-name="asterisk" unicode="*" horiz-adv-x="819" 
d="M369 1198l-23 236h125l-26 -238l217 99l34 -119l-229 -47l160 -182l-92 -74l-125 211l-129 -211l-90 72l159 184l-227 47l35 119z" />
    <glyph glyph-name="plus" unicode="+" horiz-adv-x="1065" 
d="M102 664v94h383v403h94v-403h383v-94h-383v-404h-94v404h-383z" />
    <glyph glyph-name="comma" unicode="," horiz-adv-x="307" 
d="M206 143v-143l-45 -144h-41l31 144h-51v143h106z" />
    <glyph glyph-name="hyphen" unicode="-" horiz-adv-x="635" 
d="M102 557v102h430v-102h-430z" />
    <glyph glyph-name="period" unicode="." horiz-adv-x="307" 
d="M206 143v-143h-106v143h106z" />
    <glyph glyph-name="slash" unicode="/" horiz-adv-x="799" 
d="M758 1462l-623 -1491h-94l623 1491h94z" />
    <glyph glyph-name="zero" unicode="0" horiz-adv-x="1065" 
d="M533 -20q-233 0 -352 225q-99 186 -99 485q0 764 451 764q450 0 450 -764q0 -346 -127 -535q-118 -175 -323 -175zM533 74q191 0 279 196q69 155 69 420q0 351 -91 516q-86 154 -257 154q-349 0 -349 -670q0 -304 94 -463q89 -153 255 -153z" />
    <glyph glyph-name="one" unicode="1" horiz-adv-x="553" 
d="M291 0v1307l-2 2l-201 -141l-47 71l270 195h78v-1434h-98z" />
    <glyph glyph-name="two" unicode="2" horiz-adv-x="1004" 
d="M512 1454q192 0 304 -114q106 -109 106 -296q0 -183 -128 -362q-81 -113 -317 -352l-239 -240h684v-90h-840v65l281 281q279 279 366 414q91 141 91 285q0 156 -84 238q-78 77 -224 77q-133 0 -221 -100q-69 -78 -98 -203l-93 23q42 177 142 273q106 101 270 101z" />
    <glyph glyph-name="three" unicode="3" horiz-adv-x="1065" 
d="M733 760v-4q271 -69 271 -365q0 -210 -141 -319q-118 -92 -310 -92q-280 0 -430 270l92 59q130 -235 338 -235q172 0 269 104q80 86 80 213q0 150 -106 238q-95 80 -243 80h-41v80h41q130 0 214 88q75 80 75 198q0 132 -96 215q-81 70 -193 70q-89 0 -165.5 -44.5
t-115.5 -119.5l-86 56q48 93 150 149q98 53 217 53q187 0 297 -121q94 -104 94 -258q0 -131 -71 -220q-56 -71 -140 -95z" />
    <glyph glyph-name="four" unicode="4" horiz-adv-x="1065" 
d="M103 426l632 1008h82v-959h207v-90h-207v-385h-102v385h-612v41zM238 475h477v754h-4z" />
    <glyph glyph-name="five" unicode="5" horiz-adv-x="1044" 
d="M82 215l76 62q69 -97 157.5 -150t182.5 -53q163 0 265 109q98 105 98 274q0 184 -125 294q-102 89 -238 89q-202 0 -310 -178l-65 26l61 746h699v-90h-608q-8 -99 -41 -506h4q43 42 116.5 69t143.5 27q225 0 353 -147q112 -128 112 -328q0 -232 -143 -364
q-125 -115 -322 -115q-111 0 -224 62q-115 63 -192 173z" />
    <glyph glyph-name="six" unicode="6" horiz-adv-x="1065" 
d="M178 696l2 -2q49 91 151 146q96 51 210 51q210 0 338 -157q104 -128 104 -300q0 -202 -131 -332q-122 -122 -311 -122q-213 0 -330 133q-129 146 -129 442q0 510 118 713q106 184 341 184q113 0 198 -38t164 -123l-69 -60q-128 131 -293 131q-219 0 -302 -240
q-48 -140 -61 -426zM193 434q0 -183 112 -280q92 -80 236 -80q162 0 256 106q84 96 84 254q0 176 -109 277q-92 86 -231 86q-163 0 -260 -108q-88 -98 -88 -255z" />
    <glyph glyph-name="seven" unicode="7" horiz-adv-x="901" 
d="M41 1344v90h819v-69l-631 -1365h-106l633 1344h-715z" />
    <glyph glyph-name="eight" unicode="8" horiz-adv-x="1106" 
d="M1003 402q0 -216 -133 -326q-116 -96 -317 -96q-224 0 -345 125q-106 111 -106 297q0 140 82 245q67 86 176 134v4q-195 95 -195 315q0 154 104 254q105 100 284 100q203 0 308 -127q79 -95 79 -227q0 -107 -52 -190.5t-145 -124.5v-4q126 -56 195 -160q65 -98 65 -219z
M204 402q0 -161 113 -252q95 -76 236 -76q164 0 261 99q87 88 87 229q0 162 -112 253q-94 77 -236 77q-163 0 -261 -100q-88 -90 -88 -230zM265 1100q0 -121 90 -198q80 -68 198 -68q133 0 216 88q71 74 71 178q0 120 -90 194q-80 66 -197 66q-137 0 -219 -84
q-69 -72 -69 -176z" />
    <glyph glyph-name="nine" unicode="9" horiz-adv-x="1065" 
d="M887 736l-2 2q-49 -91 -151 -146q-96 -51 -210 -51q-210 0 -338 157q-104 128 -104 300q0 202 131 332q122 122 311 122q213 0 330 -133q129 -146 129 -442q0 -510 -118 -713q-106 -184 -341 -184q-113 0 -198 38t-164 123l70 60q127 -131 292 -131q219 0 302 240
q48 140 61 426zM872 998q0 183 -112 280q-92 80 -236 80q-162 0 -256 -106q-84 -96 -84 -254q0 -176 109 -277q92 -86 231 -86q163 0 260 108q88 98 88 255z" />
    <glyph glyph-name="colon" unicode=":" horiz-adv-x="307" 
d="M206 143v-143h-106v143h106zM206 877v-143h-106v143h106z" />
    <glyph glyph-name="semicolon" unicode=";" horiz-adv-x="307" 
d="M206 143v-143l-45 -144h-41l31 144h-51v143h106zM206 877v-143h-106v143h106z" />
    <glyph glyph-name="less" unicode="&#x3c;" horiz-adv-x="1065" 
d="M102 655v95l860 430v-103l-745 -372v-5l745 -372v-103z" />
    <glyph glyph-name="equal" unicode="=" horiz-adv-x="1065" 
d="M102 500v94h860v-94h-860zM102 828v94h860v-94h-860z" />
    <glyph glyph-name="greater" unicode="&#x3e;" horiz-adv-x="1065" 
d="M962 750v-95l-860 -430v103l745 372v5l-745 372v103z" />
    <glyph glyph-name="question" unicode="?" horiz-adv-x="840" 
d="M330 348v43q0 105 39 175t150 161q97 80 132 134q50 78 50 183q0 166 -102 251q-78 65 -189 65q-216 0 -277 -244l-92 25q44 164 149 244q91 69 220 69q181 0 287 -112q102 -108 102 -298q0 -125 -44 -206.5t-164 -181.5q-89 -72 -119 -117q-44 -65 -44 -148v-43h-98z
M432 143v-143h-106v143h106z" />
    <glyph glyph-name="at" unicode="@" horiz-adv-x="1556" 
d="M1128 196q-95 0 -139 131h-4q-32 -60 -97.5 -95.5t-144.5 -35.5q-149 0 -245 106q-83 91 -83 218q0 147 104 245q89 83 205 83q75 0 141 -32.5t103 -86.5h4l27 96h78v-408q0 -78 22.5 -110.5t75.5 -32.5q70 0 125 77q60 85 60 228q0 272 -187 433q-155 133 -373 133
q-167 0 -309 -86q-139 -82 -220 -224q-83 -146 -83 -315t84 -314q81 -139 219 -221q143 -84 309 -84q213 0 357 86l49 -71q-83 -55 -176 -78t-230 -23q-195 0 -355 88q-159 89 -249 246q-94 163 -94 371q0 199 94 366q91 161 249 254q162 95 355 95q173 0 327 -90
q148 -86 236 -228q91 -145 91 -303q0 -198 -93 -312q-86 -106 -233 -106zM517 520q0 -104 73 -172q63 -60 152 -60q103 0 168 77q56 65 56 155q0 103 -71 171q-64 61 -153 61q-102 0 -168 -78q-57 -66 -57 -154z" />
    <glyph glyph-name="A" unicode="A" horiz-adv-x="1044" 
d="M287 483l-148 -483h-98l440 1434h82l441 -1434h-99l-147 483h-471zM315 573h414l-205 681h-4z" />
    <glyph glyph-name="B" unicode="B" horiz-adv-x="1024" 
d="M671 754v-4q133 -22 206 -127q65 -93 65 -230q0 -222 -141 -317q-112 -76 -320 -76h-358v1434h301q469 0 469 -356q0 -140 -62 -226q-58 -80 -160 -98zM225 709v-619h205q221 0 309 60q101 69 101 243q0 186 -128 259q-101 57 -307 57h-180zM225 1344v-545h182
q252 0 327 74q57 56 57 205q0 142 -92.5 204t-305.5 62h-168z" />
    <glyph glyph-name="C" unicode="C" horiz-adv-x="1085" 
d="M569 -20q-487 0 -487 710q0 423 141 608q119 156 348 156q168 0 268 -93q77 -71 144 -226l-90 -35q-54 137 -127 197q-77 63 -195 63q-387 0 -387 -670q0 -616 385 -616q255 0 340 287l95 -35q-105 -346 -435 -346z" />
    <glyph glyph-name="D" unicode="D" horiz-adv-x="1065" 
d="M123 1434h231q354 0 500 -193q129 -169 129 -524q0 -426 -165 -586q-135 -131 -431 -131h-264v1434zM225 1344v-1254h149q308 0 418 173q89 139 89 454q0 340 -130 485q-127 142 -407 142h-119z" />
    <glyph glyph-name="E" unicode="E" horiz-adv-x="922" 
d="M123 1434h696v-90h-594v-545h471v-90h-471v-619h615v-90h-717v1434z" />
    <glyph glyph-name="F" unicode="F" horiz-adv-x="860" 
d="M123 1434h696v-90h-594v-586h471v-90h-471v-668h-102v1434z" />
    <glyph glyph-name="G" unicode="G" horiz-adv-x="1085" 
d="M569 74q157 0 247 104q86 99 86 269v139h-316v90h418v-676h-78l-20 148h-4q-65 -89 -143 -128.5t-189 -39.5q-488 0 -488 710q0 423 141 608q119 156 349 156q167 0 267 -93q77 -71 145 -226l-90 -35q-55 137 -128 197q-77 63 -195 63q-387 0 -387 -670q0 -616 385 -616z
" />
    <glyph glyph-name="H" unicode="H" horiz-adv-x="1106" 
d="M225 709v-709h-102v1434h102v-635h656v635h102v-1434h-102v709h-656z" />
    <glyph glyph-name="I" unicode="I" horiz-adv-x="348" 
d="M225 1434v-1434h-102v1434h102z" />
    <glyph glyph-name="J" unicode="J" horiz-adv-x="614" 
d="M41 0v90h82q267 0 267 346v998h102v-998q0 -248 -115 -354q-89 -82 -254 -82h-82z" />
    <glyph glyph-name="K" unicode="K" horiz-adv-x="1024" 
d="M454 744h-4l-225 -301v-443h-102v1434h102v-828h4l614 828h119l-446 -602l467 -832h-119z" />
    <glyph glyph-name="L" unicode="L" horiz-adv-x="799" 
d="M225 1434v-1344h533v-90h-635v1434h102z" />
    <glyph glyph-name="M" unicode="M" horiz-adv-x="1270" 
d="M1147 1434v-1434h-94v1209h-4l-367 -1209h-98l-363 1209h-4v-1209h-94v1434h123l385 -1270h4l389 1270h123z" />
    <glyph glyph-name="N" unicode="N" horiz-adv-x="1085" 
d="M963 1434v-1434h-71l-671 1209h-4v-1209h-94v1434h82l660 -1188h4v1188h94z" />
    <glyph glyph-name="O" unicode="O" horiz-adv-x="1147" 
d="M571 -20q-259 0 -380 194q-109 176 -109 516q0 423 141 608q119 156 348 156q268 0 387 -206q107 -185 107 -558q0 -389 -142 -562q-121 -148 -352 -148zM571 74q392 0 392 616q0 670 -392 670q-387 0 -387 -670q0 -616 387 -616z" />
    <glyph glyph-name="P" unicode="P" horiz-adv-x="1004" 
d="M123 1434h305q493 0 493 -408q0 -223 -142 -320q-117 -79 -335 -79h-219v-627h-102v1434zM225 717h217q208 0 293 72q84 72 84 237q0 209 -135 276q-86 42 -277 42h-182v-627z" />
    <glyph glyph-name="Q" unicode="Q" horiz-adv-x="1147" 
d="M571 -21q-259 0 -380 194q-109 176 -109 517q0 423 141 608q119 156 348 156q268 0 387 -206q107 -185 107 -558q0 -501 -240 -647l131 -207h-122l-103 164q-79 -21 -160 -21zM571 73q392 0 392 617q0 670 -392 670q-387 0 -387 -670q0 -617 387 -617z" />
    <glyph glyph-name="R" unicode="R" horiz-adv-x="1004" 
d="M123 1434h305q493 0 493 -408q0 -348 -354 -393l375 -633h-119l-365 627h-233v-627h-102v1434zM225 717h217q208 0 293 72q84 72 84 237q0 209 -135 276q-86 42 -277 42h-182v-627z" />
    <glyph glyph-name="S" unicode="S" horiz-adv-x="983" 
d="M901 1141l-96 -25q-36 119 -131 188q-83 60 -183 60q-124 0 -209 -77q-78 -73 -78 -181q0 -149 118 -237q62 -46 221 -109q200 -79 273 -148q106 -100 106 -265q0 -190 -140 -288q-113 -79 -290 -79q-180 0 -296 101q-94 81 -155 235l96 24q112 -270 355 -270
q150 0 241 78q87 74 87 198q0 137 -112 219q-59 43 -214 105q-206 82 -282 155q-110 106 -110 281q0 167 131 266q108 82 258 82q149 0 262 -92q100 -82 148 -221z" />
    <glyph glyph-name="T" unicode="T" horiz-adv-x="922" 
d="M41 1434h840v-90h-369v-1344h-102v1344h-369v90z" />
    <glyph glyph-name="U" unicode="U" horiz-adv-x="1106" 
d="M225 1434v-910q0 -216 64 -322q77 -128 254 -128q213 0 290 162q48 101 48 288v910h102v-881q0 -303 -92 -431q-103 -142 -348 -142q-259 0 -354 184q-66 129 -66 389v881h102z" />
    <glyph glyph-name="V" unicode="V" horiz-adv-x="1044" 
d="M524 180l381 1254h99l-441 -1434h-82l-440 1434h98l381 -1254h4z" />
    <glyph glyph-name="W" unicode="W" horiz-adv-x="1372" 
d="M727 1434l275 -1209h4l227 1209h98l-282 -1434h-82l-279 1209h-4l-278 -1209h-82l-283 1434h98l226 -1209h4l276 1209h82z" />
    <glyph glyph-name="X" unicode="X" horiz-adv-x="1004" 
d="M430 748l-348 686h111l307 -604h4l307 604h111l-349 -686l390 -748h-111l-348 666h-4l-348 -666h-111z" />
    <glyph glyph-name="Y" unicode="Y" horiz-adv-x="1004" 
d="M502 711l354 723h106l-411 -828v-606h-102v606l-408 828h106l351 -723h4z" />
    <glyph glyph-name="Z" unicode="Z" horiz-adv-x="983" 
d="M123 1434h757v-65l-677 -1279h698v-90h-819v65l678 1279h-637v90z" />
    <glyph glyph-name="bracketleft" unicode="[" horiz-adv-x="614" 
d="M266 1548v-1867h185v-82h-287v2031h287v-82h-185z" />
    <glyph glyph-name="backslash" unicode="\" horiz-adv-x="799" 
d="M664 -29l-623 1491h94l623 -1491h-94z" />
    <glyph glyph-name="bracketright" unicode="]" horiz-adv-x="614" 
d="M349 -319v1867h-185v82h287v-2031h-287v82h185z" />
    <glyph glyph-name="underscore" unicode="_" horiz-adv-x="1024" 
d="M1028 -41v-82h-1032v82h1032z" />
    <glyph glyph-name="grave" unicode="`" horiz-adv-x="492" 
d="M102 1368h164l123 -188h-103z" />
    <glyph glyph-name="a" unicode="a" horiz-adv-x="901" 
d="M451 958q-100 0 -158 -44.5t-86 -143.5l-92 25q51 144 142 202q75 47 194 47q327 0 327 -358v-686h-78l-20 135h-4q-93 -155 -287 -155q-161 0 -242 91q-65 74 -65 196q0 114 82 189q70 63 225 122l291 108v21q0 251 -229 251zM680 406v182l-291 -109q-209 -76 -209 -212
q0 -98 67 -154q57 -47 142 -47q149 0 229 120q62 92 62 220z" />
    <glyph glyph-name="b" unicode="b" 
d="M123 0v1434h98v-545h4q86 156 266 156q195 0 291 -168q78 -137 78 -364q0 -257 -102 -399q-97 -134 -267 -134q-86 0 -155.5 40.5t-110.5 114.5h-4l-20 -135h-78zM492 959q-87 0 -159.5 -63t-111.5 -173v-317q0 -158 92 -257q76 -83 179 -83q130 0 204 134q66 119 66 313
q0 226 -85 346q-71 100 -185 100z" />
    <glyph glyph-name="c" unicode="c" horiz-adv-x="860" 
d="M711 264l84 -16q-44 -144 -120 -206q-77 -62 -204 -62q-201 0 -304 164q-85 137 -85 360q0 268 113 411q101 129 276 129q127 0 202 -67.5t126 -226.5l-88 -17q-65 225 -240 225q-155 0 -230 -144q-61 -116 -61 -310q0 -224 83 -337q74 -101 208 -101q173 0 240 198z" />
    <glyph glyph-name="d" unicode="d" 
d="M819 1434v-1434h-78l-20 135h-4q-41 -74 -110.5 -114.5t-155.5 -40.5q-194 0 -291 172q-78 139 -78 361q0 262 102 402q96 130 267 130q180 0 266 -156h4v545h98zM451 959q-132 0 -205 -131q-66 -118 -66 -315q0 -222 85 -344q72 -103 186 -103q118 0 198 107
q72 96 72 233v317q-43 120 -125 183q-68 53 -145 53z" />
    <glyph glyph-name="e" unicode="e" 
d="M471 66q117 0 187.5 50t105.5 158l84 -16q-49 -149 -138 -213q-90 -65 -239 -65q-195 0 -300 161q-89 138 -89 363q0 271 116 414q102 126 273 126q198 0 299 -160q89 -142 89 -389q0 -15 -1 -30h-678q8 -208 94 -311q74 -88 197 -88zM471 958q-262 0 -289 -395h578
q-32 395 -289 395z" />
    <glyph glyph-name="f" unicode="f" horiz-adv-x="492" 
d="M41 938v86h123v146q0 136 47 196q52 68 174 68h66v-86h-64q-68 0 -96.5 -41.5t-28.5 -139.5v-143h168v-86h-168v-938h-98v938h-123z" />
    <glyph glyph-name="g" unicode="g" 
d="M819 1024v-1044q0 -214 -119 -310q-89 -71 -239 -71q-138 0 -234 71q-93 68 -125 191l89 24q21 -97 103 -152q71 -48 167 -48q105 0 179 64q81 71 81 198v229h-4q-93 -156 -266 -156q-193 0 -291 167q-78 134 -78 345q0 239 102 379q98 133 267 133q86 0 155.5 -40.5
t110.5 -114.5h4l20 135h78zM451 958q-130 0 -205 -129q-66 -114 -66 -297q0 -201 85 -321q74 -105 186 -105q119 0 198 106q72 96 72 234v277q-43 120 -125 183q-68 52 -145 52z" />
    <glyph glyph-name="h" unicode="h" horiz-adv-x="922" 
d="M799 657v-657h-98v657q0 161 -49 231q-50 71 -160 71q-86 0 -159 -63.5t-112 -172.5v-723h-98v1434h98v-545h4q40 74 110 115t157 41q177 0 248 -109q59 -90 59 -279z" />
    <glyph glyph-name="i" unicode="i" horiz-adv-x="348" 
d="M223 1024v-1024h-98v1024h98zM227 1368v-143h-106v143h106z" />
    <glyph glyph-name="j" unicode="j" horiz-adv-x="348" 
d="M223 1024v-1198q0 -108 -48 -158q-47 -49 -144 -49h-31v88h31q94 0 94 146v1171h98zM227 1368v-143h-106v143h106z" />
    <glyph glyph-name="k" unicode="k" horiz-adv-x="840" 
d="M221 1434v-955h4l426 545h107l-301 -383l342 -641h-103l-299 559h-4l-172 -221v-338h-98v1434h98z" />
    <glyph glyph-name="l" unicode="l" horiz-adv-x="348" 
d="M223 1434v-1434h-98v1434h98z" />
    <glyph glyph-name="m" unicode="m" horiz-adv-x="1393" 
d="M741 723v-723h-98v657q0 301 -170 301q-75 0 -143 -63.5t-109 -171.5v-723h-98v1024h78l20 -135h4q41 73 106 114t140 41q87 0 151.5 -48t91.5 -132h5q44 82 117.5 131t150.5 49q146 0 214.5 -93.5t68.5 -293.5v-657h-98v657q0 301 -179 301q-75 0 -145 -65.5
t-107 -169.5z" />
    <glyph glyph-name="n" unicode="n" horiz-adv-x="922" 
d="M799 657v-657h-98v657q0 153 -42 221q-50 80 -167 80q-86 0 -159 -63.5t-112 -171.5v-723h-98v1024h78l20 -135h4q87 155 267 155q184 0 254 -118q53 -89 53 -269z" />
    <glyph glyph-name="o" unicode="o" 
d="M471 -20q-201 0 -304 166q-85 137 -85 358q0 268 113 411q101 129 276 129q200 0 302 -167q87 -140 87 -373q0 -256 -111 -396q-102 -128 -278 -128zM471 958q-162 0 -236 -158q-55 -115 -55 -296q0 -212 76 -326q75 -112 215 -112q160 0 234 144q57 110 57 294
q0 210 -74 330q-75 124 -217 124z" />
    <glyph glyph-name="p" unicode="p" 
d="M123 -381v1405h78l20 -135h4q41 74 110.5 114.5t155.5 40.5q194 0 291 -172q78 -138 78 -360q0 -262 -102 -402q-96 -130 -267 -130q-178 0 -266 155h-4v-516h-98zM492 958q-87 0 -159.5 -63t-111.5 -172v-317q0 -159 92 -258q76 -82 179 -82q130 0 204 134
q66 119 66 312q0 226 -85 346q-71 100 -185 100z" />
    <glyph glyph-name="q" unicode="q" 
d="M819 1024v-1405h-98v516h-4q-88 -155 -266 -155q-195 0 -291 168q-78 137 -78 364q0 256 102 398q97 134 267 134q86 0 155.5 -40.5t110.5 -114.5h4l20 135h78zM451 958q-132 0 -205 -130q-66 -118 -66 -316q0 -221 85 -343q72 -103 186 -103q119 0 198 106q72 96 72 234
v317q-43 120 -125 183q-68 52 -145 52z" />
    <glyph glyph-name="r" unicode="r" horiz-adv-x="573" 
d="M533 1044v-86h-41q-146 0 -217 -121q-54 -92 -54 -237v-600h-98v1024h78l20 -135h4q35 73 105.5 114t161.5 41h41z" />
    <glyph glyph-name="s" unicode="s" horiz-adv-x="778" 
d="M696 825l-96 -26q-23 74 -79 116.5t-132 42.5q-81 0 -137 -52q-52 -48 -52 -118q0 -84 51 -135.5t197 -114.5q142 -62 194 -110q75 -70 75 -176q0 -144 -112 -216q-86 -56 -216 -56q-252 0 -348 233l96 27q74 -174 252 -174q106 0 170 52q60 50 60 134q0 65 -44.5 106
t-173.5 97q-155 67 -214 123q-85 82 -85 210q0 127 97 199q79 57 190 57q234 0 307 -219z" />
    <glyph glyph-name="t" unicode="t" horiz-adv-x="492" 
d="M41 938v86h123l20 303h78v-303h168v-86h-168v-672q0 -96 28 -136t97 -40h64v-90h-66q-123 0 -172 59t-49 207v672h-123z" />
    <glyph glyph-name="u" unicode="u" horiz-adv-x="922" 
d="M123 367v657h98v-657q0 -153 42 -221q50 -80 167 -80q95 0 165 66t106 190v702h98v-1024h-78l-20 135h-4q-87 -155 -267 -155q-184 0 -254 118q-53 89 -53 269z" />
    <glyph glyph-name="v" unicode="v" horiz-adv-x="860" 
d="M819 1024l-348 -1024h-82l-348 1024h102l285 -868h4l285 868h102z" />
    <glyph glyph-name="w" unicode="w" horiz-adv-x="1147" 
d="M1106 1024l-244 -1024h-82l-207 840h-4l-204 -840h-82l-242 1024h102l179 -827h4l204 827h82l207 -827h4l181 827h102z" />
    <glyph glyph-name="x" unicode="x" horiz-adv-x="799" 
d="M731 1024l-278 -496l305 -528h-107l-250 451h-4l-250 -451h-106l301 532l-274 492h106l223 -408h4l224 408h106z" />
    <glyph glyph-name="y" unicode="y" horiz-adv-x="860" 
d="M819 1024l-348 -1024q-82 -228 -125 -289q-65 -92 -172 -92h-82v88h82q68 0 116 74q39 60 99 219l-348 1024h102l285 -868h4l285 868h102z" />
    <glyph glyph-name="z" unicode="z" horiz-adv-x="881" 
d="M143 1024h614v-66l-542 -868v-4h563v-86h-676v66l543 868v4h-502v86z" />
    <glyph glyph-name="braceleft" unicode="{" horiz-adv-x="635" 
d="M185 615v-5q151 -121 151 -346v-372q0 -213 137 -213h80v-82h-94q-101 0 -166 84q-59 76 -59 188v365q0 121 -44 207q-40 79 -108 110v121q71 31 111.5 117.5t40.5 203.5v365q0 129 76 207q62 65 149 65h94v-82h-80q-137 0 -137 -213v-372q0 -227 -151 -348z" />
    <glyph glyph-name="bar" unicode="|" horiz-adv-x="492" 
d="M287 1618v-2019h-82v2019h82z" />
    <glyph glyph-name="braceright" unicode="}" horiz-adv-x="635" 
d="M450 610v5q-151 121 -151 348v372q0 213 -137 213h-80v82h94q101 0 166 -84q59 -76 59 -188v-365q0 -121 44 -209q40 -82 108 -112v-121q-71 -32 -111.5 -116.5t-40.5 -200.5v-365q0 -129 -76 -207q-62 -65 -149 -65h-94v82h80q137 0 137 213v372q0 225 151 346z" />
    <glyph glyph-name="nonbreakingspace" unicode="&#xa0;" horiz-adv-x="410" 
 />
    <glyph glyph-name="exclamdown" unicode="&#xa1;" horiz-adv-x="471" 
d="M286 676v-1086h-102v1086h102zM288 1024v-143h-106v143h106z" />
    <glyph glyph-name="cent" unicode="&#xa2;" horiz-adv-x="860" 
d="M711 264l84 -16q-44 -145 -120 -207q-77 -62 -204 -62q-31 0 -80 9l-30 -144h-82l34 166q-121 57 -180 200q-51 122 -51 294q0 267 113 411q101 129 276 129q21 0 62 -4l26 127h82l-33 -149q65 -29 109 -91t82 -177l-88 -17q-43 142 -121 193l-182 -854q30 -7 63 -7
q173 0 240 199zM180 504q0 -308 154 -404l180 854q-30 4 -43 4q-155 0 -230 -144q-61 -117 -61 -310z" />
    <glyph glyph-name="sterling" unicode="&#xa3;" horiz-adv-x="1065" 
d="M924 1285l-80 -62q-104 145 -244 145q-113 0 -175 -85q-57 -79 -57 -216v-403h316l-27 -82h-289v-197q0 -171 -102 -295h697v-90h-840v65q67 64 105 144t38 158v215h-135l26 82h109v424q0 192 113 290q88 76 221 76q106 0 180.5 -39t143.5 -130z" />
    <glyph glyph-name="yen" unicode="&#xa5;" horiz-adv-x="1065" 
d="M523 711l354 723h106l-383 -770h267v-82h-295v-179h295v-84h-295v-319h-102v319h-297v84h297v179h-297v82h268l-379 770h106l351 -723h4z" />
    <glyph glyph-name="section" unicode="&#xa7;" horiz-adv-x="1044" 
d="M513 -144q133 0 223 74q82 67 82 164q0 122 -251 250l-241 123q-100 51 -154 129q-49 71 -49 154q0 71 39.5 134t136.5 146q-123 79 -123 238q0 146 108 236q93 77 228 77q187 0 338 -147l-74 -66q-115 119 -264 119q-103 0 -175 -72q-63 -63 -63 -147q0 -91 70 -149
q31 -26 135 -81l209 -108q130 -67 182 -127.5t52 -143.5q0 -146 -176 -303q79 -48 124.5 -117.5t45.5 -144.5q0 -164 -136 -257q-110 -75 -268 -75q-210 0 -369 175l74 65q134 -146 296 -146zM658 410q162 123 162 227q0 72 -34 112t-143 95l-260 135q-69 -40 -115.5 -106
t-46.5 -123q0 -118 164 -201z" />
    <glyph glyph-name="dieresis" unicode="&#xa8;" horiz-adv-x="614" 
d="M512 1368v-143h-106v143h106zM208 1368v-143h-106v143h106z" />
    <glyph glyph-name="copyright" unicode="&#xa9;" horiz-adv-x="1741" 
d="M541 717q0 -154 104 -257q91 -90 220 -90q62 0 124 26t105 71l80 -76q-139 -123 -310 -123q-196 0 -323 148q-109 127 -109 301q0 197 140 328q122 114 292 114q161 0 306 -115l-76 -79q-93 96 -229 96q-149 0 -243 -113q-81 -97 -81 -231zM868 -29q-200 0 -374 102
q-169 100 -268 268q-103 175 -103 376t103 376q99 168 268 268q174 102 374 102q203 0 378 -102q169 -100 269 -268q103 -174 103 -376t-103 -376q-100 -168 -269 -268q-175 -102 -378 -102zM864 1371q-176 0 -328 -90q-148 -88 -235 -236q-90 -152 -90 -328t90 -329
q87 -149 235 -237q152 -90 328 -90q179 0 333 90q150 88 238 237q91 153 91 329q0 175 -91 328q-88 148 -238 236q-154 90 -333 90z" />
    <glyph glyph-name="ordfeminine" unicode="&#xaa;" horiz-adv-x="737" 
d="M388 1368q-113 0 -148 -114l-84 22q48 178 232 178q227 0 227 -235v-428h-63l-21 76q-62 -88 -194 -88q-104 0 -161 55q-52 50 -52 133q0 150 188 203l211 59q0 65 -36 102t-99 37zM523 1018v123l-188 -55q-121 -36 -121 -119q0 -46 33.5 -74t89.5 -28q84 0 139 52
q47 43 47 101z" />
    <glyph glyph-name="guillemotleft" unicode="&#xab;" horiz-adv-x="1024" 
d="M653 274l-264 256l264 254l43 -39l-176 -215l176 -217zM366 274l-264 256l264 254l43 -39l-176 -215l176 -217z" />
    <glyph glyph-name="uni00AD" unicode="&#xad;" horiz-adv-x="635" 
d="M102 557v102h430v-102h-430z" />
    <glyph glyph-name="registered" unicode="&#xae;" horiz-adv-x="1208" 
d="M457 1221h123q199 0 199 -162q0 -126 -105 -148l123 -206h-86l-110 192h-72v-192h-72v516zM529 973h57q111 0 111 86q0 56 -23 73t-98 17h-47v-176zM123 961q0 216 159 360q137 125 323 125q214 0 357 -160q124 -138 124 -325q0 -216 -159 -359q-137 -124 -322 -124
q-215 0 -358 159q-124 137 -124 324zM195 963q0 -183 135 -311q119 -111 275 -111q179 0 302 142q105 122 105 280q0 184 -134 310q-117 110 -273 110q-181 0 -304 -140q-106 -121 -106 -280z" />
    <glyph glyph-name="macron" unicode="&#xaf;" horiz-adv-x="655" 
d="M553 1311v-90h-451v90h451z" />
    <glyph glyph-name="degree" unicode="&#xb0;" horiz-adv-x="614" 
d="M41 1188q0 117 88 197q77 69 178 69q117 0 197 -88q69 -77 69 -178q0 -117 -88 -197q-77 -69 -178 -69q-117 0 -197 88q-69 77 -69 178zM129 1188q0 -79 59 -132q51 -46 119 -46q79 0 132 59q46 51 46 119q0 79 -59 132q-51 46 -119 46q-79 0 -132 -59q-46 -51 -46 -119z
" />
    <glyph glyph-name="plusminus" unicode="&#xb1;" horiz-adv-x="1065" 
d="M102 664v94h383v403h94v-403h383v-94h-383v-404h-94v404h-383zM102 0v94h860v-94h-860z" />
    <glyph glyph-name="twosuperior" unicode="&#xb2;" horiz-adv-x="758" 
d="M383 1454q123 0 188 -67q60 -63 60 -177q0 -90 -81 -201t-290 -307h375v-82h-512v61q261 238 333 327q89 109 89 202q0 76 -43 119t-119 43q-67 0 -109.5 -35.5t-72.5 -115.5l-78 22q39 105 96 155q65 56 164 56z" />
    <glyph glyph-name="threesuperior" unicode="&#xb3;" horiz-adv-x="758" 
d="M655 834q0 -111 -90 -181q-80 -63 -197 -63q-141 0 -266 150l61 61q91 -129 205 -129q94 0 149 46q52 43 52 116q0 162 -221 162h-31v82h21q105 0 158 50q46 44 46 117q0 55 -46 91t-116 36q-62 0 -97 -18t-75 -69l-61 51q61 68 110.5 93t122.5 25q123 0 193 -73
q55 -58 55 -136q0 -139 -123 -200q150 -53 150 -211z" />
    <glyph glyph-name="acute" unicode="&#xb4;" horiz-adv-x="492" 
d="M225 1368h164l-185 -188h-102z" />
    <glyph glyph-name="mu" unicode="&#xb5;" horiz-adv-x="922" 
d="M223 1024v-729q7 -116 55 -171q50 -58 152 -58q95 0 165 66t106 190v702h98v-1024h-78l-20 135h-4q-87 -155 -267 -155q-136 0 -207 61v-422h-98v678q-2 22 -2 70v657h100z" />
    <glyph glyph-name="mu" unicode="&#x3bc;" horiz-adv-x="922" 
d="M223 1024v-729q7 -116 55 -171q50 -58 152 -58q95 0 165 66t106 190v702h98v-1024h-78l-20 135h-4q-87 -155 -267 -155q-136 0 -207 61v-422h-98v678q-2 22 -2 70v657h100z" />
    <glyph glyph-name="paragraph" unicode="&#xb6;" horiz-adv-x="1065" 
d="M942 1434v-111h-92v-1690h-102v1690h-93v-1690h-102v879q-191 5 -316 147q-114 129 -114 314q0 210 127 341q118 120 303 120h389z" />
    <glyph glyph-name="periodcentered" unicode="&#xb7;" horiz-adv-x="512" 
d="M309 799v-143h-106v143h106z" />
    <glyph glyph-name="cedilla" unicode="&#xb8;" horiz-adv-x="573" 
d="M102 -315l37 51q64 -51 131 -51q43 0 71 23.5t28 58.5q0 34 -28 56.5t-71 22.5q-34 0 -64 -16l-16 10l94 160h84l-61 -98l2 -2q16 4 31 4q57 0 94 -39t37 -98q0 -66 -50 -107t-130 -41q-106 0 -189 66z" />
    <glyph glyph-name="onesuperior" unicode="&#xb9;" horiz-adv-x="532" 
d="M281 621v704l-2 3l-109 -78l-47 65l162 119h84v-813h-88z" />
    <glyph glyph-name="ordmasculine" unicode="&#xba;" horiz-adv-x="737" 
d="M369 785q-125 0 -192 110q-54 89 -54 223q0 171 72 258q63 78 174 78q131 0 193 -101q53 -85 53 -235q0 -157 -68 -247q-65 -86 -178 -86zM369 1368q-152 0 -152 -250q0 -251 152 -251t152 251q0 250 -152 250z" />
    <glyph glyph-name="guillemotright" unicode="&#xbb;" horiz-adv-x="799" 
d="M409 530l-264 -256l-43 39l176 217l-176 215l43 39zM696 530l-264 -256l-43 39l176 217l-176 215l43 39z" />
    <glyph glyph-name="questiondown" unicode="&#xbf;" horiz-adv-x="840" 
d="M510 676v-43q0 -105 -39 -174.5t-150 -161.5q-97 -81 -132 -135q-50 -78 -50 -183q0 -166 102 -251q78 -65 189 -65q216 0 277 245l92 -25q-44 -165 -150 -245q-90 -69 -219 -69q-181 0 -287 112q-102 108 -102 298q0 125 44 206.5t164 181.5q89 73 119 118q44 65 44 148
v43h98zM408 881v143h106v-143h-106z" />
    <glyph glyph-name="Agrave" unicode="&#xc0;" horiz-adv-x="1044" 
d="M287 483l-148 -483h-98l440 1434h82l441 -1434h-99l-147 483h-471zM315 573h414l-205 681h-4zM293 1724h164l123 -188h-103z" />
    <glyph glyph-name="Aacute" unicode="&#xc1;" horiz-adv-x="1044" 
d="M287 483l-148 -483h-98l440 1434h82l441 -1434h-99l-147 483h-471zM315 573h414l-205 681h-4zM580 1724h164l-185 -188h-102z" />
    <glyph glyph-name="Acircumflex" unicode="&#xc2;" horiz-adv-x="1044" 
d="M287 483l-148 -483h-98l440 1434h82l441 -1434h-99l-147 483h-471zM315 573h414l-205 681h-4zM457 1724h121l166 -188h-93l-133 114l-133 -114h-92z" />
    <glyph glyph-name="Atilde" unicode="&#xc3;" horiz-adv-x="1044" 
d="M287 483l-148 -483h-98l440 1434h82l441 -1434h-99l-147 483h-471zM315 573h414l-205 681h-4zM653 1700h91q-4 -76 -42.5 -120t-101.5 -44q-40 0 -88 41q-39 33 -65 33q-49 0 -64 -74h-90q6 72 46 118t97 46q45 0 92 -42q36 -32 62 -32q54 0 63 74z" />
    <glyph glyph-name="Adieresis" unicode="&#xc4;" horiz-adv-x="1044" 
d="M287 483l-148 -483h-98l440 1434h82l441 -1434h-99l-147 483h-471zM315 573h414l-205 681h-4zM724 1679v-143h-106v143h106zM420 1679v-143h-106v143h106z" />
    <glyph glyph-name="Aring" unicode="&#xc5;" horiz-adv-x="993" 
d="M287 483l-148 -483h-98l440 1434h82l441 -1434h-99l-147 483h-471zM315 573h414l-205 681h-4zM358 1665q0 73 54 122q47 42 110 42q73 0 122 -54q42 -47 42 -110q0 -73 -54 -122q-47 -42 -110 -42q-73 0 -122 54q-42 47 -42 110zM430 1665q0 -37 27.5 -64.5t64.5 -27.5
t64.5 27.5t27.5 64.5t-27.5 64.5t-64.5 27.5t-64.5 -27.5t-27.5 -64.5z" />
    <glyph glyph-name="AE" unicode="&#xc6;" horiz-adv-x="1679" 
d="M430 463l-270 -463h-119l848 1434h688v-90h-586v-545h463v-90h-463v-619h606v-90h-708v463h-459zM483 553h406v688h-4z" />
    <glyph glyph-name="Ccedilla" unicode="&#xc7;" horiz-adv-x="1085" 
d="M379 -315l37 51q64 -51 131 -51q43 0 71 23.5t28 58.5t-28 57.5t-71 22.5q-34 0 -64 -17l-16 11l82 139q-467 15 -467 710q0 423 141 608q119 156 348 156q168 0 268 -93q77 -71 144 -226l-90 -35q-54 137 -127 197q-77 63 -195 63q-387 0 -387 -670q0 -616 385 -616
q255 0 340 287l95 -35q-96 -315 -371 -342l-49 -82l2 -2q17 4 31 4q57 0 94 -39t37 -98q0 -66 -50 -107t-130 -41q-106 0 -189 66z" />
    <glyph glyph-name="Egrave" unicode="&#xc8;" horiz-adv-x="922" 
d="M123 1434h696v-90h-594v-545h471v-90h-471v-619h615v-90h-717v1434zM254 1724h164l123 -188h-103z" />
    <glyph glyph-name="Eacute" unicode="&#xc9;" horiz-adv-x="922" 
d="M123 1434h696v-90h-594v-545h471v-90h-471v-619h615v-90h-717v1434zM500 1724h164l-185 -188h-102z" />
    <glyph glyph-name="Ecircumflex" unicode="&#xca;" horiz-adv-x="922" 
d="M123 1434h696v-90h-594v-545h471v-90h-471v-619h615v-90h-717v1434zM410 1724h121l166 -188h-93l-133 114l-133 -114h-92z" />
    <glyph glyph-name="Edieresis" unicode="&#xcb;" horiz-adv-x="922" 
d="M123 1434h696v-90h-594v-545h471v-90h-471v-619h615v-90h-717v1434zM687 1679v-143h-106v143h106zM383 1679v-143h-106v143h106z" />
    <glyph glyph-name="Igrave" unicode="&#xcc;" horiz-adv-x="348" 
d="M225 1434v-1434h-102v1434h102zM-41 1724h164l123 -188h-103z" />
    <glyph glyph-name="Iacute" unicode="&#xcd;" horiz-adv-x="348" 
d="M224 1434v-1434h-102v1434h102zM225 1724h164l-185 -188h-102z" />
    <glyph glyph-name="Icircumflex" unicode="&#xce;" horiz-adv-x="348" 
d="M225 1434v-1434h-102v1434h102zM115 1724h121l166 -188h-93l-133 114l-133 -114h-92z" />
    <glyph glyph-name="Idieresis" unicode="&#xcf;" horiz-adv-x="348" 
d="M225 1434v-1434h-102v1434h102zM379 1679v-143h-106v143h106zM75 1679v-143h-106v143h106z" />
    <glyph glyph-name="Eth" unicode="&#xd0;" horiz-adv-x="1065" 
d="M0 688v90h123v656h231q354 0 500 -193q129 -170 129 -524q0 -426 -165 -586q-135 -131 -431 -131h-264v688h-123zM225 1344v-566h226v-90h-226v-598h150q307 0 417 173q89 139 89 454q0 340 -130 485q-127 142 -407 142h-119z" />
    <glyph glyph-name="Ntilde" unicode="&#xd1;" horiz-adv-x="1075" 
d="M963 1434v-1434h-71l-671 1209h-4v-1209h-94v1434h82l660 -1188h4v1188h94zM678 1700h91q-4 -76 -42.5 -120t-101.5 -44q-40 0 -88 41q-39 33 -65 33q-49 0 -64 -74h-90q6 72 46 118t97 46q45 0 92 -42q36 -32 62 -32q54 0 63 74z" />
    <glyph glyph-name="Ograve" unicode="&#xd2;" horiz-adv-x="1147" 
d="M571 -20q-259 0 -380 194q-109 176 -109 516q0 423 141 608q119 156 348 156q268 0 387 -206q107 -185 107 -558q0 -389 -142 -562q-121 -148 -352 -148zM571 74q392 0 392 616q0 670 -392 670q-387 0 -387 -670q0 -616 387 -616zM346 1724h164l123 -188h-103z" />
    <glyph glyph-name="Oacute" unicode="&#xd3;" horiz-adv-x="1147" 
d="M571 -20q-259 0 -380 194q-109 176 -109 516q0 423 141 608q119 156 348 156q268 0 387 -206q107 -185 107 -558q0 -389 -142 -562q-121 -148 -352 -148zM571 74q392 0 392 616q0 670 -392 670q-387 0 -387 -670q0 -616 387 -616zM633 1724h164l-185 -188h-102z" />
    <glyph glyph-name="Ocircumflex" unicode="&#xd4;" horiz-adv-x="1147" 
d="M571 -20q-259 0 -380 194q-109 176 -109 516q0 423 141 608q119 156 348 156q268 0 387 -206q107 -185 107 -558q0 -389 -142 -562q-121 -148 -352 -148zM571 74q392 0 392 616q0 670 -392 670q-387 0 -387 -670q0 -616 387 -616zM512 1724h121l166 -188h-93l-133 114
l-133 -114h-92z" />
    <glyph glyph-name="Otilde" unicode="&#xd5;" horiz-adv-x="1147" 
d="M571 -20q-259 0 -380 194q-109 176 -109 516q0 423 141 608q119 156 348 156q268 0 387 -206q107 -185 107 -558q0 -389 -142 -562q-121 -148 -352 -148zM571 74q392 0 392 616q0 670 -392 670q-387 0 -387 -670q0 -616 387 -616zM708 1700h91q-4 -76 -42.5 -120
t-101.5 -44q-40 0 -88 41q-39 33 -65 33q-49 0 -64 -74h-90q6 72 46 118t97 46q45 0 92 -42q36 -32 62 -32q54 0 63 74z" />
    <glyph glyph-name="Odieresis" unicode="&#xd6;" horiz-adv-x="1147" 
d="M571 -20q-259 0 -380 194q-109 176 -109 516q0 423 141 608q119 156 348 156q268 0 387 -206q107 -185 107 -558q0 -389 -142 -562q-121 -148 -352 -148zM571 74q392 0 392 616q0 670 -392 670q-387 0 -387 -670q0 -616 387 -616zM779 1689v-143h-106v143h106zM475 1689
v-143h-106v143h106z" />
    <glyph glyph-name="multiply" unicode="&#xd7;" horiz-adv-x="1065" 
d="M139 1042l61 62l332 -332l332 332l61 -62l-331 -331l331 -332l-61 -62l-332 332l-332 -332l-61 62l332 332z" />
    <glyph glyph-name="Oslash" unicode="&#xd8;" horiz-adv-x="1147" 
d="M571 -20q-205 0 -323 120l-90 -147l-76 47l106 176q-106 176 -106 514q0 423 141 608q119 156 348 156q209 0 326 -122l92 149l76 -47l-111 -180q111 -188 111 -563q0 -390 -142 -563q-121 -148 -352 -148zM572 74q391 0 391 616q0 285 -76 455l-582 -952
q94 -119 267 -119zM184 690q0 -262 68 -409l584 952q-96 127 -265 127q-387 0 -387 -670z" />
    <glyph glyph-name="Ugrave" unicode="&#xd9;" horiz-adv-x="1106" 
d="M225 1434v-910q0 -216 64 -322q77 -128 254 -128q213 0 290 162q48 101 48 288v910h102v-881q0 -303 -92 -431q-103 -142 -348 -142q-259 0 -354 184q-66 129 -66 389v881h102zM336 1724h164l123 -188h-103z" />
    <glyph glyph-name="Uacute" unicode="&#xda;" horiz-adv-x="1106" 
d="M225 1434v-910q0 -216 64 -322q77 -128 254 -128q213 0 290 162q48 101 48 288v910h102v-881q0 -303 -92 -431q-103 -142 -348 -142q-259 0 -354 184q-66 129 -66 389v881h102zM592 1724h164l-185 -188h-102z" />
    <glyph glyph-name="Ucircumflex" unicode="&#xdb;" horiz-adv-x="1106" 
d="M225 1434v-910q0 -216 64 -322q77 -128 254 -128q213 0 290 162q48 101 48 288v910h102v-881q0 -303 -92 -431q-103 -142 -348 -142q-259 0 -354 184q-66 129 -66 389v881h102zM492 1724h121l166 -188h-93l-133 114l-133 -114h-92z" />
    <glyph glyph-name="Udieresis" unicode="&#xdc;" horiz-adv-x="1106" 
d="M225 1434v-910q0 -216 64 -322q77 -128 254 -128q213 0 290 162q48 101 48 288v910h102v-881q0 -303 -92 -431q-103 -142 -348 -142q-259 0 -354 184q-66 129 -66 389v881h102zM764 1679v-143h-106v143h106zM460 1679v-143h-106v143h106z" />
    <glyph glyph-name="Yacute" unicode="&#xdd;" horiz-adv-x="1004" 
d="M502 711l354 723h106l-411 -828v-606h-102v606l-408 828h106l351 -723h4zM571 1724h164l-185 -188h-102z" />
    <glyph glyph-name="Thorn" unicode="&#xde;" horiz-adv-x="1004" 
d="M123 1343h102v-268h203q493 0 493 -408q0 -223 -142 -320q-117 -79 -335 -79h-219v-268h-102v1343zM225 358h217q209 0 293 72t84 237q0 209 -135 276q-86 42 -277 42h-182v-627z" />
    <glyph glyph-name="germandbls" unicode="&#xdf;" horiz-adv-x="983" 
d="M901 361q0 -181 -142 -287q-125 -94 -317 -94h-92v86h92q169 0 268 84q93 79 93 211q0 172 -111 259q-98 77 -274 77h-68v86h66q307 0 307 294q0 141 -78 221q-68 70 -176 70q-127 0 -193 -92q-55 -77 -55 -200v-1076h-98v1076q0 177 96 280q91 98 250 98q185 0 278 -124
q74 -98 74 -253q0 -258 -209 -329v-4q148 -30 223 -137q66 -96 66 -246z" />
    <glyph glyph-name="agrave" unicode="&#xe0;" horiz-adv-x="901" 
d="M451 958q-100 0 -158 -44.5t-86 -143.5l-92 25q51 144 142 202q75 47 194 47q327 0 327 -358v-686h-78l-20 135h-4q-93 -155 -287 -155q-161 0 -242 91q-65 74 -65 196q0 114 82 189q70 63 225 122l291 108v21q0 251 -229 251zM680 406v182l-291 -109q-209 -76 -209 -212
q0 -98 67 -154q57 -47 142 -47q149 0 229 120q62 92 62 220zM277 1368h164l123 -188h-103z" />
    <glyph glyph-name="aacute" unicode="&#xe1;" horiz-adv-x="901" 
d="M451 958q-100 0 -158 -44.5t-86 -143.5l-92 25q51 144 142 202q75 47 194 47q327 0 327 -358v-686h-78l-20 135h-4q-93 -155 -287 -155q-161 0 -242 91q-65 74 -65 196q0 114 82 189q70 63 225 122l291 108v21q0 251 -229 251zM680 406v182l-291 -109q-209 -76 -209 -212
q0 -98 67 -154q57 -47 142 -47q149 0 229 120q62 92 62 220zM502 1368h164l-185 -188h-102z" />
    <glyph glyph-name="acircumflex" unicode="&#xe2;" horiz-adv-x="901" 
d="M451 958q-100 0 -158 -44.5t-86 -143.5l-92 25q51 144 142 202q75 47 194 47q327 0 327 -358v-686h-78l-20 135h-4q-93 -155 -287 -155q-161 0 -242 91q-65 74 -65 196q0 114 82 189q70 63 225 122l291 108v21q0 251 -229 251zM680 406v182l-291 -109q-209 -76 -209 -212
q0 -98 67 -154q57 -47 142 -47q149 0 229 120q62 92 62 220zM389 1368h121l166 -188h-93l-133 114l-133 -114h-92z" />
    <glyph glyph-name="atilde" unicode="&#xe3;" horiz-adv-x="901" 
d="M451 958q-100 0 -158 -44.5t-86 -143.5l-92 25q51 144 142 202q75 47 194 47q327 0 327 -358v-686h-78l-20 135h-4q-93 -155 -287 -155q-161 0 -242 91q-65 74 -65 196q0 114 82 189q70 63 225 122l291 108v21q0 251 -229 251zM680 406v182l-291 -109q-209 -76 -209 -212
q0 -98 67 -154q57 -47 142 -47q149 0 229 120q62 92 62 220zM581 1343h91q-4 -76 -42.5 -119.5t-101.5 -43.5q-41 0 -88 40q-39 33 -65 33q-49 0 -64 -73h-90q6 71 46 117t97 46q45 0 92 -41q36 -32 62 -32q54 0 63 73z" />
    <glyph glyph-name="adieresis" unicode="&#xe4;" horiz-adv-x="901" 
d="M451 958q-100 0 -158 -44.5t-86 -143.5l-92 25q51 144 142 202q75 47 194 47q327 0 327 -358v-686h-78l-20 135h-4q-93 -155 -287 -155q-161 0 -242 91q-65 74 -65 196q0 114 82 189q70 63 225 122l291 108v21q0 251 -229 251zM680 406v182l-291 -109q-209 -76 -209 -212
q0 -98 67 -154q57 -47 142 -47q149 0 229 120q62 92 62 220zM656 1368v-143h-106v143h106zM352 1368v-143h-106v143h106z" />
    <glyph glyph-name="aring" unicode="&#xe5;" horiz-adv-x="901" 
d="M451 958q-100 0 -158 -44.5t-86 -143.5l-92 25q51 144 142 202q75 47 194 47q327 0 327 -358v-686h-78l-20 135h-4q-93 -155 -287 -155q-161 0 -242 91q-65 74 -65 196q0 114 82 189q70 63 225 122l291 108v21q0 251 -229 251zM680 406v182l-291 -109q-209 -76 -209 -212
q0 -98 67 -154q57 -47 142 -47q149 0 229 120q62 92 62 220zM287 1330q0 72 54 121q47 42 110 42q72 0 121 -54q42 -47 42 -109q0 -73 -54 -122q-47 -42 -109 -42q-73 0 -122 54q-42 47 -42 110zM359 1330q0 -37 27.5 -64.5t64.5 -27.5q36 0 63.5 27.5t27.5 64.5
q0 36 -27.5 63.5t-63.5 27.5q-37 0 -64.5 -27.5t-27.5 -63.5z" />
    <glyph glyph-name="ae" unicode="&#xe6;" horiz-adv-x="1556" 
d="M1085 66q117 0 187.5 50t105.5 158l84 -16q-49 -149 -139 -213q-89 -65 -238 -65q-232 0 -330 225h-4q-70 -133 -168 -184q-78 -41 -194 -41q-161 0 -242 91q-65 74 -65 196q0 120 79 196q74 71 228 114l311 88v41q0 121 -81 192q-69 60 -169 60q-190 0 -244 -188l-92 24
q88 250 336 250q244 0 315 -198h5q102 198 315 198q197 0 298 -160q89 -142 89 -389v-30h-678q8 -208 94 -311q74 -88 197 -88zM700 387v180l-311 -88q-209 -57 -209 -212q0 -98 67 -154q56 -47 142 -47q150 0 240 116q71 90 71 205zM1085 958q-262 0 -289 -395h578
q-32 395 -289 395z" />
    <glyph glyph-name="ccedilla" unicode="&#xe7;" horiz-adv-x="860" 
d="M266 -315l37 51q64 -51 132 -51q42 0 70 23.5t28 58.5t-28 57.5t-71 22.5q-34 0 -63 -17l-17 10l82 142q-184 12 -277 174q-77 135 -77 348q0 267 113 411q101 129 276 129q127 0 202 -67.5t126 -226.5l-88 -17q-65 225 -240 225q-155 0 -230 -144q-61 -116 -61 -310
q0 -224 83 -337q74 -101 208 -101q173 0 240 198l84 -16q-40 -131 -106 -192q-64 -61 -169 -72l-49 -82l2 -2q17 4 31 4q57 0 94 -39t37 -98q0 -66 -50 -107t-130 -41q-106 0 -189 66z" />
    <glyph glyph-name="egrave" unicode="&#xe8;" 
d="M471 66q117 0 187.5 50t105.5 158l84 -16q-49 -149 -138 -213q-90 -65 -239 -65q-195 0 -300 161q-89 138 -89 363q0 271 116 414q102 126 273 126q198 0 299 -160q89 -142 89 -389q0 -15 -1 -30h-678q8 -208 94 -311q74 -88 197 -88zM471 958q-262 0 -289 -395h578
q-32 395 -289 395zM287 1368h164l123 -188h-103z" />
    <glyph glyph-name="eacute" unicode="&#xe9;" 
d="M471 66q117 0 187.5 50t105.5 158l84 -16q-49 -149 -138 -213q-90 -65 -239 -65q-195 0 -300 161q-89 138 -89 363q0 271 116 414q102 126 273 126q198 0 299 -160q89 -142 89 -389q0 -15 -1 -30h-678q8 -208 94 -311q74 -88 197 -88zM471 958q-262 0 -289 -395h578
q-32 395 -289 395zM533 1368h164l-185 -188h-102z" />
    <glyph glyph-name="ecircumflex" unicode="&#xea;" 
d="M471 66q117 0 187.5 50t105.5 158l84 -16q-49 -149 -138 -213q-90 -65 -239 -65q-195 0 -300 161q-89 138 -89 363q0 271 116 414q102 126 273 126q198 0 299 -160q89 -142 89 -389q0 -15 -1 -30h-678q8 -208 94 -311q74 -88 197 -88zM471 958q-262 0 -289 -395h578
q-32 395 -289 395zM410 1368h121l166 -188h-93l-133 114l-133 -114h-92z" />
    <glyph glyph-name="edieresis" unicode="&#xeb;" 
d="M471 66q117 0 187.5 50t105.5 158l84 -16q-49 -149 -138 -213q-90 -65 -239 -65q-195 0 -300 161q-89 138 -89 363q0 271 116 414q102 126 273 126q198 0 299 -160q89 -142 89 -389q0 -15 -1 -30h-678q8 -208 94 -311q74 -88 197 -88zM471 958q-262 0 -289 -395h578
q-32 395 -289 395zM687 1368v-143h-106v143h106zM383 1368v-143h-106v143h106z" />
    <glyph glyph-name="igrave" unicode="&#xec;" horiz-adv-x="348" 
d="M223 1024v-1024h-98v1024h98zM-43 1368h164l123 -188h-103z" />
    <glyph glyph-name="iacute" unicode="&#xed;" horiz-adv-x="348" 
d="M223 1024v-1024h-98v1024h98zM225 1368h164l-185 -188h-102z" />
    <glyph glyph-name="icircumflex" unicode="&#xee;" horiz-adv-x="348" 
d="M223 1024v-1024h-98v1024h98zM113 1368h121l166 -188h-93l-133 114l-133 -114h-92z" />
    <glyph glyph-name="idieresis" unicode="&#xef;" horiz-adv-x="348" 
d="M223 1024v-1024h-98v1024h98zM379 1368v-143h-106v143h106zM75 1368v-143h-106v143h106z" />
    <glyph glyph-name="eth" unicode="&#xf0;" 
d="M283 1061l-56 68l144 108q-82 82 -178 152l57 65q98 -61 205 -153l133 102l53 -71l-121 -93q340 -331 340 -776q0 -220 -111 -355q-105 -128 -278 -128q-197 0 -304 163q-85 130 -85 320q0 231 112 368q105 128 277 128q78 0 129 -23l4 4q-45 100 -172 234zM471 873
q-163 0 -236 -138q-55 -103 -55 -272q0 -189 83 -297q76 -100 208 -100q150 0 228 129q63 104 63 268q0 199 -74 304q-74 106 -217 106z" />
    <glyph glyph-name="ntilde" unicode="&#xf1;" horiz-adv-x="922" 
d="M799 657v-657h-98v657q0 153 -42 221q-50 80 -167 80q-86 0 -159 -63.5t-112 -171.5v-723h-98v1024h78l20 -135h4q87 155 267 155q184 0 254 -118q53 -89 53 -269zM585 1343h91q-4 -76 -42.5 -119.5t-101.5 -43.5q-41 0 -88 40q-39 33 -65 33q-49 0 -64 -73h-90
q6 71 46 117t97 46q45 0 92 -41q36 -32 62 -32q54 0 63 73z" />
    <glyph glyph-name="ograve" unicode="&#xf2;" 
d="M471 -20q-201 0 -304 166q-85 137 -85 358q0 268 113 411q101 129 276 129q200 0 302 -167q87 -140 87 -373q0 -256 -111 -396q-102 -128 -278 -128zM471 958q-162 0 -236 -158q-55 -115 -55 -296q0 -212 76 -326q75 -112 215 -112q160 0 234 144q57 110 57 294
q0 210 -74 330q-75 124 -217 124zM287 1368h164l123 -188h-103z" />
    <glyph glyph-name="oacute" unicode="&#xf3;" 
d="M471 -20q-201 0 -304 166q-85 137 -85 358q0 268 113 411q101 129 276 129q200 0 302 -167q87 -140 87 -373q0 -256 -111 -396q-102 -128 -278 -128zM471 958q-162 0 -236 -158q-55 -115 -55 -296q0 -212 76 -326q75 -112 215 -112q160 0 234 144q57 110 57 294
q0 210 -74 330q-75 124 -217 124zM512 1368h164l-185 -188h-102z" />
    <glyph glyph-name="ocircumflex" unicode="&#xf4;" 
d="M471 -20q-201 0 -304 166q-85 137 -85 358q0 268 113 411q101 129 276 129q200 0 302 -167q87 -140 87 -373q0 -256 -111 -396q-102 -128 -278 -128zM471 958q-162 0 -236 -158q-55 -115 -55 -296q0 -212 76 -326q75 -112 215 -112q160 0 234 144q57 110 57 294
q0 210 -74 330q-75 124 -217 124zM410 1368h121l166 -188h-93l-133 114l-133 -114h-92z" />
    <glyph glyph-name="otilde" unicode="&#xf5;" 
d="M471 -20q-201 0 -304 166q-85 137 -85 358q0 268 113 411q101 129 276 129q200 0 302 -167q87 -140 87 -373q0 -256 -111 -396q-102 -128 -278 -128zM471 958q-162 0 -236 -158q-55 -115 -55 -296q0 -212 76 -326q75 -112 215 -112q160 0 234 144q57 110 57 294
q0 210 -74 330q-75 124 -217 124zM610 1343h91q-4 -76 -42.5 -119.5t-101.5 -43.5q-41 0 -88 40q-39 33 -65 33q-49 0 -64 -73h-90q6 71 46 117t97 46q45 0 92 -41q36 -32 62 -32q54 0 63 73z" />
    <glyph glyph-name="odieresis" unicode="&#xf6;" 
d="M471 -20q-201 0 -304 166q-85 137 -85 358q0 268 113 411q101 129 276 129q200 0 302 -167q87 -140 87 -373q0 -256 -111 -396q-102 -128 -278 -128zM471 958q-162 0 -236 -158q-55 -115 -55 -296q0 -212 76 -326q75 -112 215 -112q160 0 234 144q57 110 57 294
q0 210 -74 330q-75 124 -217 124zM687 1368v-143h-106v143h106zM383 1368v-143h-106v143h106z" />
    <glyph glyph-name="divide" unicode="&#xf7;" horiz-adv-x="1065" 
d="M102 664v94h860v-94h-860zM585 403v-143h-106v143h106zM585 1161v-143h-106v143h106z" />
    <glyph glyph-name="oslash" unicode="&#xf8;" 
d="M471 -20q-150 0 -248 94l-78 -119l-63 45l90 135q-90 140 -90 369q0 267 113 411q101 129 276 129q147 0 246 -96l80 121l63 -45l-92 -139q92 -143 92 -381q0 -256 -111 -396q-102 -128 -278 -128zM762 504q0 174 -53 293l-432 -645q70 -86 194 -86q161 0 234 144
q57 110 57 294zM471 958q-162 0 -236 -158q-55 -115 -55 -296q0 -170 52 -281l432 645q-74 90 -193 90z" />
    <glyph glyph-name="ugrave" unicode="&#xf9;" horiz-adv-x="922" 
d="M123 367v657h98v-657q0 -153 42 -221q50 -80 167 -80q95 0 165 66t106 190v702h98v-1024h-78l-20 135h-4q-87 -155 -267 -155q-184 0 -254 118q-53 89 -53 269zM277 1368h164l123 -188h-103z" />
    <glyph glyph-name="uacute" unicode="&#xfa;" horiz-adv-x="922" 
d="M123 367v657h98v-657q0 -153 42 -221q50 -80 167 -80q95 0 165 66t106 190v702h98v-1024h-78l-20 135h-4q-87 -155 -267 -155q-184 0 -254 118q-53 89 -53 269zM522 1368h164l-185 -188h-102z" />
    <glyph glyph-name="ucircumflex" unicode="&#xfb;" horiz-adv-x="922" 
d="M123 367v657h98v-657q0 -153 42 -221q50 -80 167 -80q95 0 165 66t106 190v702h98v-1024h-78l-20 135h-4q-87 -155 -267 -155q-184 0 -254 118q-53 89 -53 269zM400 1368h121l166 -188h-93l-133 114l-133 -114h-92z" />
    <glyph glyph-name="udieresis" unicode="&#xfc;" horiz-adv-x="922" 
d="M123 367v657h98v-657q0 -153 42 -221q50 -80 167 -80q95 0 165 66t106 190v702h98v-1024h-78l-20 135h-4q-87 -155 -267 -155q-184 0 -254 118q-53 89 -53 269zM676 1368v-143h-106v143h106zM372 1368v-143h-106v143h106z" />
    <glyph glyph-name="yacute" unicode="&#xfd;" horiz-adv-x="860" 
d="M819 1024l-348 -1024q-82 -228 -125 -289q-65 -92 -172 -92h-82v88h82q68 0 116 74q39 60 99 219l-348 1024h102l285 -868h4l285 868h102zM488 1368h164l-185 -188h-102z" />
    <glyph glyph-name="thorn" unicode="&#xfe;" 
d="M123 -369v1803h98v-545h4q41 74 110.5 115t155.5 41q195 0 291 -167q78 -135 78 -356q0 -264 -102 -408q-96 -135 -267 -135q-168 0 -266 140h-4v-488h-98zM492 65q130 0 204 136q66 122 66 321q0 221 -85 338q-72 99 -185 99q-120 0 -199 -113q-72 -101 -72 -248v-297
q43 -120 125 -183q68 -53 146 -53z" />
    <glyph glyph-name="ydieresis" unicode="&#xff;" horiz-adv-x="860" 
d="M819 1024l-348 -1024q-82 -228 -125 -289q-65 -92 -172 -92h-82v88h82q68 0 116 74q39 60 99 219l-348 1024h102l285 -868h4l285 868h102zM635 1368v-143h-106v143h106zM331 1368v-143h-106v143h106z" />
    <glyph glyph-name="Amacron" unicode="&#x100;" horiz-adv-x="1044" 
d="M287 483l-148 -483h-98l440 1434h82l441 -1434h-99l-147 483h-471zM315 573h414l-205 681h-4zM744 1647v-90h-451v90h451z" />
    <glyph glyph-name="amacron" unicode="&#x101;" horiz-adv-x="901" 
d="M451 958q-100 0 -158 -44.5t-86 -143.5l-92 25q51 144 142 202q75 47 194 47q327 0 327 -358v-686h-78l-20 135h-4q-93 -155 -287 -155q-161 0 -242 91q-65 74 -65 196q0 114 82 189q70 63 225 122l291 108v21q0 251 -229 251zM680 406v182l-291 -109q-209 -76 -209 -212
q0 -98 67 -154q57 -47 142 -47q149 0 229 120q62 92 62 220zM666 1311v-90h-451v90h451z" />
    <glyph glyph-name="Abreve" unicode="&#x102;" horiz-adv-x="1044" 
d="M287 483l-148 -483h-98l440 1434h82l441 -1434h-99l-147 483h-471zM315 573h414l-205 681h-4zM655 1711h89q-20 -98 -90 -151q-59 -44 -136 -44q-85 0 -150 58q-58 53 -75 137h86q11 -46 49.5 -74.5t89.5 -28.5q52 0 91 29t46 74z" />
    <glyph glyph-name="abreve" unicode="&#x103;" horiz-adv-x="901" 
d="M451 958q-100 0 -158 -44.5t-86 -143.5l-92 25q51 144 142 202q75 47 194 47q327 0 327 -358v-686h-78l-20 135h-4q-93 -155 -287 -155q-161 0 -242 91q-65 74 -65 196q0 114 82 189q70 63 225 122l291 108v21q0 251 -229 251zM680 406v182l-291 -109q-209 -76 -209 -212
q0 -98 67 -154q57 -47 142 -47q149 0 229 120q62 92 62 220zM577 1368h89q-20 -98 -90 -151q-59 -44 -136 -44q-85 0 -150 58q-58 53 -75 137h86q11 -46 49.5 -74.5t89.5 -28.5q52 0 91 29t46 74z" />
    <glyph glyph-name="Aogonek" unicode="&#x104;" horiz-adv-x="1044" 
d="M971 -299q74 0 129 45l49 -53q-64 -74 -178 -74q-106 0 -163 54q-48 45 -48 118q0 63 34 112t111 97l-147 483h-471l-148 -483h-98l440 1434h82l441 -1434h-15q-127 -104 -127 -197q0 -46 30 -74t79 -28zM315 573h414l-205 681h-4z" />
    <glyph glyph-name="aogonek" unicode="&#x105;" horiz-adv-x="901" 
d="M759 -299q74 0 130 45l49 -53q-64 -74 -178 -74q-107 0 -163 54q-48 45 -48 118q0 63 34 112t111 97h6l-20 135h-4q-93 -155 -287 -155q-161 0 -242 91q-65 74 -65 196q0 114 82 189q70 63 225 122l291 108v21q0 251 -229 251q-100 0 -158 -44.5t-86 -143.5l-92 25
q51 144 142 202q75 47 194 47q327 0 327 -358v-686q-127 -104 -127 -197q0 -46 29.5 -74t78.5 -28zM680 406v182l-291 -109q-209 -76 -209 -212q0 -98 67 -154q57 -47 142 -47q149 0 229 120q62 92 62 220z" />
    <glyph glyph-name="Cacute" unicode="&#x106;" horiz-adv-x="1085" 
d="M569 -20q-487 0 -487 710q0 423 141 608q119 156 348 156q168 0 268 -93q77 -71 144 -226l-90 -35q-54 137 -127 197q-77 63 -195 63q-387 0 -387 -670q0 -616 385 -616q255 0 340 287l95 -35q-105 -346 -435 -346zM615 1724h164l-185 -188h-102z" />
    <glyph glyph-name="cacute" unicode="&#x107;" horiz-adv-x="860" 
d="M711 264l84 -16q-44 -144 -120 -206q-77 -62 -204 -62q-201 0 -304 164q-85 137 -85 360q0 268 113 411q101 129 276 129q127 0 202 -67.5t126 -226.5l-88 -17q-65 225 -240 225q-155 0 -230 -144q-61 -116 -61 -310q0 -224 83 -337q74 -101 208 -101q173 0 240 198z
M516 1368h164l-185 -188h-102z" />
    <glyph glyph-name="Ccaron" unicode="&#x10c;" horiz-adv-x="1085" 
d="M569 -20q-487 0 -487 710q0 423 141 608q119 156 348 156q168 0 268 -93q77 -71 144 -226l-90 -35q-54 137 -127 197q-77 63 -195 63q-387 0 -387 -670q0 -616 385 -616q255 0 340 287l95 -35q-105 -346 -435 -346zM635 1536h-121l-164 188h92l133 -114l133 114h93z" />
    <glyph glyph-name="ccaron" unicode="&#x10d;" horiz-adv-x="860" 
d="M711 264l84 -16q-44 -144 -120 -206q-77 -62 -204 -62q-201 0 -304 164q-85 137 -85 360q0 268 113 411q101 129 276 129q127 0 202 -67.5t126 -226.5l-88 -17q-65 225 -240 225q-155 0 -230 -144q-61 -116 -61 -310q0 -224 83 -337q74 -101 208 -101q173 0 240 198z
M533 1180h-121l-164 188h92l133 -114l133 114h93z" />
    <glyph glyph-name="Dcaron" unicode="&#x10e;" horiz-adv-x="1065" 
d="M123 1434h231q354 0 500 -193q129 -169 129 -524q0 -426 -165 -586q-135 -131 -431 -131h-264v1434zM225 1344v-1254h149q308 0 418 173q89 139 89 454q0 340 -130 485q-127 142 -407 142h-119zM541 1536h-121l-164 188h92l133 -114l133 114h93z" />
    <glyph glyph-name="dcaron" unicode="&#x10f;" horiz-adv-x="983" 
d="M819 1434v-1434h-78l-20 135h-4q-41 -74 -110.5 -114.5t-155.5 -40.5q-194 0 -291 172q-78 139 -78 361q0 262 102 402q96 130 267 130q180 0 266 -156h4v545h98zM451 959q-132 0 -205 -131q-66 -118 -66 -315q0 -222 85 -344q72 -103 186 -103q118 0 198 107
q72 96 72 233v317q-43 120 -125 183q-68 53 -145 53zM1028 1434v-143l-45 -123h-41l31 123h-51v143h106z" />
    <glyph glyph-name="Dcroat" unicode="&#x110;" horiz-adv-x="1065" 
d="M0 688v90h123v656h231q354 0 500 -193q129 -170 129 -524q0 -426 -165 -586q-135 -131 -431 -131h-264v688h-123zM225 1344v-566h226v-90h-226v-598h150q307 0 417 173q89 139 89 454q0 340 -130 485q-127 142 -407 142h-119z" />
    <glyph glyph-name="dcroat" unicode="&#x111;" 
d="M860 1434v-152h123v-86h-123v-1196h-78l-20 135h-4q-41 -74 -110.5 -114.5t-155.5 -40.5q-195 0 -291 166q-78 135 -78 356q0 263 102 407q96 135 267 135q168 0 266 -139h4v291h-205v86h205v152h98zM491 958q-130 0 -204 -136q-66 -122 -66 -320q0 -220 85 -338
q72 -98 185 -98q119 0 199 112q72 102 72 248v297q-43 120 -125 183q-68 52 -146 52z" />
    <glyph glyph-name="Emacron" unicode="&#x112;" horiz-adv-x="922" 
d="M123 1434h696v-90h-594v-545h471v-90h-471v-619h615v-90h-717v1434zM697 1647v-90h-451v90h451z" />
    <glyph glyph-name="emacron" unicode="&#x113;" 
d="M471 66q117 0 187.5 50t105.5 158l84 -16q-49 -149 -138 -213q-90 -65 -239 -65q-195 0 -300 161q-89 138 -89 363q0 271 116 414q102 126 273 126q198 0 299 -160q89 -142 89 -389q0 -15 -1 -30h-678q8 -208 94 -311q74 -88 197 -88zM471 958q-262 0 -289 -395h578
q-32 395 -289 395zM701 1311v-90h-451v90h451z" />
    <glyph glyph-name="Edotaccent" unicode="&#x116;" horiz-adv-x="922" 
d="M123 1434h696v-90h-594v-545h471v-90h-471v-619h615v-90h-717v1434zM524 1679v-143h-106v143h106z" />
    <glyph glyph-name="edotaccent" unicode="&#x117;" 
d="M471 66q117 0 187.5 50t105.5 158l84 -16q-49 -149 -138 -213q-90 -65 -239 -65q-195 0 -300 161q-89 138 -89 363q0 271 116 414q102 126 273 126q198 0 299 -160q89 -142 89 -389q0 -15 -1 -30h-678q8 -208 94 -311q74 -88 197 -88zM471 958q-262 0 -289 -395h578
q-32 395 -289 395zM528 1368v-143h-106v143h106z" />
    <glyph glyph-name="Eogonek" unicode="&#x118;" horiz-adv-x="922" 
d="M821 -299q74 0 130 45l49 -53q-64 -74 -179 -74q-106 0 -163 54q-48 45 -48 118q0 63 34 112t111 97h-632v1434h696v-90h-594v-545h471v-90h-471v-619h615v-90q-128 -104 -128 -197q0 -46 30 -74t79 -28z" />
    <glyph glyph-name="eogonek" unicode="&#x119;" 
d="M518 -299q74 0 129 45l49 -53q-63 -74 -178 -74q-106 0 -163 54q-48 45 -48 118q0 110 117 191q-173 19 -264 176q-78 136 -78 346q0 271 116 414q102 126 273 126q198 0 299 -160q89 -142 89 -389q0 -15 -1 -30h-678q8 -208 94 -311q74 -88 197 -88q117 0 187.5 50
t105.5 159l84 -17q-45 -139 -126 -203q-78 -64 -208 -73q-105 -92 -105 -179q0 -46 30 -74t79 -28zM471 958q-262 0 -289 -395h578q-32 395 -289 395z" />
    <glyph glyph-name="Ecaron" unicode="&#x11a;" horiz-adv-x="922" 
d="M123 1434h696v-90h-594v-545h471v-90h-471v-619h615v-90h-717v1434zM531 1536h-121l-164 188h92l133 -114l133 114h93z" />
    <glyph glyph-name="ecaron" unicode="&#x11b;" 
d="M471 66q117 0 187.5 50t105.5 158l84 -16q-49 -149 -138 -213q-90 -65 -239 -65q-195 0 -300 161q-89 138 -89 363q0 271 116 414q102 126 273 126q198 0 299 -160q89 -142 89 -389q0 -15 -1 -30h-678q8 -208 94 -311q74 -88 197 -88zM471 958q-262 0 -289 -395h578
q-32 395 -289 395zM525 1180h-121l-164 188h92l133 -114l133 114h93z" />
    <glyph glyph-name="Gbreve" unicode="&#x11e;" horiz-adv-x="1085" 
d="M569 74q157 0 247 104q86 99 86 269v139h-316v90h418v-676h-78l-20 148h-4q-65 -89 -143 -128.5t-189 -39.5q-488 0 -488 710q0 423 141 608q119 156 349 156q167 0 267 -93q77 -71 145 -226l-90 -35q-55 137 -128 197q-77 63 -195 63q-387 0 -387 -670q0 -616 385 -616z
M700 1731h89q-20 -98 -90 -151q-59 -44 -136 -44q-85 0 -150 58q-58 53 -75 137h86q11 -46 49.5 -74.5t89.5 -28.5q52 0 91 29t46 74z" />
    <glyph glyph-name="gbreve" unicode="&#x11f;" 
d="M819 1024v-1044q0 -214 -119 -310q-89 -71 -239 -71q-138 0 -234 71q-93 68 -125 191l89 24q21 -97 103 -152q71 -48 167 -48q105 0 179 64q81 71 81 198v229h-4q-93 -156 -266 -156q-193 0 -291 167q-78 134 -78 345q0 239 102 379q98 133 267 133q86 0 155.5 -40.5
t110.5 -114.5h4l20 135h78zM451 958q-130 0 -205 -129q-66 -114 -66 -297q0 -201 85 -321q74 -105 186 -105q119 0 198 106q72 96 72 234v277q-43 120 -125 183q-68 52 -145 52zM612 1368h89q-20 -98 -90 -151q-59 -44 -136 -44q-85 0 -150 58q-58 53 -75 137h86
q11 -46 49.5 -74.5t89.5 -28.5q52 0 91 29t46 74z" />
    <glyph glyph-name="Gcommaaccent" unicode="&#x122;" horiz-adv-x="1085" 
d="M569 74q157 0 247 104q86 99 86 269v139h-316v90h418v-676h-78l-20 148h-4q-65 -89 -143 -128.5t-189 -39.5q-488 0 -488 710q0 423 141 608q119 156 349 156q167 0 267 -93q77 -71 145 -226l-90 -35q-55 137 -128 197q-77 63 -195 63q-387 0 -387 -670q0 -616 385 -616z
M632 -135v-143l-45 -123h-41l31 123h-51v143h106z" />
    <glyph glyph-name="gcommaaccent" unicode="&#x123;" 
d="M819 1024v-1044q0 -214 -119 -310q-89 -71 -239 -71q-138 0 -234 71q-93 68 -125 191l89 24q21 -97 103 -152q71 -48 167 -48q105 0 179 64q81 71 81 198v229h-4q-93 -156 -266 -156q-193 0 -291 167q-78 134 -78 345q0 239 102 379q98 133 267 133q86 0 155.5 -40.5
t110.5 -114.5h4l20 135h78zM451 958q-130 0 -205 -129q-66 -114 -66 -297q0 -201 85 -321q74 -105 186 -105q119 0 198 106q72 96 72 234v277q-43 120 -125 183q-68 52 -145 52zM426 1188v143l45 123h41l-31 -123h51v-143h-106z" />
    <glyph glyph-name="Imacron" unicode="&#x12a;" horiz-adv-x="348" 
d="M225 1434v-1434h-102v1434h102zM400 1647v-90h-451v90h451z" />
    <glyph glyph-name="imacron" unicode="&#x12b;" horiz-adv-x="348" 
d="M223 1024v-1024h-98v1024h98zM400 1311v-90h-451v90h451z" />
    <glyph glyph-name="Iogonek" unicode="&#x12e;" horiz-adv-x="348" 
d="M206 -299q74 0 130 45l49 -53q-64 -74 -178 -74q-107 0 -163 54q-48 45 -48 118q0 63 34 112t111 97h-18v1434h102v-1434q-127 -103 -127 -196q0 -47 29.5 -75t78.5 -28z" />
    <glyph glyph-name="iogonek" unicode="&#x12f;" horiz-adv-x="348" 
d="M204 -299q74 0 130 45l49 -53q-64 -74 -178 -74q-107 0 -163 54q-48 45 -48 118q0 63 34 112t111 97h-14v1024h98v-1024q-127 -104 -127 -197q0 -46 29.5 -74t78.5 -28zM227 1368v-143h-106v143h106z" />
    <glyph glyph-name="Idotaccent" unicode="&#x130;" horiz-adv-x="348" 
d="M225 1434v-1434h-102v1434h102zM227 1679v-143h-106v143h106z" />
    <glyph glyph-name="dotlessi" unicode="&#x131;" horiz-adv-x="348" 
d="M223 1024v-1024h-98v1024h98z" />
    <glyph glyph-name="Kcommaaccent" unicode="&#x136;" horiz-adv-x="1024" 
d="M454 744h-4l-225 -301v-443h-102v1434h102v-828h4l614 828h119l-446 -602l467 -832h-119zM544 -135v-143l-45 -123h-41l31 123h-51v143h106z" />
    <glyph glyph-name="kcommaaccent" unicode="&#x137;" horiz-adv-x="840" 
d="M221 1434v-955h4l426 545h107l-301 -383l342 -641h-103l-299 559h-4l-172 -221v-338h-98v1434h98zM483 -135v-143l-45 -123h-41l31 123h-51v143h106z" />
    <glyph glyph-name="Lacute" unicode="&#x139;" horiz-adv-x="799" 
d="M225 1434v-1344h533v-90h-635v1434h102zM246 1724h164l-185 -188h-102z" />
    <glyph glyph-name="lacute" unicode="&#x13a;" horiz-adv-x="348" 
d="M223 1434v-1434h-98v1434h98zM248 1724h164l-185 -188h-102z" />
    <glyph glyph-name="Lcommaaccent" unicode="&#x13b;" horiz-adv-x="799" 
d="M225 1434v-1344h533v-90h-635v1434h102zM503 -135v-143l-45 -123h-41l31 123h-51v143h106z" />
    <glyph glyph-name="lcommaaccent" unicode="&#x13c;" horiz-adv-x="348" 
d="M221 1434v-1434h-98v1434h98zM227 -135v-143l-45 -123h-41l31 123h-51v143h106z" />
    <glyph glyph-name="Lcaron" unicode="&#x13d;" horiz-adv-x="799" 
d="M225 1434v-1344h533v-90h-635v1434h102zM454 1434v-143l-45 -123h-41l31 123h-51v143h106z" />
    <glyph glyph-name="lcaron" unicode="&#x13e;" horiz-adv-x="389" 
d="M223 1434v-1434h-98v1434h98zM432 1434v-143l-45 -123h-41l31 123h-51v143h106z" />
    <glyph glyph-name="Lslash" unicode="&#x141;" horiz-adv-x="799" 
d="M225 1434v-649l205 174v-105l-205 -174v-590h533v-90h-635v594l-123 -105v105l123 105v735h102z" />
    <glyph glyph-name="lslash" unicode="&#x142;" horiz-adv-x="348" 
d="M223 1434v-651l125 106v-100l-125 -107v-682h-98v598l-125 -104v100l125 105v735h98z" />
    <glyph glyph-name="Nacute" unicode="&#x143;" horiz-adv-x="1085" 
d="M963 1434v-1434h-71l-671 1209h-4v-1209h-94v1434h82l660 -1188h4v1188h94zM594 1724h164l-185 -188h-102z" />
    <glyph glyph-name="nacute" unicode="&#x144;" horiz-adv-x="922" 
d="M799 657v-657h-98v657q0 153 -42 221q-50 80 -167 80q-86 0 -159 -63.5t-112 -171.5v-723h-98v1024h78l20 -135h4q87 155 267 155q184 0 254 -118q53 -89 53 -269zM522 1368h164l-185 -188h-102z" />
    <glyph glyph-name="Ncommaaccent" unicode="&#x145;" horiz-adv-x="1085" 
d="M963 1434v-1434h-71l-671 1209h-4v-1209h-94v1434h82l660 -1188h4v1188h94zM596 -135v-143l-45 -123h-41l31 123h-51v143h106z" />
    <glyph glyph-name="ncommaaccent" unicode="&#x146;" horiz-adv-x="922" 
d="M799 657v-657h-98v657q0 153 -42 221q-50 80 -167 80q-86 0 -159 -63.5t-112 -171.5v-723h-98v1024h78l20 -135h4q87 155 267 155q184 0 254 -118q53 -89 53 -269zM514 -135v-143l-45 -123h-41l31 123h-51v143h106z" />
    <glyph glyph-name="Ncaron" unicode="&#x147;" horiz-adv-x="1085" 
d="M963 1434v-1434h-71l-671 1209h-4v-1209h-94v1434h82l660 -1188h4v1188h94zM611 1536h-121l-164 188h92l133 -114l133 114h93z" />
    <glyph glyph-name="ncaron" unicode="&#x148;" horiz-adv-x="922" 
d="M799 657v-657h-98v657q0 153 -42 221q-50 80 -167 80q-86 0 -159 -63.5t-112 -171.5v-723h-98v1024h78l20 -135h4q87 155 267 155q184 0 254 -118q53 -89 53 -269zM521 1180h-121l-164 188h92l133 -114l133 114h93z" />
    <glyph glyph-name="Omacron" unicode="&#x14c;" horiz-adv-x="1147" 
d="M571 -20q-259 0 -380 194q-109 176 -109 516q0 423 141 608q119 156 348 156q268 0 387 -206q107 -185 107 -558q0 -389 -142 -562q-121 -148 -352 -148zM571 74q392 0 392 616q0 670 -392 670q-387 0 -387 -670q0 -616 387 -616zM799 1667v-90h-451v90h451z" />
    <glyph glyph-name="omacron" unicode="&#x14d;" 
d="M471 -20q-201 0 -304 166q-85 137 -85 358q0 268 113 411q101 129 276 129q200 0 302 -167q87 -140 87 -373q0 -256 -111 -396q-102 -128 -278 -128zM471 958q-162 0 -236 -158q-55 -115 -55 -296q0 -212 76 -326q75 -112 215 -112q160 0 234 144q57 110 57 294
q0 210 -74 330q-75 124 -217 124zM699 1311v-90h-451v90h451z" />
    <glyph glyph-name="Ohungarumlaut" unicode="&#x150;" horiz-adv-x="1147" 
d="M571 -20q-259 0 -380 194q-109 176 -109 516q0 423 141 608q119 156 348 156q268 0 387 -206q107 -185 107 -558q0 -389 -142 -562q-121 -148 -352 -148zM571 74q392 0 392 616q0 670 -392 670q-387 0 -387 -670q0 -616 387 -616zM512 1724h164l-185 -188h-102zM758 1724
h163l-184 -188h-102z" />
    <glyph glyph-name="ohungarumlaut" unicode="&#x151;" 
d="M471 -20q-201 0 -304 166q-85 137 -85 358q0 268 113 411q101 129 276 129q200 0 302 -167q87 -140 87 -373q0 -256 -111 -396q-102 -128 -278 -128zM471 958q-162 0 -236 -158q-55 -115 -55 -296q0 -212 76 -326q75 -112 215 -112q160 0 234 144q57 110 57 294
q0 210 -74 330q-75 124 -217 124zM383 1368h164l-185 -188h-102zM629 1368h163l-184 -188h-102z" />
    <glyph glyph-name="OE" unicode="&#x152;" horiz-adv-x="1638" 
d="M711 1434h825v-90h-594v-545h471v-90h-471v-619h615v-90h-879q-337 0 -470 176q-126 165 -126 541q0 404 170 571q148 146 459 146zM840 90v1254h-119q-317 0 -440 -185q-97 -145 -97 -442q0 -359 119 -495q115 -132 388 -132h149z" />
    <glyph glyph-name="oe" unicode="&#x153;" horiz-adv-x="1624" 
d="M1151 66q117 0 187.5 50t105.5 158l84 -16q-49 -149 -138 -213q-90 -65 -239 -65q-241 0 -338 239h-4q-95 -239 -338 -239q-201 0 -304 166q-85 137 -85 358q0 268 113 411q101 129 276 129q243 0 338 -245h4q97 245 338 245q197 0 298 -160q89 -142 89 -389v-30h-678
q8 -208 94 -311q74 -88 197 -88zM471 958q-162 0 -236 -158q-55 -115 -55 -296q0 -212 76 -326q75 -112 215 -112q160 0 234 144q57 110 57 294q0 210 -74 330q-75 124 -217 124zM1151 958q-262 0 -289 -395h578q-32 395 -289 395z" />
    <glyph glyph-name="Racute" unicode="&#x154;" horiz-adv-x="1004" 
d="M123 1434h305q493 0 493 -408q0 -348 -354 -393l375 -633h-119l-365 627h-233v-627h-102v1434zM225 717h217q208 0 293 72q84 72 84 237q0 209 -135 276q-86 42 -277 42h-182v-627zM522 1724h164l-185 -188h-102z" />
    <glyph glyph-name="racute" unicode="&#x155;" horiz-adv-x="573" 
d="M533 1044v-86h-41q-146 0 -217 -121q-54 -92 -54 -237v-600h-98v1024h78l20 -135h4q35 73 105.5 114t161.5 41h41zM359 1368h164l-185 -188h-102z" />
    <glyph glyph-name="Rcommaaccent" unicode="&#x156;" horiz-adv-x="1004" 
d="M123 1434h305q493 0 493 -408q0 -348 -354 -393l375 -633h-119l-365 627h-233v-627h-102v1434zM225 717h217q208 0 293 72q84 72 84 237q0 209 -135 276q-86 42 -277 42h-182v-627zM514 -135v-143l-45 -123h-41l31 123h-51v143h106z" />
    <glyph glyph-name="rcommaaccent" unicode="&#x157;" horiz-adv-x="573" 
d="M533 1044v-86h-41q-146 0 -217 -121q-54 -92 -54 -237v-600h-98v1024h78l20 -135h4q35 73 105.5 114t161.5 41h41zM227 -135v-143l-45 -123h-41l31 123h-51v143h106z" />
    <glyph glyph-name="Rcaron" unicode="&#x158;" horiz-adv-x="1004" 
d="M123 1434h305q493 0 493 -408q0 -348 -354 -393l375 -633h-119l-365 627h-233v-627h-102v1434zM225 717h217q208 0 293 72q84 72 84 237q0 209 -135 276q-86 42 -277 42h-182v-627zM510 1536h-121l-164 188h92l133 -114l133 114h93z" />
    <glyph glyph-name="rcaron" unicode="&#x159;" horiz-adv-x="573" 
d="M533 1044v-86h-41q-146 0 -217 -121q-54 -92 -54 -237v-600h-98v1024h78l20 -135h4q35 73 105.5 114t161.5 41h41zM367 1180h-121l-164 188h92l133 -114l133 114h93z" />
    <glyph glyph-name="Sacute" unicode="&#x15a;" horiz-adv-x="983" 
d="M901 1141l-96 -25q-36 119 -131 188q-83 60 -183 60q-124 0 -209 -77q-78 -73 -78 -181q0 -149 118 -237q62 -46 221 -109q200 -79 273 -148q106 -100 106 -265q0 -190 -140 -288q-113 -79 -290 -79q-180 0 -296 101q-94 81 -155 235l96 24q112 -270 355 -270
q150 0 241 78q87 74 87 198q0 137 -112 219q-59 43 -214 105q-206 82 -282 155q-110 106 -110 281q0 167 131 266q108 82 258 82q149 0 262 -92q100 -82 148 -221zM543 1724h164l-185 -188h-102z" />
    <glyph glyph-name="sacute" unicode="&#x15b;" horiz-adv-x="778" 
d="M696 825l-96 -26q-23 74 -79 116.5t-132 42.5q-81 0 -137 -52q-52 -48 -52 -118q0 -84 51 -135.5t197 -114.5q142 -62 194 -110q75 -70 75 -176q0 -144 -112 -216q-86 -56 -216 -56q-252 0 -348 233l96 27q74 -174 252 -174q106 0 170 52q60 50 60 134q0 65 -44.5 106
t-173.5 97q-155 67 -214 123q-85 82 -85 210q0 127 97 199q79 57 190 57q234 0 307 -219zM430 1368h164l-185 -188h-102z" />
    <glyph glyph-name="Scedilla" unicode="&#x15e;" horiz-adv-x="983" 
d="M287 -315l37 51q64 -51 131 -51q42 0 70 23.5t28 58.5t-28 57.5t-70 22.5q-34 0 -64 -17l-16 11l82 141q-164 8 -271 107q-87 80 -145 227l96 24q112 -270 355 -270q150 0 241 78q87 74 87 198q0 137 -112 219q-59 43 -214 105q-206 82 -282 155q-110 106 -110 281
q0 167 131 266q108 82 258 82q149 0 262 -91q100 -82 148 -222l-96 -24q-36 118 -131 187q-83 60 -183 60q-124 0 -209 -77q-78 -73 -78 -181q0 -149 118 -237q62 -46 221 -109q200 -79 273 -148q106 -100 106 -266q0 -176 -122 -273q-99 -79 -259 -91l-49 -80l2 -2
q17 4 30 4q57 0 94 -39t37 -98q0 -66 -50 -107t-130 -41q-105 0 -188 66z" />
    <glyph glyph-name="scedilla" unicode="&#x15f;" horiz-adv-x="778" 
d="M184 -315l37 51q64 -51 132 -51q42 0 70 23.5t28 58.5t-28 57.5t-71 22.5q-34 0 -63 -17l-17 10l82 142q-225 12 -313 231l96 27q74 -174 252 -174q112 0 173 52q57 48 57 134q0 65 -44.5 106t-173.5 97q-155 67 -214 123q-85 82 -85 210q0 129 93 199q77 57 194 57
q234 0 307 -219l-96 -26q-49 159 -211 159q-85 0 -140 -52q-49 -47 -49 -118q0 -84 51 -135.5t197 -114.5q142 -62 194 -110q75 -70 75 -176q0 -133 -90 -204q-72 -56 -189 -66l-49 -80l2 -2q17 4 31 4q57 0 94 -39t37 -98q0 -66 -50 -107t-130 -41q-106 0 -189 66z" />
    <glyph glyph-name="Scaron" unicode="&#x160;" horiz-adv-x="983" 
d="M901 1141l-96 -25q-36 119 -131 188q-83 60 -183 60q-124 0 -209 -77q-78 -73 -78 -181q0 -149 118 -237q62 -46 221 -109q200 -79 273 -148q106 -100 106 -265q0 -190 -140 -288q-113 -79 -290 -79q-180 0 -296 101q-94 81 -155 235l96 24q112 -270 355 -270
q150 0 241 78q87 74 87 198q0 137 -112 219q-59 43 -214 105q-206 82 -282 155q-110 106 -110 281q0 167 131 266q108 82 258 82q149 0 262 -92q100 -82 148 -221zM557 1536h-121l-164 188h92l133 -114l133 114h93z" />
    <glyph glyph-name="scaron" unicode="&#x161;" horiz-adv-x="778" 
d="M696 825l-96 -26q-23 74 -79 116.5t-132 42.5q-81 0 -137 -52q-52 -48 -52 -118q0 -84 51 -135.5t197 -114.5q142 -62 194 -110q75 -70 75 -176q0 -144 -112 -216q-86 -56 -216 -56q-252 0 -348 233l96 27q74 -174 252 -174q106 0 170 52q60 50 60 134q0 65 -44.5 106
t-173.5 97q-155 67 -214 123q-85 82 -85 210q0 127 97 199q79 57 190 57q234 0 307 -219zM453 1180h-121l-164 188h92l133 -114l133 114h93z" />
    <glyph glyph-name="Tcommaaccent" unicode="&#x162;" horiz-adv-x="922" 
d="M41 1434h840v-90h-369v-1344h-102v1344h-369v90zM514 -135v-143l-45 -123h-41l31 123h-51v143h106z" />
    <glyph glyph-name="tcommaaccent" unicode="&#x163;" horiz-adv-x="492" 
d="M41 938v86h123l20 303h78v-303h168v-86h-168v-672q0 -96 28 -136t97 -40h64v-90h-66q-123 0 -172 59t-49 207v672h-123zM352 -135v-143l-45 -123h-41l31 123h-51v143h106z" />
    <glyph glyph-name="Tcaron" unicode="&#x164;" horiz-adv-x="922" 
d="M41 1434h840v-90h-369v-1344h-102v1344h-369v90zM521 1536h-121l-164 188h92l133 -114l133 114h93z" />
    <glyph glyph-name="tcaron" unicode="&#x165;" horiz-adv-x="553" 
d="M61 938v86h123l20 303h78v-303h168v-86h-168v-672q0 -96 28 -136t97 -40h64v-90h-66q-123 0 -172 59t-49 207v672h-123zM532 1434v-143l-45 -123h-41l31 123h-51v143h106z" />
    <glyph glyph-name="Umacron" unicode="&#x16a;" horiz-adv-x="1106" 
d="M225 1434v-910q0 -216 64 -322q77 -128 254 -128q213 0 290 162q48 101 48 288v910h102v-881q0 -303 -92 -431q-103 -142 -348 -142q-259 0 -354 184q-66 129 -66 389v881h102zM771 1667v-90h-451v90h451z" />
    <glyph glyph-name="umacron" unicode="&#x16b;" horiz-adv-x="922" 
d="M123 367v657h98v-657q0 -153 42 -221q50 -80 167 -80q95 0 165 66t106 190v702h98v-1024h-78l-20 135h-4q-87 -155 -267 -155q-184 0 -254 118q-53 89 -53 269zM687 1311v-90h-451v90h451z" />
    <glyph glyph-name="Uring" unicode="&#x16e;" horiz-adv-x="1106" 
d="M225 1434v-910q0 -216 64 -322q77 -128 254 -128q213 0 290 162q48 101 48 288v910h102v-881q0 -303 -92 -431q-103 -142 -348 -142q-259 0 -354 184q-66 129 -66 389v881h102zM385 1663q0 73 54 122q47 42 110 42q73 0 122 -54q42 -47 42 -110q0 -73 -54 -122
q-47 -42 -110 -42q-73 0 -122 54q-42 47 -42 110zM457 1663q0 -37 27.5 -64.5t64.5 -27.5t64.5 27.5t27.5 64.5t-27.5 64.5t-64.5 27.5t-64.5 -27.5t-27.5 -64.5z" />
    <glyph glyph-name="uring" unicode="&#x16f;" horiz-adv-x="922" 
d="M123 367v657h98v-657q0 -153 42 -221q50 -80 167 -80q95 0 165 66t106 190v702h98v-1024h-78l-20 135h-4q-87 -155 -267 -155q-184 0 -254 118q-53 89 -53 269zM297 1332q0 72 54 121q47 42 110 42q73 0 122 -54q42 -47 42 -109q0 -73 -54 -122q-47 -42 -110 -42
q-73 0 -122 54q-42 47 -42 110zM369 1332q0 -37 27.5 -64.5t64.5 -27.5t64.5 27.5t27.5 64.5q0 36 -27.5 63.5t-64.5 27.5t-64.5 -27.5t-27.5 -63.5z" />
    <glyph glyph-name="Uhungarumlaut" unicode="&#x170;" horiz-adv-x="1106" 
d="M225 1434v-910q0 -216 64 -322q77 -128 254 -128q213 0 290 162q48 101 48 288v910h102v-881q0 -303 -92 -431q-103 -142 -348 -142q-259 0 -354 184q-66 129 -66 389v881h102zM482 1724h164l-185 -188h-102zM728 1724h163l-184 -188h-102z" />
    <glyph glyph-name="uhungarumlaut" unicode="&#x171;" horiz-adv-x="922" 
d="M123 367v657h98v-657q0 -153 42 -221q50 -80 167 -80q95 0 165 66t106 190v702h98v-1024h-78l-20 135h-4q-87 -155 -267 -155q-184 0 -254 118q-53 89 -53 269zM369 1368h164l-185 -188h-102zM615 1368h163l-184 -188h-102z" />
    <glyph glyph-name="Uogonek" unicode="&#x172;" horiz-adv-x="1106" 
d="M621 -299q74 0 129 45l49 -53q-64 -74 -178 -74q-106 0 -163 54q-48 45 -48 118q0 108 112 189q-246 7 -336 190q-63 129 -63 383v881h102v-909q0 -217 64 -323q77 -128 254 -128q213 0 290 162q48 101 48 289v909h102v-881q0 -281 -77 -408q-86 -141 -287 -161
q-106 -91 -106 -180q0 -47 29.5 -75t78.5 -28z" />
    <glyph glyph-name="uogonek" unicode="&#x173;" horiz-adv-x="922" 
d="M781 -299q74 0 129 45l49 -53q-64 -74 -178 -74q-107 0 -163 54q-48 45 -48 118q0 63 34 112t111 97h6l-20 135h-4q-87 -155 -267 -155q-184 0 -254 118q-53 89 -53 269v657h98v-657q0 -153 42 -221q50 -80 167 -80q95 0 165 66t106 190v702h98v-1024
q-126 -104 -126 -197q0 -46 29.5 -74t78.5 -28z" />
    <glyph glyph-name="Ydieresis" unicode="&#x178;" horiz-adv-x="1004" 
d="M502 711l354 723h106l-411 -828v-606h-102v606l-408 828h106l351 -723h4zM705 1679v-143h-106v143h106zM401 1679v-143h-106v143h106z" />
    <glyph glyph-name="Zacute" unicode="&#x179;" horiz-adv-x="983" 
d="M123 1434h757v-65l-677 -1279h698v-90h-819v65l678 1279h-637v90zM553 1724h164l-185 -188h-102z" />
    <glyph glyph-name="zacute" unicode="&#x17a;" horiz-adv-x="881" 
d="M143 1024h614v-66l-542 -868v-4h563v-86h-676v66l543 868v4h-502v86zM463 1368h164l-185 -188h-102z" />
    <glyph glyph-name="Zdotaccent" unicode="&#x17b;" horiz-adv-x="983" 
d="M123 1434h757v-65l-677 -1279h698v-90h-819v65l678 1279h-637v90zM544 1679v-143h-106v143h106z" />
    <glyph glyph-name="zdotaccent" unicode="&#x17c;" horiz-adv-x="881" 
d="M143 1024h614v-66l-542 -868v-4h563v-86h-676v66l543 868v4h-502v86zM503 1368v-143h-106v143h106z" />
    <glyph glyph-name="Zcaron" unicode="&#x17d;" horiz-adv-x="983" 
d="M123 1434h757v-65l-677 -1279h698v-90h-819v65l678 1279h-637v90zM557 1536h-121l-164 188h92l133 -114l133 114h93z" />
    <glyph glyph-name="zcaron" unicode="&#x17e;" horiz-adv-x="881" 
d="M143 1024h614v-66l-542 -868v-4h563v-86h-676v66l543 868v4h-502v86zM512 1180h-121l-164 188h92l133 -114l133 114h93z" />
    <glyph glyph-name="uni018F" unicode="&#x18f;" horiz-adv-x="1147" 
d="M571 1360q-262 0 -368 -305l-99 33q66 185 171 272q115 94 296 94q494 0 494 -723q0 -419 -136 -597q-118 -154 -358 -154q-277 0 -388 206q-99 183 -99 580h877q0 294 -112 451q-101 143 -278 143zM571 74q380 0 392 602h-779q12 -602 387 -602z" />
    <glyph glyph-name="uni01DD" unicode="&#x1dd;" 
d="M479 958q-117 0 -187 -50t-106 -158l-83 16q49 149 138 213q89 65 239 65q195 0 299 -161q90 -138 90 -363q0 -271 -116 -414q-102 -126 -273 -126q-198 0 -299 160q-89 142 -89 389v30h678q-8 208 -94 311q-74 88 -197 88zM479 66q262 0 289 395h-577q31 -395 288 -395z
" />
    <glyph glyph-name="Scommaaccent" unicode="&#x218;" horiz-adv-x="983" 
d="M901 1141l-96 -25q-36 119 -131 188q-83 60 -183 60q-124 0 -209 -77q-78 -73 -78 -181q0 -149 118 -237q62 -46 221 -109q200 -79 273 -148q106 -100 106 -265q0 -190 -140 -288q-113 -79 -290 -79q-180 0 -296 101q-94 81 -155 235l96 24q112 -270 355 -270
q150 0 241 78q87 74 87 198q0 137 -112 219q-59 43 -214 105q-206 82 -282 155q-110 106 -110 281q0 167 131 266q108 82 258 82q149 0 262 -92q100 -82 148 -221zM544 -135v-143l-45 -123h-41l31 123h-51v143h106z" />
    <glyph glyph-name="scommaaccent" unicode="&#x219;" horiz-adv-x="782" 
d="M694 825l-96 -26q-23 74 -79 116.5t-132 42.5q-81 0 -137 -52q-52 -48 -52 -118q0 -84 51 -135.5t197 -114.5q142 -62 194 -110q75 -70 75 -176q0 -144 -112 -216q-86 -56 -216 -56q-252 0 -348 233l96 27q74 -174 252 -174q106 0 170 52q60 50 60 134q0 65 -44.5 106
t-173.5 97q-155 67 -214 123q-85 82 -85 210q0 127 97 199q79 57 190 57q234 0 307 -219zM448 -135v-143l-45 -123h-41l31 123h-51v143h106z" />
    <glyph glyph-name="uni021A" unicode="&#x21a;" horiz-adv-x="922" 
d="M41 1434h840v-90h-369v-1344h-102v1344h-369v90zM514 -135v-143l-45 -123h-41l31 123h-51v143h106z" />
    <glyph glyph-name="uni021B" unicode="&#x21b;" horiz-adv-x="492" 
d="M41 938v86h123l20 303h78v-303h168v-86h-168v-672q0 -96 28 -136t97 -40h64v-90h-66q-123 0 -172 59t-49 207v672h-123zM352 -135v-143l-45 -123h-41l31 123h-51v143h106z" />
    <glyph glyph-name="uni0259" unicode="&#x259;" 
d="M479 958q-117 0 -187 -50t-106 -158l-83 16q49 149 138 213q89 65 239 65q195 0 299 -161q90 -138 90 -363q0 -271 -116 -414q-102 -126 -273 -126q-198 0 -299 160q-89 142 -89 389v30h678q-8 208 -94 311q-74 88 -197 88zM479 66q262 0 289 395h-577q31 -395 288 -395z
" />
    <glyph glyph-name="circumflex" unicode="&#x2c6;" horiz-adv-x="655" 
d="M266 1368h121l166 -188h-93l-133 114l-133 -114h-92z" />
    <glyph glyph-name="caron" unicode="&#x2c7;" horiz-adv-x="655" 
d="M387 1180h-121l-164 188h92l133 -114l133 114h93z" />
    <glyph glyph-name="uni02C9" unicode="&#x2c9;" horiz-adv-x="655" 
d="M553 1311v-90h-451v90h451z" />
    <glyph glyph-name="breve" unicode="&#x2d8;" horiz-adv-x="655" 
d="M464 1368h89q-20 -98 -90 -151q-59 -44 -136 -44q-85 0 -150 58q-58 53 -75 137h86q11 -46 49.5 -74.5t89.5 -28.5q52 0 91 29t46 74z" />
    <glyph glyph-name="dotaccent" unicode="&#x2d9;" horiz-adv-x="307" 
d="M206 1368v-143h-106v143h106z" />
    <glyph glyph-name="ring" unicode="&#x2da;" horiz-adv-x="532" 
d="M102 1330q0 72 54 121q47 42 110 42q73 0 122 -54q42 -47 42 -109q0 -73 -54 -122q-47 -42 -110 -42q-73 0 -122 54q-42 47 -42 110zM174 1330q0 -37 27.5 -64.5t64.5 -27.5t64.5 27.5t27.5 64.5q0 36 -27.5 63.5t-64.5 27.5t-64.5 -27.5t-27.5 -63.5z" />
    <glyph glyph-name="ogonek" unicode="&#x2db;" horiz-adv-x="594" 
d="M313 -299q74 0 129 45l49 -53q-64 -74 -178 -74q-106 0 -163 54q-48 45 -48 118q0 63 34 112t111 97h84q-127 -104 -127 -197q0 -46 30 -74t79 -28z" />
    <glyph glyph-name="tilde" unicode="&#x2dc;" horiz-adv-x="655" 
d="M462 1343h91q-4 -76 -42.5 -119.5t-101.5 -43.5q-41 0 -88 40q-39 33 -65 33q-49 0 -64 -73h-90q6 71 46 117t97 46q45 0 92 -41q36 -32 62 -32q54 0 63 73z" />
    <glyph glyph-name="hungarumlaut" unicode="&#x2dd;" horiz-adv-x="737" 
d="M225 1368h164l-185 -188h-102zM471 1368h163l-184 -188h-102z" />
    <glyph glyph-name="uni0309" unicode="&#x309;" horiz-adv-x="573" 
d="M103 1664q83 65 189 65q83 0 134 -44q46 -41 46 -103q0 -60 -37 -98.5t-94 -38.5q-15 0 -31 4l-2 -2v-99h-117v160l16 10q30 -16 64 -16q43 0 71 22.5t28 56.5q0 35 -28.5 58.5t-70.5 23.5q-67 0 -131 -50z" />
    <glyph glyph-name="uni0323" unicode="&#x323;" horiz-adv-x="307" 
d="M206 -154v-143h-106v143h106z" />
    <glyph glyph-name="uni037E" unicode="&#x37e;" horiz-adv-x="307" 
d="M206 143v-143l-45 -144h-41l31 144h-51v143h106zM206 877v-143h-106v143h106z" />
    <glyph glyph-name="tonos" unicode="&#x384;" horiz-adv-x="424" 
d="M213 1454l108 -36l-145 -346l-74 26z" />
    <glyph glyph-name="Alphatonos" unicode="&#x386;" horiz-adv-x="1044" 
d="M287 483l-148 -483h-98l440 1434h82l441 -1434h-99l-147 483h-471zM315 573h414l-205 681h-4zM189 1454l108 -36l-145 -346l-74 26z" />
    <glyph glyph-name="uni0387" unicode="&#x387;" horiz-adv-x="512" 
d="M309 799v-143h-106v143h106z" />
    <glyph glyph-name="Epsilontonos" unicode="&#x388;" horiz-adv-x="1065" 
d="M266 1434h696v-90h-594v-545h471v-90h-471v-619h615v-90h-717v1434zM86 1454l108 -36l-145 -346l-74 26z" />
    <glyph glyph-name="Etatonos" unicode="&#x389;" horiz-adv-x="1249" 
d="M368 709v-709h-102v1434h102v-635h656v635h102v-1434h-102v709h-656zM86 1454l108 -36l-145 -346l-74 26z" />
    <glyph glyph-name="Iotatonos" unicode="&#x38a;" horiz-adv-x="492" 
d="M368 1434v-1434h-102v1434h102zM86 1454l108 -36l-145 -346l-74 26z" />
    <glyph glyph-name="Omicrontonos" unicode="&#x38c;" horiz-adv-x="1188" 
d="M611 -20q-259 0 -380 194q-109 176 -109 516q0 423 141 608q119 156 348 156q268 0 387 -206q107 -185 107 -558q0 -389 -142 -562q-121 -148 -352 -148zM611 74q392 0 392 616q0 670 -392 670q-387 0 -387 -670q0 -616 387 -616zM86 1454l108 -36l-145 -346l-74 26z" />
    <glyph glyph-name="Upsilontonos" unicode="&#x38e;" horiz-adv-x="1229" 
d="M727 711l354 723h106l-411 -828v-606h-102v606l-408 828h106l351 -723h4zM86 1454l108 -36l-145 -346l-74 26z" />
    <glyph glyph-name="Omegatonos" unicode="&#x38f;" horiz-adv-x="1188" 
d="M878 90h227v-90h-368v133q266 91 266 578q0 325 -104 491q-99 158 -287 158q-210 0 -308 -205q-79 -163 -79 -444q0 -490 266 -578v-133h-369v90h228q-228 149 -228 621q0 743 490 743q265 0 386 -207q107 -183 107 -536q0 -474 -227 -621zM86 1454l108 -36l-145 -346
l-74 26z" />
    <glyph glyph-name="iotadieresistonos" unicode="&#x390;" horiz-adv-x="348" 
d="M400 1368v-143h-106v143h106zM55 1368v-143h-106v143h106zM199 1528l108 -37l-145 -346l-74 26zM223 1024v-1024h-98v1024h98z" />
    <glyph glyph-name="Alpha" unicode="&#x391;" horiz-adv-x="1044" 
d="M287 483l-148 -483h-98l440 1434h82l441 -1434h-99l-147 483h-471zM315 573h414l-205 681h-4z" />
    <glyph glyph-name="Beta" unicode="&#x392;" horiz-adv-x="1024" 
d="M671 754v-4q133 -22 206 -127q65 -93 65 -230q0 -222 -141 -317q-112 -76 -320 -76h-358v1434h301q469 0 469 -356q0 -140 -62 -226q-58 -80 -160 -98zM225 709v-619h205q221 0 309 60q101 69 101 243q0 186 -128 259q-101 57 -307 57h-180zM225 1344v-545h182
q252 0 327 74q57 56 57 205q0 142 -92.5 204t-305.5 62h-168z" />
    <glyph glyph-name="Gamma" unicode="&#x393;" horiz-adv-x="799" 
d="M225 1344v-1344h-102v1434h635v-90h-533z" />
    <glyph glyph-name="Delta" unicode="&#x394;" horiz-adv-x="1044" 
d="M1004 0h-963l436 1434h82zM166 90h713l-359 1164h-4z" />
    <glyph glyph-name="Delta" unicode="&#x2206;" horiz-adv-x="1044" 
d="M1004 0h-963l436 1434h82zM166 90h713l-359 1164h-4z" />
    <glyph glyph-name="Epsilon" unicode="&#x395;" horiz-adv-x="922" 
d="M123 1434h696v-90h-594v-545h471v-90h-471v-619h615v-90h-717v1434z" />
    <glyph glyph-name="Zeta" unicode="&#x396;" horiz-adv-x="983" 
d="M123 1434h757v-65l-677 -1279h698v-90h-819v65l678 1279h-637v90z" />
    <glyph glyph-name="Eta" unicode="&#x397;" horiz-adv-x="1106" 
d="M225 709v-709h-102v1434h102v-635h656v635h102v-1434h-102v709h-656z" />
    <glyph glyph-name="Theta" unicode="&#x398;" horiz-adv-x="1147" 
d="M328 709v90h492v-90h-492zM571 -20q-259 0 -380 194q-109 176 -109 516q0 423 141 608q119 156 348 156q268 0 387 -206q107 -185 107 -558q0 -389 -142 -562q-121 -148 -352 -148zM571 74q392 0 392 616q0 670 -392 670q-387 0 -387 -670q0 -616 387 -616z" />
    <glyph glyph-name="Iota" unicode="&#x399;" horiz-adv-x="348" 
d="M225 1434v-1434h-102v1434h102z" />
    <glyph glyph-name="Kappa" unicode="&#x39a;" horiz-adv-x="1024" 
d="M454 744h-4l-225 -301v-443h-102v1434h102v-828h4l614 828h119l-446 -602l467 -832h-119z" />
    <glyph glyph-name="Lambda" unicode="&#x39b;" horiz-adv-x="1044" 
d="M905 0l-381 1254h-4l-381 -1254h-98l440 1434h82l441 -1434h-99z" />
    <glyph glyph-name="Mu" unicode="&#x39c;" horiz-adv-x="1270" 
d="M1147 1434v-1434h-94v1209h-4l-367 -1209h-98l-363 1209h-4v-1209h-94v1434h123l385 -1270h4l389 1270h123z" />
    <glyph glyph-name="Nu" unicode="&#x39d;" horiz-adv-x="1085" 
d="M963 1434v-1434h-71l-671 1209h-4v-1209h-94v1434h82l660 -1188h4v1188h94z" />
    <glyph glyph-name="Xi" unicode="&#x39e;" horiz-adv-x="922" 
d="M184 709v90h574v-90h-574zM82 1434h758v-90h-758v90zM82 90h758v-90h-758v90z" />
    <glyph glyph-name="Omicron" unicode="&#x39f;" horiz-adv-x="1147" 
d="M571 -20q-259 0 -380 194q-109 176 -109 516q0 423 141 608q119 156 348 156q268 0 387 -206q107 -185 107 -558q0 -389 -142 -562q-121 -148 -352 -148zM571 74q392 0 392 616q0 670 -392 670q-387 0 -387 -670q0 -616 387 -616z" />
    <glyph glyph-name="Pi" unicode="&#x3a0;" horiz-adv-x="1106" 
d="M225 1344v-1344h-102v1434h860v-1434h-102v1344h-656z" />
    <glyph glyph-name="Rho" unicode="&#x3a1;" horiz-adv-x="1004" 
d="M123 1434h305q493 0 493 -408q0 -223 -142 -320q-117 -79 -335 -79h-219v-627h-102v1434zM225 717h217q208 0 293 72q84 72 84 237q0 209 -135 276q-86 42 -277 42h-182v-627z" />
    <glyph glyph-name="Sigma" unicode="&#x3a3;" 
d="M82 1434h758v-90h-627l373 -592l-373 -662h647v-90h-778v65l389 687l-389 617v65z" />
    <glyph glyph-name="Tau" unicode="&#x3a4;" horiz-adv-x="922" 
d="M41 1434h840v-90h-369v-1344h-102v1344h-369v90z" />
    <glyph glyph-name="Upsilon" unicode="&#x3a5;" horiz-adv-x="1004" 
d="M502 711l354 723h106l-411 -828v-606h-102v606l-408 828h106l351 -723h4z" />
    <glyph glyph-name="Phi" unicode="&#x3a6;" horiz-adv-x="1352" 
d="M727 1434v-270q275 -11 434 -136q150 -119 150 -313q0 -219 -192 -341q-155 -99 -392 -110v-264h-102v264q-294 12 -446 140q-138 115 -138 311q0 228 178 344q148 96 406 105v270h102zM1209 715q0 180 -158 274q-124 73 -324 80v-710q233 10 360 107q122 92 122 249z
M143 715q0 -178 157 -273q125 -74 325 -83v710q-233 -10 -359 -105q-123 -92 -123 -249z" />
    <glyph glyph-name="Chi" unicode="&#x3a7;" horiz-adv-x="1004" 
d="M430 748l-348 686h111l307 -604h4l307 604h111l-349 -686l390 -748h-111l-348 666h-4l-348 -666h-111z" />
    <glyph glyph-name="Psi" unicode="&#x3a8;" horiz-adv-x="1106" 
d="M594 1434v-908q187 20 270 176q58 110 58 273v459h102v-430q0 -278 -104 -417q-105 -141 -326 -155v-432h-102v432q-410 30 -410 572v430h102v-459q0 -188 75 -305q79 -125 233 -144v908h102z" />
    <glyph glyph-name="Omega" unicode="&#x3a9;" horiz-adv-x="1147" 
d="M837 90h228v-90h-369v133q266 91 266 578q0 325 -104 491q-99 158 -287 158q-210 0 -308 -205q-78 -163 -78 -444q0 -490 266 -578v-133h-369v90h228q-228 149 -228 621q0 743 489 743q266 0 387 -207q107 -183 107 -536q0 -474 -228 -621z" />
    <glyph glyph-name="Omega" unicode="&#x2126;" horiz-adv-x="1147" 
d="M837 90h228v-90h-369v133q266 91 266 578q0 325 -104 491q-99 158 -287 158q-210 0 -308 -205q-78 -163 -78 -444q0 -490 266 -578v-133h-369v90h228q-228 149 -228 621q0 743 489 743q266 0 387 -207q107 -183 107 -536q0 -474 -228 -621z" />
    <glyph glyph-name="Iotadieresis" unicode="&#x3aa;" horiz-adv-x="348" 
d="M225 1434v-1434h-102v1434h102zM379 1679v-143h-106v143h106zM75 1679v-143h-106v143h106z" />
    <glyph glyph-name="Upsilondieresis" unicode="&#x3ab;" horiz-adv-x="1004" 
d="M502 711l354 723h106l-411 -828v-606h-102v606l-408 828h106l351 -723h4zM705 1679v-143h-106v143h106zM401 1679v-143h-106v143h106z" />
    <glyph glyph-name="alphatonos" unicode="&#x3ac;" horiz-adv-x="1044" 
d="M471 -20q-201 0 -304 166q-85 137 -85 358q0 268 113 411q101 129 276 129q217 0 320 -196h4q23 87 57 176h111q-61 -155 -82 -262t-21 -258q0 -155 20.5 -255.5t82.5 -248.5h-111q-38 90 -57 172h-4q-101 -192 -320 -192zM471 958q-162 0 -236 -158q-55 -115 -55 -296
q0 -212 76 -326q75 -112 215 -112q160 0 234 144q57 110 57 294q0 210 -74 330q-75 124 -217 124zM578 1527l108 -36l-145 -346l-74 26z" />
    <glyph glyph-name="epsilontonos" unicode="&#x3ad;" horiz-adv-x="860" 
d="M745 119l33 -86q-156 -53 -309 -53q-387 0 -387 292q0 103 52 166t165 98v4q-174 71 -174 230q0 120 77 193q86 81 253 81q136 0 245 -40l-24 -85q-103 39 -222 39q-121 0 -182 -63q-49 -49 -49 -125q0 -94 80 -148q72 -49 186 -49h70v-86h-70q-156 0 -237 -63
q-72 -55 -72 -152q0 -106 85 -159q75 -47 204 -47q130 0 276 53zM502 1525l108 -36l-145 -346l-74 26z" />
    <glyph glyph-name="etatonos" unicode="&#x3ae;" horiz-adv-x="922" 
d="M799 657v-1038h-98v1038q0 153 -42 221q-50 80 -167 80q-86 0 -159 -63.5t-112 -171.5v-723h-98v1024h78l20 -135h4q87 155 267 155q184 0 254 -118q53 -89 53 -269zM537 1527l108 -36l-145 -346l-74 26z" />
    <glyph glyph-name="iotatonos" unicode="&#x3af;" horiz-adv-x="348" 
d="M223 1024v-1024h-98v1024h98zM240 1527l108 -36l-145 -346l-74 26z" />
    <glyph glyph-name="upsilondieresistonos" unicode="&#x3b0;" horiz-adv-x="983" 
d="M737 1368v-143h-106v143h106zM352 1368v-143h-106v143h106zM506 1528l109 -37l-146 -346l-74 26zM221 1024v-496q0 -235 52 -338q64 -124 219 -124q176 0 234 158q36 98 36 304v496h98v-496q0 -295 -79 -417q-85 -131 -289 -131q-201 0 -285 125t-84 423v496h98z" />
    <glyph glyph-name="alpha" unicode="&#x3b1;" horiz-adv-x="1044" 
d="M471 -20q-201 0 -304 166q-85 137 -85 358q0 268 113 411q101 129 276 129q217 0 320 -196h4q23 87 57 176h111q-61 -155 -82 -262t-21 -258q0 -155 20.5 -255.5t82.5 -248.5h-111q-38 90 -57 172h-4q-101 -192 -320 -192zM471 958q-162 0 -236 -158q-55 -115 -55 -296
q0 -212 76 -326q75 -112 215 -112q160 0 234 144q57 110 57 294q0 210 -74 330q-75 124 -217 124z" />
    <glyph glyph-name="beta" unicode="&#x3b2;" horiz-adv-x="963" 
d="M432 -20q-120 0 -211 40v-401h-98v1456q0 180 90 281q88 98 246 98q184 0 273 -124q69 -97 69 -253q0 -143 -62 -230q-53 -75 -147 -101v-4q147 -32 221 -137q68 -96 68 -244q0 -182 -137 -287q-121 -94 -312 -94zM221 1075v-958q88 -51 211 -51q167 0 263 84
q88 78 88 211q0 172 -111 259q-98 76 -275 76h-57v87h55q308 0 308 294q0 142 -72 221q-65 70 -172 70q-125 0 -187 -92q-51 -76 -51 -201z" />
    <glyph glyph-name="gamma" unicode="&#x3b3;" horiz-adv-x="860" 
d="M819 1024l-340 -901v-504h-98v504l-340 901h102l285 -766h4l285 766h102z" />
    <glyph glyph-name="delta" unicode="&#x3b4;" 
d="M358 1008v4q-61 56 -86.5 106t-25.5 111q0 205 250 205h182v-86h-174q-160 0 -160 -119q0 -53 37.5 -98t99.5 -66q176 -58 262 -165q117 -146 117 -406q0 -248 -111 -386q-103 -128 -278 -128q-200 0 -304 164q-85 135 -85 350q0 217 79 354q72 123 197 160zM471 938
q-161 0 -236 -157q-55 -114 -55 -287q0 -201 76 -315q76 -113 215 -113q160 0 234 142q57 109 57 286q0 199 -74 319q-76 125 -217 125z" />
    <glyph glyph-name="epsilon" unicode="&#x3b5;" horiz-adv-x="860" 
d="M745 119l33 -86q-156 -53 -309 -53q-387 0 -387 292q0 103 52 166t165 98v4q-174 71 -174 230q0 120 77 193q86 81 253 81q136 0 245 -40l-24 -85q-103 39 -222 39q-121 0 -182 -63q-49 -49 -49 -125q0 -94 80 -148q72 -49 186 -49h70v-86h-70q-156 0 -237 -63
q-72 -55 -72 -152q0 -106 85 -159q75 -47 204 -47q130 0 276 53z" />
    <glyph glyph-name="zeta" unicode="&#x3b6;" horiz-adv-x="766" 
d="M180 504q0 -212 76 -311q58 -76 184 -113q142 -41 203 -97q59 -54 59 -134q0 -116 -196 -250l-58 68q70 47 113 97.5t43 84.5q0 46 -48 80t-165 71q-153 49 -228 166q-81 125 -81 338q0 305 176 530q102 132 338 310v4h-453v86h623v-66q-333 -252 -450 -420
q-136 -195 -136 -444z" />
    <glyph glyph-name="eta" unicode="&#x3b7;" horiz-adv-x="922" 
d="M799 657v-1038h-98v1038q0 153 -42 221q-50 80 -167 80q-86 0 -159 -63.5t-112 -171.5v-723h-98v1024h78l20 -135h4q87 155 267 155q184 0 254 -118q53 -89 53 -269z" />
    <glyph glyph-name="theta" unicode="&#x3b8;" horiz-adv-x="1065" 
d="M533 -20q-233 0 -352 225q-99 186 -99 485q0 764 451 764q450 0 450 -764q0 -346 -127 -535q-118 -175 -323 -175zM533 66q191 0 281 201q71 158 71 423h-705q0 -304 96 -468q91 -156 257 -156zM533 1368q-327 0 -351 -592h701q-23 592 -350 592z" />
    <glyph glyph-name="iota" unicode="&#x3b9;" horiz-adv-x="348" 
d="M223 1024v-1024h-98v1024h98z" />
    <glyph glyph-name="kappa" unicode="&#x3ba;" horiz-adv-x="840" 
d="M221 1024v-545h4l426 545h107l-301 -383l342 -641h-103l-299 559h-4l-172 -221v-338h-98v1024h98z" />
    <glyph glyph-name="lambda" unicode="&#x3bb;" horiz-adv-x="860" 
d="M340 1434l479 -1434h-102l-285 869h-4l-285 -869h-102l340 1024l-143 410h102z" />
    <glyph glyph-name="nu" unicode="&#x3bd;" horiz-adv-x="860" 
d="M819 1024l-348 -1024h-82l-348 1024h102l285 -868h4l285 868h102z" />
    <glyph glyph-name="xi" unicode="&#x3be;" horiz-adv-x="768" 
d="M180 433q0 -161 81 -250q62 -69 178 -103q142 -41 203 -97q59 -54 59 -134q0 -116 -197 -250l-57 68q69 47 112.5 97.5t43.5 84.5q0 46 -48 80t-165 71q-143 46 -223 152q-85 112 -85 278q0 155 87 265q75 95 189 121v4q-203 89 -203 278q0 89 44 154.5t120 91.5v4h-174
v86h623v-86h-194q-147 0 -240 -81q-80 -69 -80 -167q0 -112 99 -184q85 -62 200 -62h64v-86h-64q-197 0 -299 -124q-74 -91 -74 -211z" />
    <glyph glyph-name="omicron" unicode="&#x3bf;" 
d="M471 -20q-201 0 -304 166q-85 137 -85 358q0 268 113 411q101 129 276 129q200 0 302 -167q87 -140 87 -373q0 -256 -111 -396q-102 -128 -278 -128zM471 958q-162 0 -236 -158q-55 -115 -55 -296q0 -212 76 -326q75 -112 215 -112q160 0 234 144q57 110 57 294
q0 210 -74 330q-75 124 -217 124z" />
    <glyph glyph-name="pi" unicode="&#x3c0;" horiz-adv-x="1085" 
d="M41 1024h1004v-86h-207v-938h-98v938h-394v-938h-98v938h-207v86z" />
    <glyph glyph-name="rho" unicode="&#x3c1;" 
d="M123 -381v893q0 253 97 393q95 139 271 139q194 0 291 -172q78 -138 78 -360q0 -262 -102 -402q-96 -130 -267 -130q-178 0 -266 155h-4v-516h-98zM492 958q-141 0 -213 -145q-58 -117 -58 -301v-106q0 -159 92 -258q76 -82 179 -82q130 0 204 134q66 119 66 312
q0 226 -85 346q-71 100 -185 100z" />
    <glyph glyph-name="uni03C2" unicode="&#x3c2;" horiz-adv-x="860" 
d="M180 504q0 -213 76 -312q59 -75 185 -112q142 -41 203 -97q59 -54 59 -135q0 -116 -197 -249l-57 67q69 48 112.5 98.5t43.5 83.5q0 47 -48 81t-165 71q-154 49 -229 165q-81 125 -81 339q0 267 113 411q101 129 276 129q127 0 202 -67.5t126 -226.5l-88 -17
q-65 225 -240 225q-155 0 -230 -144q-61 -117 -61 -310z" />
    <glyph glyph-name="sigma" unicode="&#x3c3;" 
d="M472 -20q-201 0 -305 166q-85 137 -85 358q0 268 113 411q102 129 276 129q24 0 100 -11q68 -9 87 -9h264v-86h-195q134 -143 134 -434q0 -256 -111 -396q-102 -128 -278 -128zM472 958q-163 0 -237 -158q-55 -115 -55 -296q0 -212 76 -326q75 -112 216 -112
q160 0 234 144q57 110 57 294q0 210 -74 330q-75 124 -217 124z" />
    <glyph glyph-name="tau" unicode="&#x3c4;" horiz-adv-x="676" 
d="M41 1024h594v-86h-248v-938h-98v938h-248v86z" />
    <glyph glyph-name="upsilon" unicode="&#x3c5;" horiz-adv-x="983" 
d="M221 1024v-496q0 -235 52 -338q64 -124 219 -124q176 0 234 158q36 98 36 304v496h98v-496q0 -295 -79 -417q-85 -131 -289 -131q-201 0 -285 125t-84 423v496h98z" />
    <glyph glyph-name="phi" unicode="&#x3c6;" horiz-adv-x="983" 
d="M442 1044h49q202 0 313 -166q96 -144 96 -374q0 -235 -108 -378q-96 -127 -252 -144v-363h-98v365q-178 19 -276 180q-84 137 -84 340q0 241 133 411l67 -65q-102 -148 -102 -346q0 -187 75 -305q69 -110 187 -129v974zM802 504q0 184 -73 309q-70 120 -189 141v-884
q136 20 205 158q57 112 57 276z" />
    <glyph glyph-name="chi" unicode="&#x3c7;" horiz-adv-x="840" 
d="M758 1024l-277 -668l318 -737h-107l-270 660h-4l-271 -660h-106l313 741l-272 664h106l230 -580h4l229 580h107z" />
    <glyph glyph-name="psi" unicode="&#x3c8;" horiz-adv-x="1044" 
d="M180 1024v-483q0 -416 293 -449v932h98v-932q183 18 251 175q43 100 43 274v483h98v-446q0 -289 -83 -417q-92 -141 -309 -155v-387h-98v387q-232 15 -323 196q-68 133 -68 376v446h98z" />
    <glyph glyph-name="omega" unicode="&#x3c9;" horiz-adv-x="1372" 
d="M1018 1024h106q72 -91 119 -238t47 -282q0 -294 -93 -419q-78 -105 -235 -105q-93 0 -167 52q-71 50 -107 140h-4q-37 -102 -122 -152q-67 -40 -150 -40q-330 0 -330 524q0 157 55 312q46 129 113 208h104q-174 -232 -174 -520q0 -438 232 -438q99 0 166 97q59 85 59 200
v309h98v-309q0 -134 74 -221q64 -76 154 -76q127 0 181 119q48 104 48 319q0 293 -174 520z" />
    <glyph glyph-name="iotadieresis" unicode="&#x3ca;" horiz-adv-x="348" 
d="M223 1024v-1024h-98v1024h98zM379 1368v-143h-106v143h106zM75 1368v-143h-106v143h106z" />
    <glyph glyph-name="upsilondieresis" unicode="&#x3cb;" horiz-adv-x="983" 
d="M696 1368v-143h-106v143h106zM393 1368v-143h-106v143h106zM221 1024v-496q0 -235 52 -338q64 -124 219 -124q176 0 234 158q36 98 36 304v496h98v-496q0 -295 -79 -417q-85 -131 -289 -131q-201 0 -285 125t-84 423v496h98z" />
    <glyph glyph-name="omicrontonos" unicode="&#x3cc;" 
d="M471 -20q-201 0 -304 166q-85 137 -85 358q0 268 113 411q101 129 276 129q200 0 302 -167q87 -140 87 -373q0 -256 -111 -396q-102 -128 -278 -128zM471 958q-162 0 -236 -158q-55 -115 -55 -296q0 -212 76 -326q75 -112 215 -112q160 0 234 144q57 110 57 294
q0 210 -74 330q-75 124 -217 124zM517 1527l108 -36l-145 -346l-74 26z" />
    <glyph glyph-name="upsilontonos" unicode="&#x3cd;" horiz-adv-x="983" 
d="M221 1024v-496q0 -235 52 -338q64 -124 219 -124q176 0 234 158q36 98 36 304v496h98v-496q0 -295 -79 -417q-85 -131 -289 -131q-201 0 -285 125t-84 423v496h98zM558 1527l108 -36l-145 -346l-74 26z" />
    <glyph glyph-name="omegatonos" unicode="&#x3ce;" horiz-adv-x="1372" 
d="M1018 1024h106q72 -91 119 -238t47 -282q0 -294 -93 -419q-78 -105 -235 -105q-93 0 -167 52q-71 50 -107 140h-4q-37 -102 -122 -152q-67 -40 -150 -40q-330 0 -330 524q0 157 55 312q46 129 113 208h104q-174 -232 -174 -520q0 -438 232 -438q99 0 166 97q59 85 59 200
v309h98v-309q0 -134 74 -221q64 -76 154 -76q127 0 181 119q48 104 48 319q0 293 -174 520zM703 1527l108 -36l-145 -346l-74 26z" />
    <glyph glyph-name="uni0400" unicode="&#x400;" horiz-adv-x="922" 
d="M123 1434h696v-90h-594v-545h471v-90h-471v-619h615v-90h-717v1434zM254 1724h164l123 -188h-103z" />
    <glyph glyph-name="afii10023" unicode="&#x401;" horiz-adv-x="922" 
d="M123 1434h696v-90h-594v-545h471v-90h-471v-619h615v-90h-717v1434zM687 1679v-143h-106v143h106zM383 1679v-143h-106v143h106z" />
    <glyph glyph-name="uni0402" unicode="&#x402;" horiz-adv-x="1327" 
d="M1208 637v-156q0 -339 -113 -564q-92 -185 -271 -318l-64 75q197 146 277 357q69 181 69 450v156q0 149 -79 230q-70 71 -185 71q-100 0 -202 -72q-94 -66 -128 -159v-707h-102v1344h-369v90h840v-90h-369v-476h2q38 64 134.5 110t193.5 46q186 0 280 -108
q86 -99 86 -279z" />
    <glyph glyph-name="uni0403" unicode="&#x403;" horiz-adv-x="799" 
d="M225 1344v-1344h-102v1434h635v-90h-533zM477 1728h164l-185 -188h-102z" />
    <glyph glyph-name="uni0404" unicode="&#x404;" horiz-adv-x="1085" 
d="M569 -20q-487 0 -487 710q0 423 141 608q119 156 348 156q168 0 268 -93q77 -71 144 -226l-90 -35q-54 137 -127 197q-77 63 -194 63q-362 0 -385 -582h530v-90h-532q0 -614 385 -614q254 0 340 286l94 -34q-104 -346 -435 -346z" />
    <glyph glyph-name="uni0405" unicode="&#x405;" horiz-adv-x="983" 
d="M901 1141l-96 -25q-36 119 -131 188q-83 60 -183 60q-124 0 -209 -77q-78 -73 -78 -181q0 -149 118 -237q62 -46 221 -109q200 -79 273 -148q106 -100 106 -265q0 -190 -140 -288q-113 -79 -290 -79q-180 0 -296 101q-94 81 -155 235l96 24q112 -270 355 -270
q150 0 241 78q87 74 87 198q0 137 -112 219q-59 43 -214 105q-206 82 -282 155q-110 106 -110 281q0 167 131 266q108 82 258 82q149 0 262 -92q100 -82 148 -221z" />
    <glyph glyph-name="uni0406" unicode="&#x406;" horiz-adv-x="348" 
d="M225 1434v-1434h-102v1434h102z" />
    <glyph glyph-name="uni0407" unicode="&#x407;" horiz-adv-x="348" 
d="M225 1434v-1434h-102v1434h102zM379 1679v-143h-106v143h106zM75 1679v-143h-106v143h106z" />
    <glyph glyph-name="uni0408" unicode="&#x408;" horiz-adv-x="614" 
d="M41 0v90h82q267 0 267 346v998h102v-998q0 -248 -115 -354q-89 -82 -254 -82h-82z" />
    <glyph glyph-name="uni0409" unicode="&#x409;" horiz-adv-x="1884" 
d="M287 824v610h819v-635h219q251 0 367 -102q110 -97 110 -293q0 -234 -160 -332q-119 -72 -333 -72h-305v1344h-615v-561q0 -402 -63 -563q-61 -158 -228 -240l-57 85q109 51 161 136q49 78 67 210.5t18 412.5zM1323 709h-217v-619h182q221 0 306 57q106 71 106 257
t-110 253q-84 52 -267 52z" />
    <glyph glyph-name="uni040A" unicode="&#x40a;" horiz-adv-x="1761" 
d="M1186 0h-305v709h-656v-709h-102v1434h102v-635h656v635h102v-635h219q251 0 367 -102q110 -97 110 -293q0 -234 -160 -332q-119 -72 -333 -72zM1200 709h-217v-619h182q221 0 307 57q105 71 105 257t-109 253q-85 52 -268 52z" />
    <glyph glyph-name="uni040B" unicode="&#x40b;" horiz-adv-x="1290" 
d="M1208 637v-637h-102v629q0 146 -92 230q-77 71 -194 71q-133 0 -222 -86q-86 -84 -86 -215v-629h-102v1344h-369v90h840v-90h-369v-453h2q102 133 306 133q189 0 292 -108q96 -101 96 -279z" />
    <glyph glyph-name="uni040C" unicode="&#x40c;" horiz-adv-x="1024" 
d="M454 744h-4l-225 -301v-443h-102v1434h102v-828h4l614 828h119l-446 -602l467 -832h-119zM518 1724h164l-185 -188h-102z" />
    <glyph glyph-name="uni040D" unicode="&#x40d;" horiz-adv-x="1085" 
d="M123 0v1434h94v-1188h4l660 1188h82v-1434h-94v1209h-4l-670 -1209h-72zM320 1724h164l123 -188h-103z" />
    <glyph glyph-name="uni040E" unicode="&#x40e;" horiz-adv-x="1044" 
d="M524 467l381 967h99l-416 -1084q-80 -209 -177 -293q-89 -77 -220 -77h-68v86h45q221 0 295 268l-422 1100h98l381 -967h4zM659 1731h89q-20 -98 -90 -151q-59 -44 -136 -44q-85 0 -150 58q-58 53 -75 137h86q11 -46 49.5 -74.5t89.5 -28.5q52 0 91 29t46 74z" />
    <glyph glyph-name="uni040F" unicode="&#x40f;" horiz-adv-x="1106" 
d="M225 1434v-1344h656v1344h102v-1434h-359v-233h-102v233h-399v1434h102z" />
    <glyph glyph-name="afii10017" unicode="&#x410;" horiz-adv-x="1044" 
d="M287 483l-148 -483h-98l440 1434h82l441 -1434h-99l-147 483h-471zM315 573h414l-205 681h-4z" />
    <glyph glyph-name="afii10018" unicode="&#x411;" horiz-adv-x="1004" 
d="M428 0h-305v1434h635v-90h-533v-537h219q251 0 368 -105q110 -98 110 -294q0 -408 -494 -408zM442 717h-217v-627h182q220 0 307 60q106 72 106 258t-110 255q-85 54 -268 54z" />
    <glyph glyph-name="afii10019" unicode="&#x412;" horiz-adv-x="1024" 
d="M671 754v-4q133 -22 206 -127q65 -93 65 -230q0 -222 -141 -317q-112 -76 -320 -76h-358v1434h301q469 0 469 -356q0 -140 -62 -226q-58 -80 -160 -98zM225 709v-619h205q221 0 309 60q101 69 101 243q0 186 -128 259q-101 57 -307 57h-180zM225 1344v-545h182
q252 0 327 74q57 56 57 205q0 142 -92.5 204t-305.5 62h-168z" />
    <glyph glyph-name="afii10020" unicode="&#x413;" horiz-adv-x="799" 
d="M225 1344v-1344h-102v1434h635v-90h-533z" />
    <glyph glyph-name="afii10021" unicode="&#x414;" horiz-adv-x="1249" 
d="M57 90h69q82 70 120 153q36 78 48.5 198.5t12.5 382.5v610h819v-1344h66v-323h-106v233h-923v-233h-106v323zM409 783q0 -306 -32 -456t-109 -237h756v1254h-615v-561z" />
    <glyph glyph-name="afii10022" unicode="&#x415;" horiz-adv-x="922" 
d="M123 1434h696v-90h-594v-545h471v-90h-471v-619h615v-90h-717v1434z" />
    <glyph glyph-name="afii10024" unicode="&#x416;" horiz-adv-x="1372" 
d="M737 1434v-615h41l414 615h118l-450 -680l471 -754h-119l-434 684h-41v-684h-102v684h-41l-434 -684h-119l471 754l-451 680h119l414 -615h41v615h102z" />
    <glyph glyph-name="afii10025" unicode="&#x417;" horiz-adv-x="1065" 
d="M733 760v-4q271 -69 271 -365q0 -210 -141 -319q-118 -92 -310 -92q-280 0 -430 270l92 59q130 -235 338 -235q172 0 269 104q80 86 80 213q0 150 -106 238q-95 80 -243 80h-41v80h41q130 0 214 88q75 80 75 198q0 132 -96 215q-81 70 -193 70q-89 0 -165.5 -44.5
t-115.5 -119.5l-86 56q48 93 150 149q98 53 217 53q187 0 297 -121q94 -104 94 -258q0 -131 -71 -220q-56 -71 -140 -95z" />
    <glyph glyph-name="afii10026" unicode="&#x418;" horiz-adv-x="1085" 
d="M123 0v1434h94v-1188h4l660 1188h82v-1434h-94v1209h-4l-670 -1209h-72z" />
    <glyph glyph-name="afii10027" unicode="&#x419;" horiz-adv-x="1085" 
d="M123 0v1434h94v-1188h4l660 1188h82v-1434h-94v1209h-4l-670 -1209h-72zM678 1731h89q-20 -98 -90 -151q-59 -44 -136 -44q-85 0 -150 58q-58 53 -75 137h86q11 -46 49.5 -74.5t89.5 -28.5q52 0 91 29t46 74z" />
    <glyph glyph-name="afii10028" unicode="&#x41a;" horiz-adv-x="1024" 
d="M454 744h-4l-225 -301v-443h-102v1434h102v-828h4l614 828h119l-446 -602l467 -832h-119z" />
    <glyph glyph-name="afii10029" unicode="&#x41b;" horiz-adv-x="1229" 
d="M287 824v610h819v-1434h-102v1344h-615v-561q0 -402 -63 -563q-61 -158 -228 -240l-57 86q109 50 161 135q49 78 67 210.5t18 412.5z" />
    <glyph glyph-name="afii10030" unicode="&#x41c;" horiz-adv-x="1270" 
d="M1147 1434v-1434h-94v1209h-4l-367 -1209h-98l-363 1209h-4v-1209h-94v1434h123l385 -1270h4l389 1270h123z" />
    <glyph glyph-name="afii10031" unicode="&#x41d;" horiz-adv-x="1106" 
d="M225 709v-709h-102v1434h102v-635h656v635h102v-1434h-102v709h-656z" />
    <glyph glyph-name="afii10032" unicode="&#x41e;" horiz-adv-x="1147" 
d="M571 -20q-259 0 -380 194q-109 176 -109 516q0 423 141 608q119 156 348 156q268 0 387 -206q107 -185 107 -558q0 -389 -142 -562q-121 -148 -352 -148zM571 74q392 0 392 616q0 670 -392 670q-387 0 -387 -670q0 -616 387 -616z" />
    <glyph glyph-name="afii10033" unicode="&#x41f;" horiz-adv-x="1106" 
d="M225 1344v-1344h-102v1434h860v-1434h-102v1344h-656z" />
    <glyph glyph-name="afii10034" unicode="&#x420;" horiz-adv-x="1004" 
d="M123 1434h305q493 0 493 -408q0 -223 -142 -320q-117 -79 -335 -79h-219v-627h-102v1434zM225 717h217q208 0 293 72q84 72 84 237q0 209 -135 276q-86 42 -277 42h-182v-627z" />
    <glyph glyph-name="afii10035" unicode="&#x421;" horiz-adv-x="1085" 
d="M569 -20q-487 0 -487 710q0 423 141 608q119 156 348 156q168 0 268 -93q77 -71 144 -226l-90 -35q-54 137 -127 197q-77 63 -195 63q-387 0 -387 -670q0 -616 385 -616q255 0 340 287l95 -35q-105 -346 -435 -346z" />
    <glyph glyph-name="afii10036" unicode="&#x422;" horiz-adv-x="922" 
d="M41 1434h840v-90h-369v-1344h-102v1344h-369v90z" />
    <glyph glyph-name="afii10037" unicode="&#x423;" horiz-adv-x="1044" 
d="M524 467l381 967h99l-416 -1084q-80 -209 -177 -293q-89 -77 -220 -77h-68v86h45q221 0 295 268l-422 1100h98l381 -967h4z" />
    <glyph glyph-name="afii10038" unicode="&#x424;" horiz-adv-x="1352" 
d="M727 1434v-270q275 -11 434 -136q150 -119 150 -313q0 -219 -192 -341q-155 -99 -392 -110v-264h-102v264q-294 12 -446 140q-138 115 -138 311q0 228 178 344q148 96 406 105v270h102zM1209 715q0 180 -158 274q-124 73 -324 80v-710q233 10 360 107q122 92 122 249z
M143 715q0 -178 157 -273q125 -74 325 -83v710q-233 -10 -359 -105q-123 -92 -123 -249z" />
    <glyph glyph-name="afii10039" unicode="&#x425;" horiz-adv-x="1004" 
d="M430 748l-348 686h111l307 -604h4l307 604h111l-349 -686l390 -748h-111l-348 666h-4l-348 -666h-111z" />
    <glyph glyph-name="afii10040" unicode="&#x426;" horiz-adv-x="1106" 
d="M225 1434v-1344h656v1344h102v-1344h62v-323h-102v233h-820v1434h102z" />
    <glyph glyph-name="afii10041" unicode="&#x427;" horiz-adv-x="1004" 
d="M82 797v637h102v-629q0 -146 92 -230q78 -71 195 -71q133 0 222 86q86 84 86 215v629h102v-1434h-102v543h-2q-102 -133 -306 -133q-190 0 -293 108q-96 101 -96 279z" />
    <glyph glyph-name="afii10042" unicode="&#x428;" horiz-adv-x="1454" 
d="M778 1434v-1344h451v1344h102v-1434h-1208v1434h102v-1344h451v1344h102z" />
    <glyph glyph-name="afii10043" unicode="&#x429;" horiz-adv-x="1454" 
d="M778 1434v-1344h451v1344h102v-1344h62v-323h-102v233h-1168v1434h102v-1344h451v1344h102z" />
    <glyph glyph-name="afii10044" unicode="&#x42a;" horiz-adv-x="1372" 
d="M797 0h-305v1344h-451v90h553v-635h219q251 0 367 -102q110 -97 110 -293q0 -234 -160 -332q-118 -72 -333 -72zM811 709h-217v-619h182q221 0 307 57q105 71 105 257t-109 253q-84 52 -268 52z" />
    <glyph glyph-name="afii10045" unicode="&#x42b;" horiz-adv-x="1352" 
d="M1229 1434v-1434h-102v1434h102zM123 0v1434h102v-635h219q251 0 367 -102q110 -97 110 -293q0 -234 -160 -332q-118 -72 -333 -72h-305zM225 709v-619h182q221 0 307 57q105 71 105 257t-109 253q-85 52 -268 52h-217z" />
    <glyph glyph-name="afii10046" unicode="&#x42c;" horiz-adv-x="1004" 
d="M428 0h-305v1434h102v-635h219q251 0 367 -102q110 -97 110 -293q0 -234 -160 -332q-118 -72 -333 -72zM442 709h-217v-619h182q221 0 307 57q105 71 105 257t-109 253q-85 52 -268 52z" />
    <glyph glyph-name="afii10047" unicode="&#x42d;" horiz-adv-x="1085" 
d="M516 -20q-330 0 -434 346l94 34q86 -286 340 -286q385 0 385 614h-532v90h530q-23 582 -385 582q-117 0 -192 -60.5t-129 -199.5l-91 35q78 177 170 247q94 72 242 72q262 0 381 -206q109 -187 109 -558q0 -710 -488 -710z" />
    <glyph glyph-name="afii10048" unicode="&#x42e;" horiz-adv-x="1495" 
d="M919 -20q-260 0 -380 193q-109 175 -109 515h-205v-688h-102v1434h102v-656h205q14 373 155 537q118 139 334 139q268 0 387 -206q107 -185 107 -558q0 -389 -142 -562q-121 -148 -352 -148zM919 74q392 0 392 616q0 670 -392 670q-387 0 -387 -670q0 -616 387 -616z" />
    <glyph glyph-name="afii10049" unicode="&#x42f;" horiz-adv-x="1004" 
d="M576 1434h305v-1434h-102v627h-234l-364 -627h-119l375 633q-354 45 -354 393q0 408 493 408zM562 717h217v627h-182q-220 0 -307 -60q-105 -72 -105 -258t109 -255q85 -54 268 -54z" />
    <glyph glyph-name="afii10065" unicode="&#x430;" horiz-adv-x="901" 
d="M451 958q-100 0 -158 -44.5t-86 -143.5l-92 25q51 144 142 202q75 47 194 47q327 0 327 -358v-686h-78l-20 135h-4q-93 -155 -287 -155q-161 0 -242 91q-65 74 -65 196q0 114 82 189q70 63 225 122l291 108v21q0 251 -229 251zM680 406v182l-291 -109q-209 -76 -209 -212
q0 -98 67 -154q57 -47 142 -47q149 0 229 120q62 92 62 220z" />
    <glyph glyph-name="afii10066" unicode="&#x431;" 
d="M471 -20q-199 0 -304 164q-85 134 -85 344q0 460 105 668q96 188 288 188q125 0 178 18t91 72l83 -37q-45 -74 -121.5 -107.5t-197.5 -33.5q-130 0 -196 -90q-61 -82 -87 -257h4q85 95 242 95q199 0 303 -165q86 -137 86 -351q0 -242 -111 -380q-103 -128 -278 -128z
M471 66q156 0 232 141q59 109 59 281q0 198 -78 315q-78 115 -213 115q-154 0 -231 -146q-60 -113 -60 -284q0 -200 77 -312q75 -110 214 -110z" />
    <glyph glyph-name="afii10067" unicode="&#x432;" horiz-adv-x="881" 
d="M747 770q0 -173 -133 -221v-4q185 -54 185 -262q0 -153 -100 -224q-82 -59 -224 -59h-352v1024h297q327 0 327 -254zM221 86h221q141 0 200 47q59 46 59 150q0 124 -80 175q-64 40 -191 40h-209v-412zM221 584h188q132 0 186 45q54 43 54 141t-74 137q-57 31 -170 31
h-184v-354z" />
    <glyph glyph-name="afii10068" unicode="&#x433;" horiz-adv-x="655" 
d="M123 1024h492v-86h-394v-938h-98v1024z" />
    <glyph glyph-name="afii10069" unicode="&#x434;" horiz-adv-x="1044" 
d="M906 0h-767v-233h-98v319h61q164 137 164 512v426h676v-938h62v-319h-98v233zM364 573q0 -313 -129 -487h609v850h-480v-363z" />
    <glyph glyph-name="afii10070" unicode="&#x435;" 
d="M471 66q117 0 187.5 50t105.5 158l84 -16q-49 -149 -138 -213q-90 -65 -239 -65q-195 0 -300 161q-89 138 -89 363q0 271 116 414q102 126 273 126q198 0 299 -160q89 -142 89 -389q0 -15 -1 -30h-678q8 -208 94 -311q74 -88 197 -88zM471 958q-262 0 -289 -395h578
q-32 395 -289 395z" />
    <glyph glyph-name="afii10072" unicode="&#x436;" horiz-adv-x="1167" 
d="M632 1024v-426h41l301 426h120l-340 -475l373 -549h-117l-337 500h-41v-500h-98v500h-41l-338 -500h-113l371 549l-344 475h118l306 -426h41v426h98z" />
    <glyph glyph-name="afii10073" unicode="&#x437;" horiz-adv-x="860" 
d="M701 283q0 114 -77 173q-64 48 -167 48h-49v80h49q96 0 152 60q51 56 51 146q0 84 -70 131q-56 37 -133 37q-134 0 -215 -112l-72 53q103 145 287 145q136 0 221 -73q80 -68 80 -181q0 -88 -38 -155t-97 -84v-4q84 -23 130 -91.5t46 -172.5q0 -147 -99 -229
q-90 -74 -243 -74q-123 0 -201.5 47t-132.5 153l78 49q50 -89 108 -126t148 -37q118 0 185 68q59 59 59 149z" />
    <glyph glyph-name="afii10074" unicode="&#x438;" horiz-adv-x="922" 
d="M701 0v844h-4l-478 -844h-96v1024h98v-844h4l478 844h96v-1024h-98z" />
    <glyph glyph-name="afii10075" unicode="&#x439;" horiz-adv-x="922" 
d="M701 0v844h-4l-478 -844h-96v1024h98v-844h4l478 844h96v-1024h-98zM598 1368h89q-20 -98 -90 -151q-59 -44 -136 -44q-85 0 -150 58q-58 53 -75 137h86q11 -46 49.5 -74.5t89.5 -28.5q52 0 91 29t46 74z" />
    <glyph glyph-name="afii10076" unicode="&#x43a;" horiz-adv-x="840" 
d="M221 1024v-545h4l426 545h107l-301 -383l342 -641h-103l-299 559h-4l-172 -221v-338h-98v1024h98z" />
    <glyph glyph-name="afii10077" unicode="&#x43b;" horiz-adv-x="1044" 
d="M344 936v-363q0 -232 -76 -396q-66 -143 -176 -197l-51 73q205 112 205 545v426h676v-1024h-98v936h-480z" />
    <glyph glyph-name="afii10078" unicode="&#x43c;" horiz-adv-x="1044" 
d="M922 1024v-1024h-96v721h-4l-269 -721h-61l-269 721h-4v-721h-96v1024h82l315 -854h5l315 854h82z" />
    <glyph glyph-name="afii10079" unicode="&#x43d;" 
d="M221 510v-510h-98v1024h98v-428h500v428h98v-1024h-98v510h-500z" />
    <glyph glyph-name="afii10080" unicode="&#x43e;" 
d="M471 -20q-201 0 -304 166q-85 137 -85 358q0 268 113 411q101 129 276 129q200 0 302 -167q87 -140 87 -373q0 -256 -111 -396q-102 -128 -278 -128zM471 958q-162 0 -236 -158q-55 -115 -55 -296q0 -212 76 -326q75 -112 215 -112q160 0 234 144q57 110 57 294
q0 210 -74 330q-75 124 -217 124z" />
    <glyph glyph-name="afii10081" unicode="&#x43f;" 
d="M221 938v-938h-98v1024h696v-1024h-98v938h-500z" />
    <glyph glyph-name="afii10082" unicode="&#x440;" 
d="M123 -381v1405h78l20 -135h4q41 74 110.5 114.5t155.5 40.5q194 0 291 -172q78 -138 78 -360q0 -262 -102 -402q-96 -130 -267 -130q-178 0 -266 155h-4v-516h-98zM492 958q-87 0 -159.5 -63t-111.5 -172v-317q0 -159 92 -258q76 -82 179 -82q130 0 204 134
q66 119 66 312q0 226 -85 346q-71 100 -185 100z" />
    <glyph glyph-name="afii10083" unicode="&#x441;" horiz-adv-x="860" 
d="M711 264l84 -16q-44 -144 -120 -206q-77 -62 -204 -62q-201 0 -304 164q-85 137 -85 360q0 268 113 411q101 129 276 129q127 0 202 -67.5t126 -226.5l-88 -17q-65 225 -240 225q-155 0 -230 -144q-61 -116 -61 -310q0 -224 83 -337q74 -101 208 -101q173 0 240 198z" />
    <glyph glyph-name="afii10084" unicode="&#x442;" horiz-adv-x="737" 
d="M41 1024h655v-86h-278v-938h-98v938h-279v86z" />
    <glyph glyph-name="afii10085" unicode="&#x443;" horiz-adv-x="860" 
d="M819 1024l-348 -1024q-82 -228 -125 -289q-65 -92 -172 -92h-82v88h82q68 0 116 74q39 60 99 219l-348 1024h102l285 -868h4l285 868h102z" />
    <glyph glyph-name="afii10086" unicode="&#x444;" horiz-adv-x="1540" 
d="M721 889v545h98v-545h4q41 74 110.5 115t155.5 41q194 0 291 -172q78 -139 78 -360q0 -263 -102 -402q-96 -131 -267 -131q-178 0 -266 155h-4v-516h-98v516h-4q-88 -155 -266 -155q-195 0 -291 168q-78 137 -78 365q0 256 102 398q97 134 267 134q86 0 155.5 -41
t110.5 -115h4zM1089 959q-86 0 -158.5 -63t-111.5 -173v-334q5 -152 95 -245q75 -78 175 -78q131 0 205 134q66 119 66 313q0 226 -85 346q-71 100 -186 100zM451 959q-132 0 -205 -131q-66 -118 -66 -315q0 -222 85 -344q72 -103 186 -103q119 0 198 106q72 96 72 234v317
q-43 120 -125 183q-68 53 -145 53z" />
    <glyph glyph-name="afii10087" unicode="&#x445;" horiz-adv-x="799" 
d="M731 1024l-278 -496l305 -528h-107l-250 451h-4l-250 -451h-106l301 532l-274 492h106l223 -408h4l224 408h106z" />
    <glyph glyph-name="afii10088" unicode="&#x446;" 
d="M221 1024v-938h500v938h98v-938h62v-319h-98v233h-660v1024h98z" />
    <glyph glyph-name="afii10089" unicode="&#x447;" horiz-adv-x="819" 
d="M696 0h-98v455h-4q-75 -101 -209 -101q-155 0 -234 99q-69 85 -69 233v338h98v-324q0 -260 205 -260q107 0 162 74q51 68 51 193v317h98v-1024z" />
    <glyph glyph-name="afii10090" unicode="&#x448;" horiz-adv-x="1290" 
d="M694 1024v-938h375v938h98v-1024h-1044v1024h98v-938h375v938h98z" />
    <glyph glyph-name="afii10091" unicode="&#x449;" horiz-adv-x="1290" 
d="M1131 0h-1008v1024h98v-938h375v938h98v-938h375v938h98v-938h62v-319h-98v233z" />
    <glyph glyph-name="afii10092" unicode="&#x44a;" horiz-adv-x="1085" 
d="M41 1024h446v-428h76q226 0 326 -63q114 -70 114 -236q0 -162 -95 -229.5t-323 -67.5h-196v938h-348v86zM487 510v-424h115q173 0 236 43q67 47 67 168q0 115 -74 164t-250 49h-94z" />
    <glyph glyph-name="afii10093" unicode="&#x44b;" horiz-adv-x="1167" 
d="M123 0v1024h98v-428h76q226 0 326 -63q114 -70 114 -236q0 -162 -95 -229.5t-323 -67.5h-196zM221 510v-424h115q173 0 236 43q67 47 67 168q0 115 -74 164t-250 49h-94zM1043 1024v-1024h-98v1024h98z" />
    <glyph glyph-name="afii10094" unicode="&#x44c;" horiz-adv-x="819" 
d="M123 0v1024h98v-428h76q226 0 326 -63q114 -70 114 -236q0 -162 -95 -229.5t-323 -67.5h-196zM221 510v-424h115q173 0 236 43q67 47 67 168q0 115 -74 164t-250 49h-94z" />
    <glyph glyph-name="afii10095" unicode="&#x44d;" horiz-adv-x="860" 
d="M66 248l84 16q67 -198 240 -198q147 0 221 121q64 102 69 282h-413v86h413q-10 200 -89 304q-74 99 -201 99q-176 0 -240 -225l-88 17q50 156 121 222q78 72 207 72q200 0 302 -167q87 -140 87 -373q0 -257 -111 -397q-102 -127 -278 -127q-144 0 -224 81
q-62 61 -100 187z" />
    <glyph glyph-name="afii10096" unicode="&#x44e;" horiz-adv-x="1290" 
d="M819 -20q-196 0 -299 159q-86 131 -90 344h-207v-483h-98v1024h98v-451h209q15 235 125 359q100 112 262 112q200 0 302 -167q87 -141 87 -374q0 -255 -111 -395q-102 -128 -278 -128zM819 958q-162 0 -236 -158q-55 -115 -55 -296q0 -212 76 -326q75 -112 215 -112
q160 0 234 144q57 110 57 294q0 210 -74 330q-75 124 -217 124z" />
    <glyph glyph-name="afii10097" unicode="&#x44f;" horiz-adv-x="840" 
d="M438 1024h278v-1024h-98v430h-215l-229 -430h-113l242 440q-217 67 -217 287q0 297 352 297zM428 516h190v422h-166q-139 0 -202 -49q-66 -51 -66 -162q0 -118 70 -168q58 -43 174 -43z" />
    <glyph glyph-name="uni0450" unicode="&#x450;" 
d="M471 66q117 0 187.5 50t105.5 158l84 -16q-49 -149 -138 -213q-90 -65 -239 -65q-195 0 -300 161q-89 138 -89 363q0 271 116 414q102 126 273 126q198 0 299 -160q89 -142 89 -389q0 -15 -1 -30h-678q8 -208 94 -311q74 -88 197 -88zM471 958q-262 0 -289 -395h578
q-32 395 -289 395zM287 1368h164l123 -188h-103z" />
    <glyph glyph-name="afii10071" unicode="&#x451;" 
d="M471 66q117 0 187.5 50t105.5 158l84 -16q-49 -149 -138 -213q-90 -65 -239 -65q-195 0 -300 161q-89 138 -89 363q0 271 116 414q102 126 273 126q198 0 299 -160q89 -142 89 -389q0 -15 -1 -30h-678q8 -208 94 -311q74 -88 197 -88zM471 958q-262 0 -289 -395h578
q-32 395 -289 395zM687 1368v-143h-106v143h106zM383 1368v-143h-106v143h106z" />
    <glyph glyph-name="uni0452" unicode="&#x452;" horiz-adv-x="922" 
d="M799 637v-156q0 -340 -111 -564q-91 -185 -270 -318l-57 71q195 144 274 360q66 180 66 451v156q0 160 -49 230q-50 71 -160 71q-86 0 -158.5 -63.5t-112.5 -172.5v-702h-98v1172h-123v90h123v172h98v-172h271v-90h-271v-304h4q41 75 110.5 115.5t156.5 40.5
q177 0 248 -108q59 -91 59 -279z" />
    <glyph glyph-name="uni0453" unicode="&#x453;" horiz-adv-x="696" 
d="M123 1024h492v-86h-394v-938h-98v1024zM389 1368h164l-185 -188h-102z" />
    <glyph glyph-name="uni0454" unicode="&#x454;" horiz-adv-x="860" 
d="M711 264l84 -16q-44 -144 -120 -206q-77 -62 -204 -62q-201 0 -304 164q-85 137 -85 360q0 268 113 411q101 129 276 129q127 0 202 -67.5t126 -226.5l-88 -17q-65 225 -240 225q-145 0 -221 -127q-61 -103 -70 -276h414v-86h-414q7 -207 89 -310q74 -93 202 -93
q173 0 240 198z" />
    <glyph glyph-name="uni0455" unicode="&#x455;" horiz-adv-x="778" 
d="M696 825l-96 -26q-23 74 -79 116.5t-132 42.5q-81 0 -137 -52q-52 -48 -52 -118q0 -84 51 -135.5t197 -114.5q142 -62 194 -110q75 -70 75 -176q0 -144 -112 -216q-86 -56 -216 -56q-252 0 -348 233l96 27q74 -174 252 -174q106 0 170 52q60 50 60 134q0 65 -44.5 106
t-173.5 97q-155 67 -214 123q-85 82 -85 210q0 127 97 199q79 57 190 57q234 0 307 -219z" />
    <glyph glyph-name="uni0456" unicode="&#x456;" horiz-adv-x="348" 
d="M223 1024v-1024h-98v1024h98zM227 1368v-143h-106v143h106z" />
    <glyph glyph-name="uni0457" unicode="&#x457;" horiz-adv-x="348" 
d="M223 1024v-1024h-98v1024h98zM379 1368v-143h-106v143h106zM75 1368v-143h-106v143h106z" />
    <glyph glyph-name="uni0458" unicode="&#x458;" horiz-adv-x="348" 
d="M223 1024v-1198q0 -108 -48 -158q-47 -49 -144 -49h-31v88h31q94 0 94 146v1171h98zM227 1368v-143h-106v143h106z" />
    <glyph glyph-name="uni0459" unicode="&#x459;" horiz-adv-x="1516" 
d="M344 936v-363q0 -232 -76 -396q-66 -143 -176 -197l-51 73q205 112 205 545v426h676v-428h71q226 0 327 -63q114 -70 114 -236q0 -162 -95 -229.5t-323 -67.5h-192v936h-480zM922 510v-424h110q174 0 237 43q67 47 67 168q0 115 -74.5 164t-249.5 49h-90z" />
    <glyph glyph-name="uni045A" unicode="&#x45a;" horiz-adv-x="1413" 
d="M221 510v-510h-98v1024h98v-428h500v428h98v-428h72q226 0 326 -63q114 -70 114 -236q0 -162 -95 -229.5t-323 -67.5h-192v510h-500zM819 510v-424h111q173 0 236 43q67 47 67 168q0 115 -74 164t-250 49h-90z" />
    <glyph glyph-name="uni045B" unicode="&#x45b;" horiz-adv-x="922" 
d="M0 1172v90h123v172h98v-172h271v-90h-271v-304h4q41 75 110.5 115.5t156.5 40.5q177 0 248 -108q59 -91 59 -279v-637h-98v637q0 160 -49 230q-50 71 -160 71q-86 0 -158.5 -63.5t-112.5 -172.5v-702h-98v1172h-123z" />
    <glyph glyph-name="uni045C" unicode="&#x45c;" horiz-adv-x="840" 
d="M221 1024v-545h4l426 545h107l-301 -383l342 -641h-103l-299 559h-4l-172 -221v-338h-98v1024h98zM463 1368h164l-185 -188h-102z" />
    <glyph glyph-name="uni045D" unicode="&#x45d;" horiz-adv-x="963" 
d="M701 0v844h-4l-478 -844h-96v1024h98v-844h4l478 844h96v-1024h-98zM252 1368h164l123 -188h-103z" />
    <glyph glyph-name="uni045E" unicode="&#x45e;" horiz-adv-x="860" 
d="M819 1024l-348 -1024q-82 -228 -125 -289q-65 -92 -172 -92h-82v88h82q68 0 116 74q39 60 99 219l-348 1024h102l285 -868h4l285 868h102zM567 1368h89q-20 -98 -90 -151q-59 -44 -136 -44q-85 0 -150 58q-58 53 -75 137h86q11 -46 49.5 -74.5t89.5 -28.5q52 0 91 29
t46 74z" />
    <glyph glyph-name="uni045F" unicode="&#x45f;" 
d="M221 1024v-938h500v938h98v-1024h-299v-233h-98v233h-299v1024h98z" />
    <glyph glyph-name="afii10050" unicode="&#x490;" horiz-adv-x="860" 
d="M123 1434h594v233h102v-323h-594v-1344h-102v1434z" />
    <glyph glyph-name="afii10098" unicode="&#x491;" horiz-adv-x="737" 
d="M676 938h-455v-938h-98v1024h455v233h98v-319z" />
    <glyph glyph-name="uni0492" unicode="&#x492;" horiz-adv-x="983" 
d="M41 668v90h205v676h696v-90h-594v-586h287v-90h-287v-668h-102v668h-205z" />
    <glyph glyph-name="uni0493" unicode="&#x493;" horiz-adv-x="737" 
d="M508 467h-205v-467h-98v467h-164v86h164v471h491v-86h-393v-385h205v-86z" />
    <glyph glyph-name="uni0496" unicode="&#x496;" horiz-adv-x="1372" 
d="M860 754l416 -664h61v-323h-102v233h-23l-434 684h-41v-684h-102v684h-41l-434 -684h-119l471 754l-451 680h119l414 -615h41v615h102v-615h41l414 615h118z" />
    <glyph glyph-name="uni0497" unicode="&#x497;" horiz-adv-x="1270" 
d="M754 549l313 -463h59v-319h-98v233h-18l-337 500h-41v-500h-98v500h-41l-338 -500h-113l371 549l-344 475h118l306 -426h41v426h98v-426h41l300 426h121z" />
    <glyph glyph-name="uni049A" unicode="&#x49a;" horiz-adv-x="1024" 
d="M891 0h-27l-409 744h-5l-225 -301v-443h-102v1434h102v-828h4l615 828h118l-446 -602l416 -742h61v-323h-102v233z" />
    <glyph glyph-name="uni049B" unicode="&#x49b;" horiz-adv-x="840" 
d="M709 0h-12l-300 559h-4l-172 -221v-338h-98v1024h98v-545h4l427 545h106l-301 -383l297 -555h53v-319h-98v233z" />
    <glyph glyph-name="uni04A2" unicode="&#x4a2;" horiz-adv-x="1106" 
d="M943 0h-62v709h-656v-709h-102v1434h102v-635h656v635h102v-1344h62v-323h-102v233z" />
    <glyph glyph-name="uni04A3" unicode="&#x4a3;" 
d="M783 0h-62v510h-500v-510h-98v1024h98v-428h500v428h98v-938h62v-319h-98v233z" />
    <glyph glyph-name="uni04AE" unicode="&#x4ae;" horiz-adv-x="1004" 
d="M502 711l354 723h106l-411 -828v-606h-102v606l-408 828h106l351 -723h4z" />
    <glyph glyph-name="uni04AF" unicode="&#x4af;" horiz-adv-x="860" 
d="M819 1024l-340 -901v-504h-98v504l-340 901h102l285 -766h4l285 766h102z" />
    <glyph glyph-name="uni04B0" unicode="&#x4b0;" horiz-adv-x="1004" 
d="M502 710l354 724h107l-412 -828v-33h371v-90h-371v-483h-102v483h-347v90h347v33l-408 828h106l351 -724h4z" />
    <glyph glyph-name="uni04B1" unicode="&#x4b1;" horiz-adv-x="860" 
d="M41 0v90h340v33l-340 901h102l285 -766h4l285 766h102l-340 -901v-33h340v-90h-340v-381h-98v381h-340z" />
    <glyph glyph-name="uni04B2" unicode="&#x4b2;" horiz-adv-x="1004" 
d="M573 748l342 -658h62v-323h-102v233h-23l-348 666h-4l-348 -666h-111l389 748l-348 686h111l307 -604h4l307 604h111z" />
    <glyph glyph-name="uni04B3" unicode="&#x4b3;" horiz-adv-x="799" 
d="M731 1024l-278 -496l253 -442h60v-319h-98v233h-17l-250 451h-4l-250 -451h-106l301 532l-274 492h106l223 -408h4l224 408h106z" />
    <glyph glyph-name="uni04B6" unicode="&#x4b6;" horiz-adv-x="1004" 
d="M82 797v637h102v-629q0 -146 92 -230q78 -71 195 -71q133 0 222 86q86 84 86 215v629h102v-1343h61v-324h-102v233h-61v543h-2q-102 -133 -306 -133q-190 0 -293 108q-96 101 -96 279z" />
    <glyph glyph-name="uni04B7" unicode="&#x4b7;" horiz-adv-x="819" 
d="M660 0h-62v455h-4q-75 -100 -209 -100q-155 0 -234 98q-69 86 -69 233v338h98v-323q0 -260 205 -260q107 0 162 74q51 68 51 192v317h98v-938h62v-319h-98v233z" />
    <glyph glyph-name="uni04BA" unicode="&#x4ba;" horiz-adv-x="1044" 
d="M922 637v-637h-102v629q0 146 -92 230q-78 71 -195 71q-133 0 -222 -86q-86 -84 -86 -215v-629h-102v1434h102v-543h2q102 133 306 133q190 0 293 -108q96 -101 96 -279z" />
    <glyph glyph-name="uni04BB" unicode="&#x4bb;" horiz-adv-x="860" 
d="M123 1024h98v-455h4q75 101 209 101q156 0 234 -99q69 -85 69 -233v-338h-98v324q0 260 -205 260q-107 0 -162 -74q-51 -68 -51 -193v-317h-98v1024z" />
    <glyph glyph-name="uni04C0" unicode="&#x4c0;" horiz-adv-x="348" 
d="M225 1434v-1434h-102v1434h102z" />
    <glyph glyph-name="uni04C1" unicode="&#x4c1;" horiz-adv-x="1372" 
d="M737 819h41l414 615h118l-450 -680l471 -754h-119l-434 684h-41v-684h-102v684h-41l-434 -684h-119l471 754l-451 680h119l414 -615h41v615h102v-615zM823 1731h88q-19 -98 -90 -151q-59 -44 -135 -44q-86 0 -150 58q-59 53 -75 137h86q11 -46 49.5 -74.5t89.5 -28.5
q52 0 90.5 29t46.5 74z" />
    <glyph glyph-name="uni04C2" unicode="&#x4c2;" horiz-adv-x="1167" 
d="M632 598h41l301 426h120l-340 -475l373 -549h-117l-337 500h-41v-500h-98v500h-41l-338 -500h-113l371 549l-344 475h118l306 -426h41v426h98v-426zM719 1368h88q-19 -98 -90 -151q-58 -44 -135 -44q-85 0 -150 58q-58 53 -75 137h86q11 -46 49.5 -74.5t89.5 -28.5
q52 0 91 29t46 74z" />
    <glyph glyph-name="uni04CF" unicode="&#x4cf;" horiz-adv-x="348" 
d="M225 1434v-1434h-102v1434h102z" />
    <glyph glyph-name="uni04D8" unicode="&#x4d8;" horiz-adv-x="1147" 
d="M571 1360q-262 0 -368 -305l-99 33q66 185 171 272q115 94 296 94q494 0 494 -723q0 -419 -136 -597q-118 -154 -358 -154q-277 0 -388 206q-99 183 -99 580h877q0 294 -112 451q-101 143 -278 143zM571 74q380 0 392 602h-779q12 -602 387 -602z" />
    <glyph glyph-name="uni04D9" unicode="&#x4d9;" 
d="M479 958q-117 0 -187 -50t-106 -158l-83 16q49 149 138 213q89 65 239 65q195 0 299 -161q90 -138 90 -363q0 -271 -116 -414q-102 -126 -273 -126q-198 0 -299 160q-89 142 -89 389v30h678q-8 208 -94 311q-74 88 -197 88zM479 66q262 0 289 395h-577q31 -395 288 -395z
" />
    <glyph glyph-name="uni04E2" unicode="&#x4e2;" horiz-adv-x="1085" 
d="M123 0v1434h94v-1188h4l660 1188h82v-1434h-94v1209h-4l-670 -1209h-72zM769 1647v-90h-451v90h451z" />
    <glyph glyph-name="uni04E3" unicode="&#x4e3;" horiz-adv-x="963" 
d="M701 0v844h-4l-478 -844h-96v1024h98v-844h4l478 844h96v-1024h-98zM676 1311v-90h-451v90h451z" />
    <glyph glyph-name="uni04E8" unicode="&#x4e8;" horiz-adv-x="1147" 
d="M571 -20q-259 0 -380 194q-109 176 -109 516q0 423 141 608q119 156 348 156q268 0 387 -206q107 -185 107 -558q0 -389 -142 -562q-121 -148 -352 -148zM571 74q392 0 392 614h-779q0 -614 387 -614zM571 1360q-362 0 -385 -582h775q-27 582 -390 582z" />
    <glyph glyph-name="uni04E9" unicode="&#x4e9;" 
d="M471 -20q-201 0 -304 166q-85 137 -85 358q0 268 113 411q101 129 276 129q200 0 302 -167q87 -140 87 -373q0 -256 -111 -396q-102 -128 -278 -128zM471 958q-152 0 -227 -138q-56 -102 -64 -267h580q-9 191 -83 297q-74 108 -206 108zM471 66q152 0 226 129
q57 99 63 268h-580q7 -194 84 -297q75 -100 207 -100z" />
    <glyph glyph-name="uni04EE" unicode="&#x4ee;" horiz-adv-x="1044" 
d="M524 467l381 967h99l-416 -1084q-80 -209 -177 -293q-89 -77 -220 -77h-68v86h45q221 0 295 268l-422 1100h98l381 -967h4zM748 1647v-90h-451v90h451z" />
    <glyph glyph-name="uni04EF" unicode="&#x4ef;" horiz-adv-x="860" 
d="M819 1024l-348 -1024q-82 -228 -125 -289q-65 -92 -172 -92h-82v88h82q68 0 116 74q39 60 99 219l-348 1024h102l285 -868h4l285 868h102zM656 1311v-90h-451v90h451z" />
    <glyph glyph-name="uni2011" unicode="&#x2011;" horiz-adv-x="635" 
d="M102 557v102h430v-102h-430z" />
    <glyph glyph-name="figuredash" unicode="&#x2012;" horiz-adv-x="1024" 
d="M102 668v90h819v-90h-819z" />
    <glyph glyph-name="endash" unicode="&#x2013;" horiz-adv-x="1024" 
d="M102 668v90h819v-90h-819z" />
    <glyph glyph-name="emdash" unicode="&#x2014;" horiz-adv-x="1536" 
d="M102 668v90h1331v-90h-1331z" />
    <glyph glyph-name="afii00208" unicode="&#x2015;" horiz-adv-x="1536" 
d="M102 668v90h1331v-90h-1331z" />
    <glyph glyph-name="quoteleft" unicode="&#x2018;" horiz-adv-x="307" 
d="M100 1147v144l45 143h41l-31 -143h51v-144h-106z" />
    <glyph glyph-name="quoteright" unicode="&#x2019;" horiz-adv-x="307" 
d="M206 1434v-143l-45 -144h-41l31 144h-51v143h106z" />
    <glyph glyph-name="quotesinglbase" unicode="&#x201a;" horiz-adv-x="307" 
d="M206 143v-143l-45 -144h-41l31 144h-51v143h106z" />
    <glyph glyph-name="quotedblleft" unicode="&#x201c;" horiz-adv-x="512" 
d="M305 1147v144l45 143h41l-31 -143h51v-144h-106zM100 1147v144l45 143h41l-31 -143h51v-144h-106z" />
    <glyph glyph-name="quotedblright" unicode="&#x201d;" horiz-adv-x="512" 
d="M206 1434v-143l-45 -144h-41l31 144h-51v143h106zM411 1434v-143l-45 -144h-41l31 144h-51v143h106z" />
    <glyph glyph-name="quotedblbase" unicode="&#x201e;" horiz-adv-x="512" 
d="M206 143v-143l-45 -144h-41l31 144h-51v143h106zM411 143v-143l-45 -144h-41l31 144h-51v143h106z" />
    <glyph glyph-name="dagger" unicode="&#x2020;" horiz-adv-x="614" 
d="M266 1434h82v-185h144v-82h-144v-553h-82v553h-143v82h143v185z" />
    <glyph glyph-name="daggerdbl" unicode="&#x2021;" horiz-adv-x="614" 
d="M266 1434h82v-185h144v-82h-144v-286h144v-82h-144v-185h-82v185h-143v82h143v286h-143v82h143v185z" />
    <glyph glyph-name="bullet" unicode="&#x2022;" horiz-adv-x="655" 
d="M102 596q0 99 73 165q64 58 153 58q99 0 166 -74q59 -64 59 -149q0 -100 -75 -165q-64 -56 -150 -56q-103 0 -169 72q-57 62 -57 149z" />
    <glyph glyph-name="ellipsis" unicode="&#x2026;" horiz-adv-x="922" 
d="M206 143v-143h-106v143h106zM513 143v-143h-106v143h106zM821 143v-143h-106v143h106z" />
    <glyph glyph-name="perthousand" unicode="&#x2030;" horiz-adv-x="1946" 
d="M1098 1454l-787 -1483h-94l787 1483h94zM967 -20q-118 0 -186 104q-60 91 -60 232q0 166 77 256q66 77 169 77q116 0 182 -100q59 -89 59 -233q0 -162 -77 -256q-65 -80 -164 -80zM967 571q-71 0 -113.5 -70t-42.5 -185q0 -131 51 -201q42 -57 105 -57q69 0 110 70
t41 188q0 128 -50 198q-41 57 -101 57zM368 785q-117 0 -185 104q-60 91 -60 232q0 166 77 256q66 77 168 77q117 0 183 -100q59 -89 59 -233q0 -162 -77 -256q-65 -80 -165 -80zM368 1376q-70 0 -112.5 -70t-42.5 -185q0 -131 51 -201q42 -57 104 -57q70 0 111 70t41 188
q0 128 -50 198q-41 57 -102 57zM1581 -20q-117 0 -186 104q-60 91 -60 232q0 166 77 256q66 77 169 77q117 0 183 -100q59 -89 59 -233q0 -162 -77 -256q-66 -80 -165 -80zM1581 571q-70 0 -113 -70t-43 -185q0 -131 51 -201q42 -57 105 -57q69 0 110.5 70t41.5 188
q0 128 -50 198q-41 57 -102 57z" />
    <glyph glyph-name="guilsinglleft" unicode="&#x2039;" horiz-adv-x="512" 
d="M366 274l-264 256l264 254l43 -39l-176 -215l176 -217z" />
    <glyph glyph-name="guilsinglright" unicode="&#x203a;" horiz-adv-x="512" 
d="M409 530l-264 -256l-43 39l176 217l-176 215l43 39z" />
    <glyph glyph-name="glyph507" unicode="&#x2044;" horiz-adv-x="881" 
d="M881 1454l-787 -1483h-94l786 1483h95z" />
    <glyph glyph-name="Euro" unicode="&#x20ac;" horiz-adv-x="1065" 
d="M569 -20q-219 0 -331 144q-98 126 -125 376h-113l27 82h77q-4 72 -4 108q0 33 4 96h-104l27 82h82q27 326 153 465q109 121 309 121q146 0 228.5 -67.5t163.5 -251.5l-91 -35q-56 143 -116 197q-69 63 -185 63q-179 0 -267 -147q-70 -118 -91 -345h526l-26 -82h-506
q-5 -61 -5 -96q0 -39 5 -108h440l-26 -82h-406q27 -226 117 -328q85 -98 237 -98q135 0 213 81q66 68 107 206l94 -35q-57 -189 -162 -271q-97 -75 -252 -75z" />
    <glyph glyph-name="uni20BD" unicode="&#x20bd;" horiz-adv-x="1065" 
d="M41 627v90h143v717h305q494 0 494 -408q0 -223 -143 -320q-116 -79 -334 -79h-220v-177h472v-90h-472v-360h-102v360h-143v90h143v177h-143zM286 717h218q208 0 293 72q84 72 84 237q0 209 -135 276q-86 42 -277 42h-183v-627z" />
    <glyph glyph-name="afii61352" unicode="&#x2116;" horiz-adv-x="2028" 
d="M1204 90h705v-90h-705v90zM962 1434v-1434h-72l-669 1209h-4v-1209h-94v1434h82l659 -1188h4v1188h94zM1556 260q-201 0 -304 166q-85 137 -85 358q0 268 113 412q102 129 276 129q201 0 303 -167q87 -141 87 -374q0 -256 -111 -396q-102 -128 -279 -128zM1556 1239
q-162 0 -236 -158q-55 -116 -55 -297q0 -212 76 -326q75 -112 215 -112q161 0 235 144q57 111 57 294q0 210 -74 331q-75 124 -218 124z" />
    <glyph glyph-name="trademark" unicode="&#x2122;" horiz-adv-x="1188" 
d="M123 1434h338v-66h-135v-498h-70v498h-133v66zM999 1313l-4 2l-167 -444h-43l-176 448l-2 -2v-446h-66v563h92l168 -446h4l172 446h88v-563h-66v442z" />
    <glyph glyph-name="minus" unicode="&#x2212;" horiz-adv-x="1065" 
d="M102 664v94h860v-94h-860z" />
    <glyph glyph-name="fraction" unicode="&#x2215;" horiz-adv-x="881" 
d="M881 1454l-787 -1483h-94l786 1483h95z" />
    <glyph glyph-name="radical" unicode="&#x221a;" horiz-adv-x="1229" 
d="M1126 1577l-422 -1819h-106l-297 928l-176 -59l-23 65l256 86l287 -905h4l387 1704h90z" />
    <glyph glyph-name="approxequal" unicode="&#x2248;" horiz-adv-x="1065" 
d="M348 901q-52 0 -86.5 -26.5t-79.5 -100.5l-80 53q94 170 246 170q71 0 183 -64q116 -65 192 -65q49 0 79.5 24.5t79.5 104.5l80 -53q-88 -170 -239 -170q-91 0 -222 72q-100 55 -153 55zM348 574q-52 0 -86.5 -26.5t-79.5 -101.5l-80 54q94 170 246 170q71 0 183 -64
q116 -66 192 -66q49 0 79.5 25t79.5 105l80 -54q-88 -170 -239 -170q-91 0 -222 72q-100 56 -153 56z" />
    <glyph glyph-name="notequal" unicode="&#x2260;" horiz-adv-x="1065" 
d="M102 828v94h479l76 215h82l-76 -215h299v-94h-332l-84 -234h416v-94h-448l-74 -213h-82l74 213h-330v94h362l82 234h-444z" />
    <glyph glyph-name="lessequal" unicode="&#x2264;" horiz-adv-x="1065" 
d="M102 0v94h860v-94h-860zM102 655v95l860 430v-103l-745 -372v-5l745 -372v-103z" />
    <glyph glyph-name="greaterequal" unicode="&#x2265;" horiz-adv-x="1065" 
d="M962 94v-94h-860v94h860zM962 750v-95l-860 -430v103l745 372v5l-745 372v103z" />
    <glyph glyph-name="dotmath" unicode="&#x22c5;" horiz-adv-x="512" 
d="M309 799v-143h-106v143h106z" />
    <glyph glyph-name="uniE001" unicode="&#xe001;" horiz-adv-x="492" 
d="M41 938v86h123l20 303h78v-303h168v-86h-168v-672q0 -96 28 -136t97 -40h64v-90h-66q-123 0 -172 59t-49 207v672h-123zM102 -315l37 51q64 -51 132 -51q42 0 70 23.5t28 58.5q0 34 -28 56.5t-70 22.5q-35 0 -64 -16l-16 10l94 160h84l-62 -98l2 -2q17 4 31 4
q57 0 94 -39t37 -98q0 -66 -50 -107t-130 -41q-106 0 -189 66z" />
    <glyph glyph-name="uniE002" unicode="&#xe002;" horiz-adv-x="655" 
d="M250 1350h63q109 0 109 -90q0 -63 -49 -84l61 -103h-49l-59 96h-31v-96h-45v277zM295 1221h20q58 0 58 39q0 36 -60 36h-18v-75zM82 1208q0 109 81 183q70 63 165 63q109 0 182 -81q64 -70 64 -165q0 -108 -81 -182q-71 -63 -165 -63q-110 0 -183 81q-63 70 -63 164z
M125 1208q0 -90 67 -150q57 -52 136 -52q89 0 149 67q52 57 52 135q0 90 -66 150q-58 53 -135 53q-90 0 -151 -67q-52 -58 -52 -136z" />
    <glyph glyph-name="uniE003" unicode="&#xe003;" horiz-adv-x="655" 
d="M41 1434h196v-41h-73v-262h-49v262h-74v41zM526 1330h-4l-72 -199h-39l-71 199h-4v-199h-45v303h59l80 -219h4l84 219h55v-303h-47v199z" />
    <glyph glyph-name="uniE004" unicode="&#xe004;" horiz-adv-x="7844" 
d="M225 709v-709h-102v1434h102v-635h656v635h102v-1434h-102v709h-656zM1229 367v657h98v-657q0 -153 42 -221q50 -80 167 -80q95 0 164.5 66t105.5 190v702h98v-1024h-78l-20 135h-4q-86 -155 -266 -155q-184 0 -254 118q-53 89 -53 269zM2724 825l-96 -26
q-23 74 -79 116.5t-132 42.5q-81 0 -137 -52q-52 -48 -52 -118q0 -84 51 -135.5t196 -114.5q143 -62 194 -110q75 -69 75 -176q0 -144 -112 -216q-85 -56 -216 -56q-251 0 -347 233l96 27q74 -174 252 -174q106 0 169 52q60 50 60 134q0 65 -44 106t-173 97
q-155 67 -214 123q-85 82 -85 210q0 127 97 199q79 57 190 57q234 0 307 -219zM3625 1024v-1405h-98v516h-4q-88 -155 -266 -155q-195 0 -291 168q-78 137 -78 364q0 256 103 398q96 134 266 134q86 0 155.5 -40.5t110.5 -114.5h4l21 135h77zM3256 958q-131 0 -204 -130
q-66 -118 -66 -316q0 -221 85 -343q72 -103 185 -103q120 0 199 106q72 96 72 234v317q-43 120 -125 183q-67 52 -146 52zM4547 1024l-348 -1024h-82l-349 1024h103l285 -868h4l284 868h103zM4998 958q-100 0 -157.5 -44.5t-86.5 -143.5l-92 25q51 144 142 202q75 47 194 47
q163 0 246 -93q81 -91 81 -265v-686h-78l-20 135h-4q-92 -155 -287 -155q-161 0 -241 91q-66 74 -66 196q0 114 82 189q70 63 225 122l291 108v21q0 251 -229 251zM5227 406v182l-291 -109q-209 -76 -209 -212q0 -98 67 -154q57 -47 142 -47q149 0 229 120q62 92 62 220z
M5980 1044v-86h-41q-146 0 -216 -121q-54 -92 -54 -237v-600h-98v1024h78l20 -135h4q35 73 105.5 114t160.5 41h41zM6820 658v-658h-98v658q0 152 -42 220q-50 80 -167 80q-86 0 -159 -63.5t-112 -171.5v-723h-98v1024h78l20 -135h4q87 155 267 155q184 0 254 -118
q53 -89 53 -268zM7394 958q-100 0 -158 -44.5t-86 -143.5l-92 25q51 144 142 202q75 47 194 47q163 0 246 -93q81 -91 81 -265v-686h-77l-21 135h-4q-93 -155 -287 -155q-161 0 -241 91q-66 74 -66 196q0 114 82 189q70 63 225 122l291 108v21q0 251 -229 251zM7623 406v182
l-291 -109q-209 -76 -209 -212q0 -98 67 -154q57 -47 142 -47q149 0 229 120q62 92 62 220z" />
    <glyph glyph-name="uniE005" unicode="&#xe005;" horiz-adv-x="860" 
d="M701 283q0 114 -77 173q-64 48 -167 48h-49v80h49q96 0 152 60q51 56 51 146q0 84 -70 131q-56 37 -133 37q-134 0 -215 -112l-72 53q103 145 287 145q136 0 221 -73q80 -68 80 -181q0 -88 -38 -155t-97 -84v-4q84 -23 130 -91.5t46 -172.5q0 -147 -99 -229
q-90 -74 -243 -74q-123 0 -201.5 47t-132.5 153l78 49q50 -89 108 -126t148 -37q118 0 185 68q59 59 59 149zM514 1368h164l-185 -188h-102z" />
    <glyph glyph-name="uniE006" unicode="&#xe006;" horiz-adv-x="860" 
d="M711 264l84 -16q-44 -144 -120 -206q-77 -62 -204 -62q-201 0 -304 164q-85 137 -85 360q0 268 113 411q101 129 276 129q127 0 202 -67.5t126 -226.5l-88 -17q-65 225 -240 225q-155 0 -230 -144q-61 -116 -61 -310q0 -224 83 -337q74 -101 208 -101q173 0 240 198z
M516 1368h164l-184 -188h-103z" />
    <glyph glyph-name="uniE007" unicode="&#xe007;" horiz-adv-x="922" 
d="M246 -315l37 51q64 -50 131 -50q42 0 70 23.5t28 57.5q0 35 -27.5 57.5t-70.5 22.5q-34 0 -63 -16l-17 10l94 160h-18v1343h-369v90h840v-90h-369v-1343l-61 -99l2 -2q16 4 31 4q57 0 94 -38.5t37 -98.5q0 -65 -50 -106t-130 -41q-106 0 -189 65z" />
    <glyph glyph-name="uniE008" unicode="&#xe008;" horiz-adv-x="1085" 
d="M569 -20q-487 0 -487 710q0 423 141 608q119 156 348 156q168 0 268 -93q77 -71 144 -226l-90 -35q-54 137 -127 197q-77 63 -195 63q-387 0 -387 -670q0 -616 385 -616q255 0 340 287l95 -35q-105 -346 -435 -346zM614 1724h164l-184 -188h-102z" />
    <glyph glyph-name="uniE009" unicode="&#xe009;" horiz-adv-x="1065" 
d="M733 760v-4q271 -69 271 -365q0 -210 -141 -319q-118 -92 -310 -92q-280 0 -430 270l92 59q130 -235 338 -235q172 0 269 104q80 86 80 213q0 150 -106 238q-95 80 -243 80h-41v80h41q130 0 214 88q75 80 75 198q0 132 -96 215q-81 70 -193 70q-89 0 -165.5 -44.5
t-115.5 -119.5l-86 56q48 93 150 149q98 53 217 53q187 0 297 -121q94 -104 94 -258q0 -131 -71 -220q-56 -71 -140 -95zM604 1724h164l-184 -188h-103z" />
    <glyph glyph-name="uniE00A" unicode="&#xe00a;" horiz-adv-x="1208" 
d="M452 1323h92l-65 -399h336l63 399h92l-63 -399h199l-17 -88h-196l-56 -349h197l-17 -84h-196l-62 -403h-92l62 403h-334l-62 -403h-92l62 403h-201l16 84h201l55 349h-202l18 88h197zM467 836l-60 -349h338l55 349h-333z" />
    <glyph glyph-name="uniE00B" unicode="&#xe00b;" horiz-adv-x="1884" 
d="M1884 1171l-942 -1191l-942 1191h811v578h262v-578h811zM942 338l483 610h-966z" />
    <glyph glyph-name="uniE00C" unicode="&#xe00c;" horiz-adv-x="1884" 
d="M1884 578h-811v-578h-262v578h-811l942 1192zM942 1411l-483 -610h966z" />
    <glyph glyph-name="uniE00F" unicode="&#xe00f;" horiz-adv-x="1065" 
d="M533 -20q-233 0 -352 225q-99 186 -99 485q0 764 451 764q450 0 450 -764q0 -346 -127 -535q-118 -175 -323 -175zM533 74q191 0 279 196q69 155 69 420q0 351 -91 516q-86 154 -257 154q-349 0 -349 -670q0 -304 94 -463q89 -153 255 -153z" />
    <glyph glyph-name="uniE010" unicode="&#xe010;" horiz-adv-x="1065" 
d="M533 1454q192 0 304 -114q106 -109 106 -296q0 -183 -128 -362q-81 -113 -317 -352l-239 -240h684v-90h-840v65l281 281q279 279 366 414q91 141 91 285q0 156 -84 238q-78 77 -224 77q-220 0 -319 -303l-93 23q63 177 147 265q106 109 265 109z" />
    <glyph glyph-name="uniE011" unicode="&#xe011;" horiz-adv-x="1065" 
d="M733 760v-4q271 -69 271 -365q0 -210 -141 -319q-118 -92 -310 -92q-280 0 -430 270l92 59q130 -235 338 -235q172 0 269 104q80 86 80 213q0 150 -106 238q-95 80 -243 80h-41v80h41q130 0 214 88q75 80 75 198q0 132 -96 215q-81 70 -193 70q-89 0 -165.5 -44.5
t-115.5 -119.5l-86 56q48 93 150 149q98 53 217 53q187 0 297 -121q94 -104 94 -258q0 -131 -71 -220q-56 -71 -140 -95z" />
    <glyph glyph-name="uniE012" unicode="&#xe012;" horiz-adv-x="1065" 
d="M103 426l632 1008h82v-959h207v-90h-207v-385h-102v385h-612v41zM238 475h477v754h-4z" />
    <glyph glyph-name="uniE013" unicode="&#xe013;" horiz-adv-x="1065" 
d="M82 215l76 62q69 -97 157.5 -150t182.5 -53q163 0 265 109q98 105 98 274q0 184 -125 294q-102 89 -238 89q-202 0 -310 -178l-65 26l61 746h699v-90h-608q-8 -99 -41 -506h4q43 42 116.5 69t143.5 27q225 0 353 -147q112 -128 112 -328q0 -232 -143 -364
q-125 -115 -322 -115q-111 0 -224 62q-115 63 -192 173z" />
    <glyph glyph-name="uniE014" unicode="&#xe014;" horiz-adv-x="1065" 
d="M178 696l2 -2q49 91 151 146q96 51 210 51q210 0 338 -157q104 -128 104 -300q0 -202 -131 -332q-122 -122 -311 -122q-222 0 -339 147q-120 152 -120 449q0 487 127 696q110 182 332 182q246 0 368 -169l-79 -52q-97 127 -289 127q-171 0 -256 -155.5t-107 -508.5z
M193 434q0 -182 114 -280q93 -80 234 -80q162 0 256 106q84 96 84 254q0 176 -109 277q-92 86 -231 86q-163 0 -260 -108q-88 -98 -88 -255z" />
    <glyph glyph-name="uniE015" unicode="&#xe015;" horiz-adv-x="1065" 
d="M123 1344v90h819v-69l-631 -1365h-106l633 1344h-715z" />
    <glyph glyph-name="uniE016" unicode="&#xe016;" horiz-adv-x="1065" 
d="M983 402q0 -216 -133 -326q-116 -96 -317 -96q-224 0 -345 125q-106 111 -106 297q0 140 82 245q67 86 176 134v4q-195 95 -195 315q0 154 104 254q105 100 284 100q203 0 308 -127q79 -95 79 -227q0 -107 -52 -190.5t-145 -124.5v-4q126 -56 195 -160q65 -98 65 -219z
M184 402q0 -161 113 -252q95 -76 236 -76q164 0 261 99q87 88 87 229q0 162 -112 253q-94 77 -236 77q-163 0 -261 -100q-88 -90 -88 -230zM245 1100q0 -121 90 -198q80 -68 198 -68q133 0 216 88q71 74 71 178q0 120 -90 194q-80 66 -197 66q-137 0 -219 -84
q-69 -72 -69 -176z" />
    <glyph glyph-name="uniE017" unicode="&#xe017;" horiz-adv-x="1065" 
d="M887 738l-2 2q-49 -91 -151 -146q-96 -51 -210 -51q-210 0 -338 157q-104 128 -104 300q0 202 131 332q122 122 311 122q222 0 339 -147q120 -152 120 -449q0 -487 -127 -696q-110 -182 -332 -182q-246 0 -368 170l80 51q96 -127 288 -127q172 0 257 155.5t106 508.5z
M872 1000q0 182 -114 280q-93 80 -234 80q-162 0 -256 -106q-84 -96 -84 -254q0 -176 109 -277q92 -86 231 -86q163 0 260 108q88 98 88 255z" />
    <glyph glyph-name="uniE018" unicode="&#xe018;" horiz-adv-x="307" 
d="M206 -135v-143l-45 -123h-41l31 123h-51v143h106z" />
    <glyph glyph-name="uniE019" unicode="&#xe019;" horiz-adv-x="1065" 
d="M311 0v90h246v1217l-2 2l-201 -141l-47 71l270 195h78v-1344h246v-90h-590z" />
    <glyph glyph-name="glyph65" horiz-adv-x="410" 
 />
    <glyph glyph-name="glyph97" horiz-adv-x="410" 
 />
    <glyph glyph-name="glyph146" horiz-adv-x="410" 
 />
    <glyph glyph-name="glyph152" horiz-adv-x="410" 
 />
    <glyph glyph-name="glyph153" horiz-adv-x="410" 
 />
    <glyph glyph-name="glyph154" horiz-adv-x="410" 
 />
    <glyph glyph-name="glyph156" horiz-adv-x="410" 
 />
    <glyph glyph-name="glyph164" horiz-adv-x="410" 
 />
    <glyph glyph-name="glyph166" horiz-adv-x="410" 
 />
    <glyph glyph-name="glyph172" horiz-adv-x="1065" 
 />
    <glyph glyph-name="glyph185" horiz-adv-x="410" 
 />
    <glyph glyph-name="glyph210" horiz-adv-x="410" 
 />
    <glyph glyph-name="Tilde" horiz-adv-x="1044" 
d="M653 1700h91q-4 -76 -42.5 -120t-101.5 -44q-40 0 -88 41q-39 33 -65 33q-49 0 -64 -74h-90q6 72 46 118t97 46q45 0 92 -42q36 -32 62 -32q54 0 63 74z" />
    <glyph glyph-name="Hungarumlaut" horiz-adv-x="1147" 
d="M512 1724h164l-185 -188h-102zM758 1724h163l-184 -188h-102z" />
    <glyph glyph-name="Cedilla" horiz-adv-x="573" 
d="M102 -315l37 51q64 -51 131 -51q43 0 71 23.5t28 58.5q0 34 -28 56.5t-71 22.5q-34 0 -64 -16l-16 10l94 160h84l-61 -98l2 -2q16 4 31 4q57 0 94 -39t37 -98q0 -66 -50 -107t-130 -41q-106 0 -189 66z" />
    <glyph glyph-name="Ogonek" horiz-adv-x="594" 
d="M313 -299q74 0 129 45l49 -53q-64 -74 -178 -74q-106 0 -163 54q-48 45 -48 118q0 63 34 112t111 97h84q-127 -104 -127 -197q0 -46 30 -74t79 -28z" />
    <glyph glyph-name="Macron" horiz-adv-x="1147" 
d="M799 1667v-90h-451v90h451z" />
    <glyph glyph-name="Commaaccent" horiz-adv-x="1024" 
d="M544 -135v-143l-45 -123h-41l31 123h-51v143h106z" />
    <glyph glyph-name="Caron" horiz-adv-x="983" 
d="M557 1536h-121l-164 188h92l133 -114l133 114h93z" />
    <glyph glyph-name="Circumflex" horiz-adv-x="1044" 
d="M457 1724h121l166 -188h-93l-133 114l-133 -114h-92z" />
    <glyph glyph-name="Comma.high" horiz-adv-x="799" 
d="M454 1434v-143l-45 -123h-41l31 123h-51v143h106z" />
    <glyph glyph-name="Breve" horiz-adv-x="1085" 
d="M700 1731h89q-20 -98 -90 -151q-59 -44 -136 -44q-85 0 -150 58q-58 53 -75 137h86q11 -46 49.5 -74.5t89.5 -28.5q52 0 91 29t46 74z" />
    <glyph glyph-name="commaaccent" horiz-adv-x="782" 
d="M448 -135v-143l-45 -123h-41l31 123h-51v143h106z" />
    <glyph glyph-name="comma.high" horiz-adv-x="553" 
d="M532 1434v-143l-45 -123h-41l31 123h-51v143h106z" />
    <glyph glyph-name="dieresis.alt" horiz-adv-x="348" 
d="M379 1368v-143h-106v143h106zM75 1368v-143h-106v143h106z" />
    <glyph glyph-name="commareversed" 
d="M426 1188v143l45 123h41l-31 -123h51v-143h-106z" />
    <glyph glyph-name="Grave" horiz-adv-x="1044" 
d="M293 1724h164l123 -188h-103z" />
    <glyph glyph-name="Acute" horiz-adv-x="1044" 
d="M580 1724h164l-185 -188h-102z" />
    <glyph glyph-name="Ring" horiz-adv-x="993" 
d="M330 1665q0 73 54 122q47 42 110 42q73 0 122 -54q42 -47 42 -110q0 -73 -54 -122q-47 -42 -110 -42q-73 0 -122 54q-42 47 -42 110zM402 1665q0 -37 27.5 -64.5t64.5 -27.5t64.5 27.5t27.5 64.5t-27.5 64.5t-64.5 27.5t-64.5 -27.5t-27.5 -64.5z" />
    <glyph glyph-name="Dotaccent" horiz-adv-x="983" 
d="M544 1679v-143h-106v143h106z" />
    <glyph glyph-name="Dieresis" horiz-adv-x="1044" 
d="M734 1679v-143h-106v143h106zM430 1679v-143h-106v143h106z" />
    <glyph glyph-name="Dieresis.alt" horiz-adv-x="348" 
d="M379 1679v-143h-106v143h106zM75 1679v-143h-106v143h106z" />
    </font>
</defs>
</svg>
